G04*
G04 #@! TF.GenerationSoftware,Altium Limited,Altium Designer,26.3.0 (6)*
G04*
G04 Layer_Color=16711935*
%FSLAX44Y44*%
%MOMM*%
G71*
G04*
G04 #@! TF.SameCoordinates,F5B4D004-6090-4AF4-A6DE-7E30F960DECD*
G04*
G04*
G04 #@! TF.FilePolarity,Negative*
G04*
G01*
G75*
%ADD27R,2.6040X2.6040*%
%ADD28C,2.6040*%
%ADD29C,5.7912*%
%ADD30O,2.8448X1.5240*%
%ADD31R,1.7532X1.7532*%
%ADD32C,1.7532*%
%ADD33C,1.3462*%
%ADD34R,1.3462X1.3462*%
%ADD35R,1.3120X1.3120*%
%ADD36C,1.3120*%
%ADD37C,1.5112*%
%ADD38R,1.5112X1.5112*%
%ADD39R,1.3932X1.3932*%
%ADD40C,1.3932*%
%ADD41R,1.5112X1.5112*%
%ADD42R,2.0040X2.0040*%
%ADD43C,2.0040*%
%ADD44R,2.0532X2.0532*%
%ADD45C,2.0532*%
%ADD46C,1.2332*%
%ADD47C,1.7232*%
G04:AMPARAMS|DCode=48|XSize=1.7232mm|YSize=1.7232mm|CornerRadius=0.4816mm|HoleSize=0mm|Usage=FLASHONLY|Rotation=90.000|XOffset=0mm|YOffset=0mm|HoleType=Round|Shape=RoundedRectangle|*
%AMROUNDEDRECTD48*
21,1,1.7232,0.7600,0,0,90.0*
21,1,0.7600,1.7232,0,0,90.0*
1,1,0.9632,0.3800,0.3800*
1,1,0.9632,0.3800,-0.3800*
1,1,0.9632,-0.3800,-0.3800*
1,1,0.9632,-0.3800,0.3800*
%
%ADD48ROUNDEDRECTD48*%
G04:AMPARAMS|DCode=49|XSize=1.7232mm|YSize=1.7232mm|CornerRadius=0.4816mm|HoleSize=0mm|Usage=FLASHONLY|Rotation=180.000|XOffset=0mm|YOffset=0mm|HoleType=Round|Shape=RoundedRectangle|*
%AMROUNDEDRECTD49*
21,1,1.7232,0.7600,0,0,180.0*
21,1,0.7600,1.7232,0,0,180.0*
1,1,0.9632,-0.3800,0.3800*
1,1,0.9632,0.3800,0.3800*
1,1,0.9632,0.3800,-0.3800*
1,1,0.9632,-0.3800,-0.3800*
%
%ADD49ROUNDEDRECTD49*%
%ADD50C,0.9532*%
D27*
X1184200Y695000D02*
D03*
X1055000D02*
D03*
D28*
X1235000D02*
D03*
X1105800D02*
D03*
D29*
X1020000Y245000D02*
D03*
X1440000Y60000D02*
D03*
Y740000D02*
D03*
X63500Y63500D02*
D03*
X60000Y740000D02*
D03*
D30*
X756900Y668100D02*
D03*
Y642700D02*
D03*
X833100D02*
D03*
Y668100D02*
D03*
X756900Y617300D02*
D03*
Y591900D02*
D03*
X833100Y617300D02*
D03*
Y591900D02*
D03*
X756900Y518100D02*
D03*
Y492700D02*
D03*
X833100D02*
D03*
Y518100D02*
D03*
X756900Y467300D02*
D03*
Y441900D02*
D03*
X833100Y467300D02*
D03*
Y441900D02*
D03*
X756900Y348100D02*
D03*
Y322700D02*
D03*
X833100D02*
D03*
Y348100D02*
D03*
X756900Y297300D02*
D03*
Y271900D02*
D03*
X833100Y297300D02*
D03*
Y271900D02*
D03*
D31*
X460308Y711758D02*
D03*
X615000Y711600D02*
D03*
D32*
X460308Y686358D02*
D03*
Y660958D02*
D03*
Y635559D02*
D03*
Y610159D02*
D03*
Y584758D02*
D03*
Y559358D02*
D03*
Y533959D02*
D03*
Y508559D02*
D03*
X615000Y686200D02*
D03*
Y660800D02*
D03*
Y635400D02*
D03*
Y610000D02*
D03*
Y584600D02*
D03*
Y559200D02*
D03*
Y533800D02*
D03*
Y508400D02*
D03*
D33*
X215000Y452700D02*
D03*
X250000D02*
D03*
X285000D02*
D03*
X55000Y187700D02*
D03*
X100000D02*
D03*
X145000D02*
D03*
D34*
X215000Y427300D02*
D03*
X250000D02*
D03*
X285000D02*
D03*
X55000Y162300D02*
D03*
X100000D02*
D03*
X145000D02*
D03*
D35*
X369600Y225000D02*
D03*
D36*
X395000D02*
D03*
X420400D02*
D03*
D37*
X65500Y560000D02*
D03*
Y580000D02*
D03*
Y600000D02*
D03*
Y620000D02*
D03*
X230000Y730000D02*
D03*
X250000D02*
D03*
X55000Y400000D02*
D03*
Y380000D02*
D03*
Y360000D02*
D03*
Y340000D02*
D03*
X350000Y730000D02*
D03*
X1330000Y504500D02*
D03*
X1350000D02*
D03*
D38*
X65500Y640000D02*
D03*
X55000Y320000D02*
D03*
D39*
X318100Y168800D02*
D03*
D40*
Y194200D02*
D03*
Y219600D02*
D03*
Y245000D02*
D03*
Y270400D02*
D03*
Y295800D02*
D03*
Y321200D02*
D03*
X241900D02*
D03*
Y295800D02*
D03*
Y270400D02*
D03*
Y245000D02*
D03*
Y219600D02*
D03*
Y194200D02*
D03*
Y168800D02*
D03*
D41*
X270000Y730000D02*
D03*
X370000D02*
D03*
X1370000Y504500D02*
D03*
D42*
X700000Y40000D02*
D03*
X430000D02*
D03*
X160000D02*
D03*
X970000D02*
D03*
X1240000D02*
D03*
D43*
X750000D02*
D03*
X800000D02*
D03*
X480000D02*
D03*
X530000D02*
D03*
X210000D02*
D03*
X260000D02*
D03*
X1020000D02*
D03*
X1070000D02*
D03*
X1290000D02*
D03*
X1340000D02*
D03*
D44*
X395000Y660000D02*
D03*
D45*
X369600D02*
D03*
X344200D02*
D03*
D46*
X564400Y255000D02*
D03*
X515600D02*
D03*
D47*
X1460000Y305400D02*
D03*
Y280000D02*
D03*
Y254600D02*
D03*
Y203800D02*
D03*
Y229200D02*
D03*
X1223800Y140000D02*
D03*
X1249200D02*
D03*
X1274600D02*
D03*
X1325400D02*
D03*
X1300000D02*
D03*
D48*
X1460000Y178400D02*
D03*
D49*
X1350800Y140000D02*
D03*
D50*
X290000Y360000D02*
D03*
X180000Y375000D02*
D03*
X350000Y610000D02*
D03*
X1040000Y600000D02*
D03*
X1140000Y610000D02*
D03*
X700000Y310000D02*
D03*
X425000Y105000D02*
D03*
X180000Y655000D02*
D03*
X420000Y370000D02*
D03*
X475000Y350000D02*
D03*
X480000Y385000D02*
D03*
X425000Y150000D02*
D03*
X700000Y400000D02*
D03*
X670000Y390000D02*
D03*
X700000Y480000D02*
D03*
X755000Y560000D02*
D03*
X865000Y665000D02*
D03*
X890000Y560000D02*
D03*
X945000Y490000D02*
D03*
X1135000Y510000D02*
D03*
X1160000D02*
D03*
X1135000Y305000D02*
D03*
X1210000D02*
D03*
X1070000Y405000D02*
D03*
X1030000D02*
D03*
X1135000Y420000D02*
D03*
X1110000D02*
D03*
X1430000Y445000D02*
D03*
X1260000Y425000D02*
D03*
X1020000Y340000D02*
D03*
X450000Y775000D02*
D03*
X1170000Y635000D02*
D03*
X1210000Y665000D02*
D03*
X1209440Y468702D02*
D03*
X1290000Y545000D02*
D03*
X1110000Y515000D02*
D03*
X735000Y390000D02*
D03*
X605000Y420000D02*
D03*
X805000Y385000D02*
D03*
X815000Y420000D02*
D03*
X570000Y480000D02*
D03*
X369800Y264800D02*
D03*
X515000Y600000D02*
D03*
X595000Y475000D02*
D03*
X615000Y340000D02*
D03*
X565000Y370000D02*
D03*
X515000D02*
D03*
X550000Y440000D02*
D03*
X270000Y545000D02*
D03*
X555000Y360000D02*
D03*
X505000D02*
D03*
M02*
