G04*
G04 #@! TF.GenerationSoftware,Altium Limited,Altium Designer,26.3.0 (6)*
G04*
G04 Layer_Color=8421504*
%FSLAX44Y44*%
%MOMM*%
G71*
G04*
G04 #@! TF.SameCoordinates,F5B4D004-6090-4AF4-A6DE-7E30F960DECD*
G04*
G04*
G04 #@! TF.FilePolarity,Positive*
G04*
G01*
G75*
%ADD16R,1.5500X1.5000*%
%ADD17R,0.3000X1.4000*%
%ADD18R,1.4621X1.2081*%
%ADD19R,1.5000X1.5500*%
%ADD20R,1.5240X1.5240*%
%ADD21R,1.2081X1.4621*%
G04:AMPARAMS|DCode=22|XSize=2.0771mm|YSize=0.5821mm|CornerRadius=0.2911mm|HoleSize=0mm|Usage=FLASHONLY|Rotation=90.000|XOffset=0mm|YOffset=0mm|HoleType=Round|Shape=RoundedRectangle|*
%AMROUNDEDRECTD22*
21,1,2.0771,0.0000,0,0,90.0*
21,1,1.4949,0.5821,0,0,90.0*
1,1,0.5821,0.0000,0.7475*
1,1,0.5821,0.0000,-0.7475*
1,1,0.5821,0.0000,-0.7475*
1,1,0.5821,0.0000,0.7475*
%
%ADD22ROUNDEDRECTD22*%
%ADD23R,0.5821X2.0771*%
D16*
X500000Y404250D02*
D03*
Y385750D02*
D03*
X890000Y298500D02*
D03*
Y280000D02*
D03*
Y348500D02*
D03*
Y330000D02*
D03*
X890000Y524250D02*
D03*
Y505750D02*
D03*
X890000Y473500D02*
D03*
Y455000D02*
D03*
X1160000Y333500D02*
D03*
Y315000D02*
D03*
X1210000Y365000D02*
D03*
Y383500D02*
D03*
X1110000Y365750D02*
D03*
Y384250D02*
D03*
X890000Y618500D02*
D03*
Y600000D02*
D03*
Y650000D02*
D03*
Y668500D02*
D03*
X700000Y669250D02*
D03*
Y650750D02*
D03*
Y519250D02*
D03*
Y500750D02*
D03*
Y349250D02*
D03*
Y330750D02*
D03*
X580000Y404250D02*
D03*
Y385750D02*
D03*
D17*
X530000Y419000D02*
D03*
X535000D02*
D03*
X540000D02*
D03*
X545000D02*
D03*
X550000D02*
D03*
Y375000D02*
D03*
X545000D02*
D03*
X540000D02*
D03*
X535000D02*
D03*
X530000D02*
D03*
D18*
X395000Y400000D02*
D03*
Y420040D02*
D03*
X1385000Y414980D02*
D03*
Y435020D02*
D03*
X1345000Y414960D02*
D03*
Y435000D02*
D03*
X1160000Y384290D02*
D03*
Y364250D02*
D03*
X1060000Y385020D02*
D03*
Y364980D02*
D03*
X110000Y535000D02*
D03*
Y514960D02*
D03*
X155000Y535020D02*
D03*
Y514980D02*
D03*
X205000Y535000D02*
D03*
Y514960D02*
D03*
X55000Y265020D02*
D03*
Y244980D02*
D03*
X100000Y265020D02*
D03*
Y244980D02*
D03*
X145000Y265020D02*
D03*
Y244980D02*
D03*
D19*
X1029250Y430000D02*
D03*
X1010750D02*
D03*
X1028500Y460000D02*
D03*
X1010000D02*
D03*
X1028500Y490000D02*
D03*
X1010000D02*
D03*
X135000Y645000D02*
D03*
X153500D02*
D03*
X125750Y405000D02*
D03*
X144250D02*
D03*
X1239250Y545000D02*
D03*
X1220750D02*
D03*
D20*
X960000Y570000D02*
D03*
X929520D02*
D03*
D21*
X135000Y600000D02*
D03*
X155040D02*
D03*
X305020Y585000D02*
D03*
X284980D02*
D03*
X240020D02*
D03*
X219980D02*
D03*
X124980Y345000D02*
D03*
X145020D02*
D03*
X510020Y325000D02*
D03*
X489980D02*
D03*
X569980D02*
D03*
X590020D02*
D03*
X1350020Y210000D02*
D03*
X1329980D02*
D03*
X1300000D02*
D03*
X1279960D02*
D03*
X1229980D02*
D03*
X1250020D02*
D03*
X1185020Y545000D02*
D03*
X1164980D02*
D03*
X1104980D02*
D03*
X1125020D02*
D03*
D22*
X1070550Y488675D02*
D03*
X1083250D02*
D03*
X1095950D02*
D03*
X1108650D02*
D03*
X1121350D02*
D03*
X1134050D02*
D03*
X1146750D02*
D03*
X1159450D02*
D03*
Y441325D02*
D03*
X1146750D02*
D03*
X1134050D02*
D03*
X1121350D02*
D03*
X1108650D02*
D03*
X1095950D02*
D03*
X1083250D02*
D03*
D23*
X1070550D02*
D03*
M02*
