G04*
G04 #@! TF.GenerationSoftware,Altium Limited,Altium Designer,26.3.0 (6)*
G04*
G04 Layer_Physical_Order=1*
G04 Layer_Color=255*
%FSLAX44Y44*%
%MOMM*%
G71*
G04*
G04 #@! TF.SameCoordinates,F5B4D004-6090-4AF4-A6DE-7E30F960DECD*
G04*
G04*
G04 #@! TF.FilePolarity,Positive*
G04*
G01*
G75*
%ADD10C,0.2000*%
%ADD15C,0.2540*%
%ADD16R,1.5500X1.5000*%
%ADD17R,0.3000X1.4000*%
%ADD18R,1.4621X1.2081*%
%ADD19R,1.5000X1.5500*%
%ADD20R,1.5240X1.5240*%
%ADD21R,1.2081X1.4621*%
G04:AMPARAMS|DCode=22|XSize=2.0771mm|YSize=0.5821mm|CornerRadius=0.2911mm|HoleSize=0mm|Usage=FLASHONLY|Rotation=90.000|XOffset=0mm|YOffset=0mm|HoleType=Round|Shape=RoundedRectangle|*
%AMROUNDEDRECTD22*
21,1,2.0771,0.0000,0,0,90.0*
21,1,1.4949,0.5821,0,0,90.0*
1,1,0.5821,0.0000,0.7475*
1,1,0.5821,0.0000,-0.7475*
1,1,0.5821,0.0000,-0.7475*
1,1,0.5821,0.0000,0.7475*
%
%ADD22ROUNDEDRECTD22*%
%ADD23R,0.5821X2.0771*%
%ADD51C,1.0000*%
%ADD52R,2.0320X1.0160*%
%ADD53R,2.4000X2.4000*%
%ADD54C,2.4000*%
%ADD55C,5.5880*%
%ADD56O,2.6416X1.3208*%
%ADD57R,1.5500X1.5500*%
%ADD58C,1.5500*%
%ADD59C,1.1430*%
%ADD60R,1.1430X1.1430*%
%ADD61R,1.1080X1.1080*%
%ADD62C,1.1080*%
%ADD63C,1.3080*%
%ADD64R,1.3080X1.3080*%
%ADD65R,1.1900X1.1900*%
%ADD66C,1.1900*%
%ADD67R,1.3080X1.3080*%
%ADD68R,1.8000X1.8000*%
%ADD69C,1.8000*%
%ADD70R,1.8500X1.8500*%
%ADD71C,1.8500*%
%ADD72C,1.0300*%
%ADD73C,1.5200*%
G04:AMPARAMS|DCode=74|XSize=1.52mm|YSize=1.52mm|CornerRadius=0.38mm|HoleSize=0mm|Usage=FLASHONLY|Rotation=90.000|XOffset=0mm|YOffset=0mm|HoleType=Round|Shape=RoundedRectangle|*
%AMROUNDEDRECTD74*
21,1,1.5200,0.7600,0,0,90.0*
21,1,0.7600,1.5200,0,0,90.0*
1,1,0.7600,0.3800,0.3800*
1,1,0.7600,0.3800,-0.3800*
1,1,0.7600,-0.3800,-0.3800*
1,1,0.7600,-0.3800,0.3800*
%
%ADD74ROUNDEDRECTD74*%
G04:AMPARAMS|DCode=75|XSize=1.52mm|YSize=1.52mm|CornerRadius=0.38mm|HoleSize=0mm|Usage=FLASHONLY|Rotation=180.000|XOffset=0mm|YOffset=0mm|HoleType=Round|Shape=RoundedRectangle|*
%AMROUNDEDRECTD75*
21,1,1.5200,0.7600,0,0,180.0*
21,1,0.7600,1.5200,0,0,180.0*
1,1,0.7600,-0.3800,0.3800*
1,1,0.7600,0.3800,0.3800*
1,1,0.7600,0.3800,-0.3800*
1,1,0.7600,-0.3800,-0.3800*
%
%ADD75ROUNDEDRECTD75*%
%ADD76C,0.7500*%
G36*
X362395Y750992D02*
Y739080D01*
X360920D01*
Y732056D01*
X358920Y731792D01*
X358461Y733505D01*
X357266Y735575D01*
X355575Y737266D01*
X353505Y738461D01*
X351195Y739080D01*
X348805D01*
X346495Y738461D01*
X344425Y737266D01*
X342734Y735575D01*
X341539Y733505D01*
X340920Y731195D01*
Y728805D01*
X341539Y726495D01*
X342734Y724425D01*
X344425Y722734D01*
X346115Y721758D01*
Y701488D01*
X346411Y700001D01*
X347253Y698741D01*
X348741Y697253D01*
X350001Y696411D01*
X351488Y696115D01*
X452829D01*
X452844Y696095D01*
X453512Y694115D01*
X452074Y692677D01*
X450719Y690330D01*
X450018Y687713D01*
Y685004D01*
X450719Y682387D01*
X452074Y680040D01*
X453990Y678124D01*
X456336Y676770D01*
X458953Y676068D01*
X461663D01*
X464280Y676770D01*
X466626Y678124D01*
X468542Y680040D01*
X469897Y682387D01*
X470598Y685004D01*
Y687713D01*
X469897Y690330D01*
X468542Y692677D01*
X467103Y694115D01*
X467771Y696095D01*
X467787Y696115D01*
X607643D01*
X608067Y695429D01*
X608363Y694115D01*
X606766Y692518D01*
X605411Y690172D01*
X604710Y687555D01*
Y684845D01*
X605411Y682228D01*
X606766Y679882D01*
X608403Y678245D01*
X608179Y677108D01*
X607673Y676245D01*
X522360D01*
X520873Y675949D01*
X519613Y675107D01*
X518391Y673885D01*
X469349D01*
X467863Y673589D01*
X466603Y672747D01*
X464358Y670502D01*
X464280Y670547D01*
X461663Y671248D01*
X458953D01*
X456336Y670547D01*
X453990Y669193D01*
X452074Y667277D01*
X451697Y666625D01*
X449198Y666296D01*
X427747Y687747D01*
X426487Y688589D01*
X425000Y688885D01*
X125000D01*
X123513Y688589D01*
X122253Y687747D01*
X78391Y643885D01*
X74580D01*
Y649080D01*
X56420D01*
Y630920D01*
X63444D01*
X63707Y628920D01*
X61995Y628461D01*
X59925Y627266D01*
X58234Y625575D01*
X57039Y623505D01*
X56420Y621195D01*
Y618805D01*
X56925Y616919D01*
X42243Y602237D01*
X41401Y600977D01*
X41105Y599490D01*
Y551505D01*
X41401Y550018D01*
X42243Y548758D01*
X56166Y534835D01*
X57426Y533993D01*
X58913Y533697D01*
X100149D01*
Y526419D01*
X119851D01*
Y543581D01*
X100149D01*
Y541466D01*
X88791D01*
X88026Y543314D01*
X90747Y546035D01*
X137221D01*
X145149Y538107D01*
Y526439D01*
X164851D01*
Y543601D01*
X150643D01*
X144976Y549268D01*
X145741Y551115D01*
X182121D01*
X195149Y538087D01*
Y526419D01*
X214851D01*
Y543581D01*
X200643D01*
X186477Y557747D01*
X185217Y558589D01*
X183730Y558885D01*
X101992D01*
X101226Y560732D01*
X129115Y588622D01*
X131115Y587793D01*
Y585000D01*
X131411Y583513D01*
X132253Y582253D01*
X152253Y562253D01*
X153513Y561411D01*
X155000Y561115D01*
X228391D01*
X247253Y542253D01*
X248513Y541411D01*
X250000Y541115D01*
X264989D01*
X266437Y539668D01*
X268749Y538710D01*
X271251D01*
X273563Y539668D01*
X275332Y541437D01*
X276290Y543749D01*
Y546251D01*
X275332Y548563D01*
X273563Y550332D01*
X271251Y551290D01*
X268749D01*
X266437Y550332D01*
X264989Y548885D01*
X251609D01*
X232747Y567747D01*
X231487Y568589D01*
X230000Y568885D01*
X156609D01*
X138885Y586609D01*
Y590149D01*
X143581D01*
Y609851D01*
X138885D01*
Y634710D01*
X159355D01*
X159730Y634635D01*
X164851D01*
X193754Y605732D01*
X192989Y603885D01*
X163621D01*
Y609851D01*
X146459D01*
Y590149D01*
X163621D01*
Y596115D01*
X203371D01*
X211192Y588294D01*
X211399Y588156D01*
Y575149D01*
X228561D01*
Y594851D01*
X215623D01*
X207727Y602747D01*
X171166Y639308D01*
X171391Y640787D01*
X171729Y641573D01*
X172747Y642253D01*
X179204Y648710D01*
X181251D01*
X183563Y649668D01*
X185011Y651115D01*
X298391D01*
X322091Y627415D01*
X322013Y626734D01*
X321404Y625415D01*
X320240D01*
X318754Y625119D01*
X317494Y624277D01*
X288067Y594851D01*
X276399D01*
Y588885D01*
X248601D01*
Y594851D01*
X231439D01*
Y575149D01*
X248601D01*
Y581115D01*
X276399D01*
Y575149D01*
X293561D01*
Y588805D01*
X294439Y589489D01*
X296439Y588511D01*
Y575149D01*
X301135D01*
Y360529D01*
X297818Y357212D01*
X296123Y358345D01*
X296282Y358730D01*
X291270D01*
Y353718D01*
X291655Y353877D01*
X292788Y352182D01*
X244499Y303893D01*
X243018Y304290D01*
X240782D01*
X238623Y303711D01*
X238025Y303366D01*
X236025Y304521D01*
Y309831D01*
X239301Y313107D01*
X240782Y312710D01*
X243018D01*
X245177Y313289D01*
X247113Y314406D01*
X248694Y315987D01*
X249811Y317923D01*
X250390Y320082D01*
Y322318D01*
X249811Y324477D01*
X248694Y326413D01*
X247113Y327994D01*
X245177Y329111D01*
X243018Y329690D01*
X240782D01*
X238623Y329111D01*
X236687Y327994D01*
X235106Y326413D01*
X233989Y324477D01*
X233410Y322318D01*
Y320082D01*
X233807Y318601D01*
X229393Y314187D01*
X228551Y312927D01*
X228255Y311440D01*
Y266357D01*
X228551Y264871D01*
X229393Y263610D01*
X238050Y254953D01*
X238183Y254864D01*
X238303Y254334D01*
X238024Y252565D01*
X236687Y251794D01*
X235106Y250213D01*
X234339Y248885D01*
X225319D01*
X140902Y333302D01*
X141668Y335149D01*
X143750D01*
Y343730D01*
X136439D01*
Y341489D01*
X134439Y340511D01*
X133561Y341195D01*
Y354851D01*
X128865D01*
Y394710D01*
X142980D01*
Y405000D01*
Y415290D01*
X115710D01*
Y408885D01*
X62852D01*
X61365Y408589D01*
X60105Y407747D01*
X59972Y407614D01*
X58505Y408461D01*
X56195Y409080D01*
X53805D01*
X51495Y408461D01*
X49425Y407266D01*
X47734Y405575D01*
X46539Y403505D01*
X45920Y401195D01*
Y398805D01*
X46539Y396495D01*
X47734Y394425D01*
X49425Y392734D01*
X51495Y391539D01*
X53570Y390983D01*
X53631Y390491D01*
Y389509D01*
X53570Y389017D01*
X51495Y388461D01*
X49425Y387266D01*
X47734Y385575D01*
X46539Y383505D01*
X45920Y381195D01*
Y378805D01*
X46539Y376495D01*
X47734Y374425D01*
X49425Y372734D01*
X51495Y371539D01*
X53570Y370983D01*
X53631Y370490D01*
Y369510D01*
X53570Y369017D01*
X51495Y368461D01*
X49425Y367266D01*
X47734Y365575D01*
X46539Y363505D01*
X45920Y361195D01*
Y358805D01*
X46539Y356495D01*
X47734Y354425D01*
X49425Y352734D01*
X51495Y351539D01*
X53570Y350983D01*
X53631Y350490D01*
Y349510D01*
X53570Y349017D01*
X51495Y348461D01*
X49425Y347266D01*
X47734Y345575D01*
X46539Y343505D01*
X45920Y341195D01*
Y338805D01*
X46539Y336495D01*
X47734Y334425D01*
X49425Y332734D01*
X51495Y331539D01*
X53208Y331080D01*
X52944Y329080D01*
X45920D01*
Y327605D01*
X38150D01*
X32605Y333150D01*
Y661850D01*
X43150Y672395D01*
X85000D01*
X86968Y672654D01*
X88802Y673414D01*
X90378Y674622D01*
X105755Y690000D01*
X110000D01*
Y694245D01*
X168150Y752395D01*
X279027D01*
X279792Y750547D01*
X268325Y739080D01*
X260920D01*
Y732056D01*
X258920Y731792D01*
X258461Y733505D01*
X257266Y735575D01*
X255575Y737266D01*
X253505Y738461D01*
X251195Y739080D01*
X248805D01*
X246495Y738461D01*
X244425Y737266D01*
X242734Y735575D01*
X241539Y733505D01*
X240983Y731430D01*
X240490Y731369D01*
X239510D01*
X239017Y731430D01*
X238461Y733505D01*
X237266Y735575D01*
X235575Y737266D01*
X233505Y738461D01*
X231195Y739080D01*
X228805D01*
X226495Y738461D01*
X224425Y737266D01*
X222734Y735575D01*
X221539Y733505D01*
X220920Y731195D01*
Y728805D01*
X221539Y726495D01*
X222734Y724425D01*
X224425Y722734D01*
X226495Y721539D01*
X228805Y720920D01*
X231195D01*
X233505Y721539D01*
X235575Y722734D01*
X237266Y724425D01*
X238461Y726495D01*
X239017Y728570D01*
X239510Y728631D01*
X240490D01*
X240983Y728570D01*
X241539Y726495D01*
X242734Y724425D01*
X244425Y722734D01*
X246495Y721539D01*
X248805Y720920D01*
X251195D01*
X253505Y721539D01*
X255575Y722734D01*
X257266Y724425D01*
X258461Y726495D01*
X258920Y728207D01*
X260920Y727944D01*
Y720920D01*
X279080D01*
Y728325D01*
X303150Y752395D01*
X360992D01*
X362395Y750992D01*
D02*
G37*
G36*
X1390000Y700000D02*
X1490000D01*
Y110000D01*
X1428107D01*
X1427341Y111848D01*
X1462747Y147253D01*
X1463589Y148513D01*
X1463885Y150000D01*
Y168153D01*
X1466274Y168628D01*
X1468371Y170029D01*
X1469772Y172126D01*
X1470264Y174600D01*
Y182200D01*
X1469772Y184674D01*
X1468371Y186771D01*
X1466274Y188172D01*
X1463800Y188664D01*
X1456200D01*
X1453726Y188172D01*
X1451629Y186771D01*
X1450228Y184674D01*
X1449736Y182200D01*
Y174600D01*
X1450228Y172126D01*
X1451629Y170029D01*
X1453726Y168628D01*
X1456115Y168153D01*
Y151609D01*
X1414506Y110000D01*
X1390000D01*
Y85494D01*
X1378391Y73885D01*
X1255000D01*
X1253513Y73589D01*
X1252253Y72747D01*
X1237253Y57747D01*
X1236411Y56487D01*
X1236115Y55000D01*
Y51540D01*
X1228460D01*
Y28460D01*
X1251540D01*
Y51540D01*
X1244245D01*
X1244034Y53540D01*
X1256609Y66115D01*
X1380000D01*
X1381487Y66411D01*
X1382747Y67253D01*
X1388152Y72659D01*
X1390000Y71893D01*
Y12613D01*
X1388152Y11848D01*
X1380000Y20000D01*
X1328107D01*
X1327341Y21848D01*
X1335035Y29541D01*
X1335546Y29246D01*
X1338481Y28460D01*
X1341519D01*
X1344454Y29246D01*
X1347086Y30766D01*
X1349234Y32914D01*
X1350754Y35546D01*
X1351540Y38481D01*
Y41519D01*
X1350754Y44454D01*
X1349234Y47086D01*
X1347086Y49234D01*
X1344454Y50753D01*
X1341519Y51540D01*
X1338481D01*
X1335546Y50753D01*
X1332914Y49234D01*
X1330766Y47086D01*
X1329247Y44454D01*
X1328460Y41519D01*
Y38481D01*
X1329247Y35546D01*
X1329541Y35035D01*
X1314506Y20000D01*
X1205494D01*
X1182747Y42747D01*
X1181487Y43589D01*
X1180000Y43885D01*
X1080906D01*
X1080753Y44454D01*
X1079234Y47086D01*
X1077086Y49234D01*
X1074454Y50753D01*
X1071519Y51540D01*
X1068481D01*
X1065546Y50753D01*
X1062914Y49234D01*
X1060766Y47086D01*
X1059246Y44454D01*
X1058460Y41519D01*
Y38481D01*
X1059246Y35546D01*
X1060766Y32914D01*
X1062914Y30766D01*
X1065546Y29246D01*
X1066115Y29094D01*
Y20000D01*
X1048107D01*
X1047342Y21848D01*
X1052747Y27253D01*
X1053589Y28513D01*
X1053885Y30000D01*
Y58391D01*
X1081609Y86115D01*
X1346200D01*
X1347687Y86411D01*
X1348947Y87253D01*
X1456060Y194366D01*
X1456086Y194351D01*
X1458665Y193660D01*
X1461335D01*
X1463914Y194351D01*
X1466226Y195686D01*
X1468114Y197574D01*
X1469449Y199886D01*
X1470140Y202465D01*
Y205135D01*
X1469449Y207714D01*
X1468114Y210026D01*
X1466226Y211914D01*
X1463914Y213249D01*
X1461335Y213940D01*
X1458665D01*
X1456086Y213249D01*
X1453774Y211914D01*
X1451886Y210026D01*
X1450551Y207714D01*
X1449860Y205135D01*
Y202465D01*
X1450551Y199886D01*
X1450566Y199860D01*
X1344591Y93885D01*
X1080000D01*
X1078513Y93589D01*
X1077253Y92747D01*
X1047253Y62747D01*
X1046411Y61487D01*
X1046115Y60000D01*
Y31609D01*
X1038391Y23885D01*
X991609D01*
X981540Y33954D01*
Y51540D01*
X958460D01*
Y28460D01*
X976046D01*
X982658Y21848D01*
X981893Y20000D01*
X965494D01*
X962747Y22747D01*
X961487Y23589D01*
X960000Y23885D01*
X721609D01*
X711540Y33954D01*
Y51540D01*
X688460D01*
Y33954D01*
X685888Y31382D01*
X685046Y30122D01*
X684750Y28635D01*
Y25244D01*
X683391Y23885D01*
X451609D01*
X441540Y33954D01*
Y51540D01*
X418460D01*
Y33954D01*
X408391Y23885D01*
X181609D01*
X171540Y33954D01*
Y51540D01*
X148460D01*
Y28460D01*
X166046D01*
X172659Y21848D01*
X171893Y20000D01*
X120000D01*
Y120000D01*
X10000D01*
Y690000D01*
X79654D01*
X80723Y688000D01*
X80459Y687605D01*
X40000D01*
X38032Y687346D01*
X36957Y686901D01*
X36198Y686586D01*
X34622Y685378D01*
X19622Y670378D01*
X18414Y668802D01*
X17654Y666968D01*
X17395Y665000D01*
Y330000D01*
X17654Y328032D01*
X18414Y326198D01*
X19622Y324622D01*
X29622Y314622D01*
X31197Y313414D01*
X33032Y312654D01*
X35000Y312395D01*
X45920D01*
Y310920D01*
X64080D01*
Y322813D01*
X65928Y323578D01*
X86115Y303391D01*
Y286609D01*
X83391Y283885D01*
X56488D01*
X55001Y283589D01*
X53741Y282747D01*
X52253Y281259D01*
X51411Y279999D01*
X51115Y278512D01*
Y273601D01*
X45149D01*
Y256439D01*
X64851D01*
Y273601D01*
X58885D01*
Y276115D01*
X85000D01*
X86487Y276411D01*
X87747Y277253D01*
X92747Y282253D01*
X93589Y283513D01*
X93885Y285000D01*
Y305000D01*
X93589Y306487D01*
X92747Y307747D01*
X63575Y336919D01*
X64080Y338805D01*
Y341195D01*
X63567Y343111D01*
X64640Y344026D01*
X65222Y344284D01*
X96115Y313391D01*
Y273601D01*
X90149D01*
Y256439D01*
X109851D01*
Y273601D01*
X103885D01*
Y315000D01*
X103589Y316487D01*
X102747Y317747D01*
X63575Y356919D01*
X64080Y358805D01*
Y361195D01*
X63567Y363111D01*
X64640Y364026D01*
X65222Y364284D01*
X141115Y288391D01*
Y273601D01*
X135149D01*
Y256439D01*
X154851D01*
Y273601D01*
X148885D01*
Y290000D01*
X148589Y291487D01*
X147747Y292747D01*
X63575Y376919D01*
X64080Y378805D01*
Y381195D01*
X63461Y383505D01*
X62266Y385575D01*
X60575Y387266D01*
X58505Y388461D01*
X56430Y389017D01*
X56369Y389509D01*
Y390491D01*
X56430Y390983D01*
X58505Y391539D01*
X60575Y392734D01*
X62266Y394425D01*
X63461Y396495D01*
X64080Y398805D01*
Y400734D01*
X64461Y401115D01*
X115710D01*
Y394710D01*
X121095D01*
Y354851D01*
X116399D01*
Y335149D01*
X128067D01*
X220963Y242253D01*
X222223Y241411D01*
X223710Y241115D01*
X234339D01*
X235106Y239787D01*
X236687Y238206D01*
X238623Y237089D01*
X240782Y236510D01*
X243018D01*
X245177Y237089D01*
X245775Y237434D01*
X247775Y236279D01*
Y230969D01*
X244499Y227693D01*
X243018Y228090D01*
X240782D01*
X238623Y227511D01*
X236687Y226394D01*
X235106Y224813D01*
X233989Y222877D01*
X233410Y220718D01*
Y218482D01*
X233989Y216323D01*
X235106Y214387D01*
X236687Y212806D01*
X238623Y211689D01*
X240782Y211110D01*
X243018D01*
X245177Y211689D01*
X247113Y212806D01*
X248694Y214387D01*
X249811Y216323D01*
X250390Y218482D01*
Y220718D01*
X249993Y222199D01*
X254115Y226322D01*
X255276Y226082D01*
X256115Y225570D01*
Y213909D01*
X244499Y202293D01*
X243018Y202690D01*
X240782D01*
X238623Y202111D01*
X236687Y200994D01*
X235106Y199413D01*
X233989Y197477D01*
X233410Y195318D01*
Y193082D01*
X233989Y190923D01*
X235106Y188987D01*
X236687Y187406D01*
X238623Y186289D01*
X240782Y185710D01*
X243018D01*
X244499Y186107D01*
X256115Y174491D01*
Y50906D01*
X255546Y50753D01*
X252914Y49234D01*
X250766Y47086D01*
X249247Y44454D01*
X248460Y41519D01*
Y38481D01*
X249247Y35546D01*
X250766Y32914D01*
X252914Y30766D01*
X255546Y29246D01*
X258481Y28460D01*
X261519D01*
X264454Y29246D01*
X267086Y30766D01*
X269234Y32914D01*
X270754Y35546D01*
X270906Y36115D01*
X285000D01*
X286487Y36411D01*
X287747Y37253D01*
X316609Y66115D01*
X508391D01*
X523197Y51309D01*
X523044Y49309D01*
X522914Y49234D01*
X520766Y47086D01*
X519246Y44454D01*
X518460Y41519D01*
Y38481D01*
X519246Y35546D01*
X520766Y32914D01*
X522914Y30766D01*
X525546Y29246D01*
X528481Y28460D01*
X531519D01*
X534454Y29246D01*
X537086Y30766D01*
X539234Y32914D01*
X540754Y35546D01*
X541540Y38481D01*
Y41519D01*
X540754Y44454D01*
X539234Y47086D01*
X537086Y49234D01*
X534454Y50753D01*
X531519Y51540D01*
X531075D01*
Y52810D01*
X530779Y54297D01*
X529937Y55557D01*
X521226Y64268D01*
X521992Y66115D01*
X768391D01*
X789541Y44965D01*
X789247Y44454D01*
X788460Y41519D01*
Y38481D01*
X789247Y35546D01*
X790766Y32914D01*
X792914Y30766D01*
X795546Y29246D01*
X798481Y28460D01*
X801519D01*
X804454Y29246D01*
X807086Y30766D01*
X809234Y32914D01*
X810753Y35546D01*
X811540Y38481D01*
Y41519D01*
X810753Y44454D01*
X809234Y47086D01*
X807086Y49234D01*
X804454Y50753D01*
X801519Y51540D01*
X798481D01*
X795546Y50753D01*
X795035Y50459D01*
X772747Y72747D01*
X771487Y73589D01*
X770000Y73885D01*
X315000D01*
X313513Y73589D01*
X312253Y72747D01*
X283391Y43885D01*
X270906D01*
X270754Y44454D01*
X269234Y47086D01*
X267086Y49234D01*
X264454Y50753D01*
X263885Y50906D01*
Y176100D01*
X263589Y177587D01*
X262747Y178847D01*
X249993Y191601D01*
X250390Y193082D01*
Y195318D01*
X249993Y196799D01*
X254268Y201074D01*
X256115Y200308D01*
Y200000D01*
X256411Y198513D01*
X257253Y197253D01*
X283773Y170733D01*
X285033Y169891D01*
X286520Y169595D01*
X309610D01*
Y160310D01*
X326590D01*
Y171796D01*
X335893Y181099D01*
X423496D01*
X424983Y181395D01*
X426243Y182237D01*
X437747Y193741D01*
X438589Y195001D01*
X438885Y196488D01*
Y247101D01*
X506933Y315149D01*
X518601D01*
Y329395D01*
X518675Y329771D01*
Y348427D01*
X518885Y349479D01*
Y364989D01*
X520011Y366115D01*
X525000D01*
X525130Y366141D01*
X525960Y365460D01*
Y365460D01*
X531391D01*
Y275895D01*
X517853Y262358D01*
X516612Y262690D01*
X514588D01*
X512632Y262166D01*
X510878Y261154D01*
X509446Y259722D01*
X508434Y257968D01*
X507910Y256012D01*
Y253988D01*
X508434Y252032D01*
X509446Y250278D01*
X510878Y248846D01*
X512632Y247834D01*
X514588Y247310D01*
X516612D01*
X518568Y247834D01*
X520322Y248846D01*
X521754Y250278D01*
X522766Y252032D01*
X523290Y253988D01*
Y256012D01*
X522958Y257253D01*
X537552Y271848D01*
X538335Y273019D01*
X538609Y274400D01*
Y309496D01*
X540457Y310261D01*
X560791Y289928D01*
Y261796D01*
X559678Y261154D01*
X558246Y259722D01*
X557234Y257968D01*
X556710Y256012D01*
Y253988D01*
X557234Y252032D01*
X558246Y250278D01*
X559678Y248846D01*
X561432Y247834D01*
X563388Y247310D01*
X565412D01*
X567368Y247834D01*
X569122Y248846D01*
X570554Y250278D01*
X571566Y252032D01*
X572090Y253988D01*
Y256012D01*
X571566Y257968D01*
X570554Y259722D01*
X569122Y261154D01*
X568009Y261796D01*
Y291423D01*
X567735Y292804D01*
X566952Y293975D01*
X566812Y294115D01*
X567640Y296115D01*
X630000D01*
X631487Y296411D01*
X632747Y297253D01*
X637747Y302253D01*
X638589Y303513D01*
X638885Y305000D01*
Y344776D01*
X665224Y371115D01*
X728391D01*
X735243Y364264D01*
Y359269D01*
X735538Y357782D01*
X736380Y356522D01*
X739070Y353832D01*
X738305Y351985D01*
X710290D01*
Y359290D01*
X689710D01*
Y339210D01*
Y320710D01*
X696115D01*
Y315011D01*
X694668Y313563D01*
X693710Y311251D01*
Y308749D01*
X694668Y306437D01*
X696437Y304668D01*
X698749Y303710D01*
X701251D01*
X703563Y304668D01*
X705332Y306437D01*
X706290Y308749D01*
Y311251D01*
X705332Y313563D01*
X703885Y315011D01*
Y320710D01*
X710290D01*
Y326865D01*
X728549D01*
X729372Y324865D01*
X583391Y178885D01*
X510000D01*
X508513Y178589D01*
X507253Y177747D01*
X483391Y153885D01*
X430011D01*
X428563Y155332D01*
X426251Y156290D01*
X423749D01*
X421437Y155332D01*
X419668Y153563D01*
X418710Y151251D01*
Y148749D01*
X419668Y146437D01*
X421115Y144989D01*
Y110011D01*
X419668Y108563D01*
X418710Y106251D01*
Y103749D01*
X419668Y101437D01*
X421437Y99668D01*
X423749Y98710D01*
X426251D01*
X428563Y99668D01*
X430332Y101437D01*
X431290Y103749D01*
Y106251D01*
X430332Y108563D01*
X428885Y110011D01*
Y144989D01*
X430011Y146115D01*
X485000D01*
X486487Y146411D01*
X487747Y147253D01*
X511609Y171115D01*
X585000D01*
X586487Y171411D01*
X587747Y172253D01*
X734309Y318815D01*
X742008D01*
X742309Y318088D01*
X743774Y316178D01*
X745685Y314713D01*
X747909Y313791D01*
X750296Y313477D01*
X763504D01*
X765891Y313791D01*
X768115Y314713D01*
X770026Y316178D01*
X771491Y318088D01*
X771792Y318815D01*
X811768D01*
X813255Y319111D01*
X814515Y319953D01*
X815489Y320927D01*
X817587Y320313D01*
X818509Y318088D01*
X819974Y316178D01*
X821885Y314713D01*
X824109Y313791D01*
X826496Y313477D01*
X839704D01*
X842091Y313791D01*
X844315Y314713D01*
X846226Y316178D01*
X847691Y318088D01*
X848613Y320313D01*
X848927Y322700D01*
X848613Y325087D01*
X847691Y327311D01*
X846226Y329222D01*
X844315Y330687D01*
X842091Y331609D01*
X840627Y331801D01*
X840758Y333801D01*
X844018D01*
X845504Y334097D01*
X846764Y334939D01*
X856441Y344615D01*
X879710D01*
Y333885D01*
X872404D01*
X870917Y333589D01*
X869657Y332747D01*
X842818Y305908D01*
X842091Y306209D01*
X839704Y306523D01*
X826496D01*
X824109Y306209D01*
X821885Y305287D01*
X819974Y303822D01*
X818509Y301911D01*
X817587Y299687D01*
X817273Y297300D01*
X817587Y294913D01*
X818509Y292689D01*
X819974Y290778D01*
X821885Y289313D01*
X824109Y288391D01*
X826496Y288077D01*
X839704D01*
X842091Y288391D01*
X844315Y289313D01*
X846226Y290778D01*
X847691Y292689D01*
X848613Y294913D01*
X848927Y297300D01*
X848613Y299687D01*
X848312Y300414D01*
X874013Y326115D01*
X879710D01*
Y319960D01*
X900290D01*
Y338460D01*
Y358540D01*
X879710D01*
Y352385D01*
X854832D01*
X853345Y352089D01*
X852085Y351247D01*
X850711Y349873D01*
X848613Y350487D01*
X847691Y352711D01*
X846226Y354622D01*
X844315Y356087D01*
X842091Y357009D01*
X839704Y357323D01*
X836709D01*
Y376900D01*
X836435Y378281D01*
X835652Y379452D01*
X800562Y414543D01*
X801327Y416391D01*
X803828D01*
X805210Y416665D01*
X806381Y417448D01*
X806878Y417945D01*
X808954Y417692D01*
X809221Y417516D01*
X809668Y416437D01*
X811437Y414668D01*
X813749Y413710D01*
X816251D01*
X818563Y414668D01*
X820332Y416437D01*
X821290Y418749D01*
Y421251D01*
X820332Y423563D01*
X818885Y425011D01*
Y433694D01*
X820885Y434680D01*
X821885Y433913D01*
X824109Y432991D01*
X826496Y432677D01*
X839704D01*
X842091Y432991D01*
X844315Y433913D01*
X846226Y435378D01*
X847691Y437289D01*
X847992Y438015D01*
X851391D01*
X852878Y438311D01*
X854138Y439153D01*
X877710Y462725D01*
X879710Y461897D01*
Y444960D01*
X894546D01*
X906115Y433391D01*
Y288885D01*
X900290D01*
Y308540D01*
X879710D01*
Y302385D01*
X866304D01*
X864817Y302089D01*
X863557Y301247D01*
X842818Y280508D01*
X842091Y280809D01*
X839704Y281123D01*
X826496D01*
X824109Y280809D01*
X821885Y279887D01*
X819974Y278422D01*
X818509Y276511D01*
X817587Y274287D01*
X817273Y271900D01*
X817587Y269513D01*
X818509Y267288D01*
X819974Y265378D01*
X821885Y263913D01*
X824109Y262991D01*
X826496Y262677D01*
X839704D01*
X842091Y262991D01*
X844315Y263913D01*
X846226Y265378D01*
X847691Y267288D01*
X848613Y269513D01*
X848927Y271900D01*
X848613Y274287D01*
X848312Y275014D01*
X867913Y294615D01*
X879710D01*
Y288460D01*
Y269960D01*
X900290D01*
Y281115D01*
X908512D01*
X909999Y281411D01*
X911259Y282253D01*
X912747Y283741D01*
X913589Y285001D01*
X913885Y286488D01*
Y423008D01*
X915732Y423774D01*
X1002253Y337253D01*
X1003513Y336411D01*
X1005000Y336115D01*
X1014989D01*
X1016437Y334668D01*
X1018749Y333710D01*
X1021251D01*
X1023563Y334668D01*
X1025332Y336437D01*
X1026290Y338749D01*
Y341251D01*
X1025332Y343563D01*
X1023563Y345332D01*
X1021251Y346290D01*
X1018749D01*
X1016437Y345332D01*
X1014989Y343885D01*
X1006609D01*
X912747Y437747D01*
X901378Y449115D01*
X902207Y451115D01*
X903512D01*
X904999Y451411D01*
X906259Y452253D01*
X907747Y453741D01*
X908589Y455001D01*
X908885Y456488D01*
Y585000D01*
X908589Y586487D01*
X907747Y587747D01*
X900290Y595204D01*
Y608460D01*
Y628540D01*
X879710D01*
Y622385D01*
X870241D01*
X869476Y624232D01*
X885204Y639960D01*
X900290D01*
Y658460D01*
Y678540D01*
X879710D01*
Y672385D01*
X868500D01*
X867013Y672089D01*
X865818Y671290D01*
X864204D01*
X847747Y687747D01*
X846487Y688589D01*
X845000Y688885D01*
X800000D01*
X798513Y688589D01*
X797253Y687747D01*
X780026Y670519D01*
X779184Y669259D01*
X778888Y667773D01*
Y663578D01*
X766618Y651308D01*
X765891Y651609D01*
X763504Y651923D01*
X750296D01*
X747909Y651609D01*
X745685Y650687D01*
X743774Y649222D01*
X742309Y647311D01*
X742008Y646585D01*
X710290D01*
Y659210D01*
Y664215D01*
X742008D01*
X742309Y663489D01*
X743774Y661579D01*
X745685Y660113D01*
X747909Y659191D01*
X750296Y658877D01*
X763504D01*
X765891Y659191D01*
X768115Y660113D01*
X770026Y661579D01*
X771491Y663489D01*
X772413Y665713D01*
X772727Y668100D01*
X772413Y670487D01*
X771491Y672711D01*
X770026Y674622D01*
X768115Y676087D01*
X765891Y677009D01*
X763504Y677323D01*
X750296D01*
X747909Y677009D01*
X745685Y676087D01*
X743774Y674622D01*
X742309Y672711D01*
X742008Y671985D01*
X710290D01*
Y679290D01*
X689710D01*
Y673135D01*
X655030D01*
X653058Y675107D01*
X651797Y675949D01*
X650311Y676245D01*
X622326D01*
X621821Y677108D01*
X621597Y678245D01*
X623234Y679882D01*
X624589Y682228D01*
X625290Y684845D01*
Y687555D01*
X624589Y690172D01*
X623234Y692518D01*
X621637Y694115D01*
X621933Y695429D01*
X622357Y696115D01*
X640000D01*
X641487Y696411D01*
X642747Y697253D01*
X661609Y716115D01*
X918391D01*
X936115Y698391D01*
Y580160D01*
X919360D01*
Y559840D01*
X925635D01*
Y550480D01*
X925931Y548993D01*
X926773Y547733D01*
X941115Y533391D01*
Y503512D01*
Y495011D01*
X939668Y493563D01*
X938710Y491251D01*
Y488749D01*
X939668Y486437D01*
X941115Y484989D01*
Y460000D01*
Y430000D01*
X941411Y428513D01*
X942253Y427253D01*
X943513Y426411D01*
X945000Y426115D01*
X1000710D01*
Y419710D01*
X1021645D01*
Y385858D01*
X1021904Y383890D01*
X1022664Y382055D01*
X1023872Y380480D01*
X1027503Y376850D01*
Y370838D01*
X1027762Y368870D01*
X1028522Y367035D01*
X1029730Y365460D01*
X1035588Y359603D01*
X1037163Y358394D01*
X1037923Y358079D01*
X1038997Y357634D01*
X1040966Y357375D01*
X1050149D01*
Y356399D01*
X1069851D01*
Y357760D01*
X1099710D01*
Y355710D01*
X1120290D01*
Y367991D01*
X1122138Y368757D01*
X1131115Y359779D01*
Y310011D01*
X1129668Y308563D01*
X1128710Y306251D01*
Y303749D01*
X1129668Y301437D01*
X1131437Y299668D01*
X1133749Y298710D01*
X1136251D01*
X1138563Y299668D01*
X1140332Y301437D01*
X1141290Y303749D01*
Y306251D01*
X1140332Y308563D01*
X1138885Y310011D01*
Y361388D01*
X1138589Y362875D01*
X1137747Y364135D01*
X1121115Y380767D01*
X1120290Y381318D01*
Y394290D01*
X1116075D01*
X1115878Y396290D01*
X1116487Y396411D01*
X1117747Y397253D01*
X1124097Y403603D01*
X1124939Y404863D01*
X1125235Y406350D01*
Y417303D01*
X1127235Y417701D01*
X1127464Y417147D01*
X1128672Y415572D01*
X1129622Y414622D01*
X1131198Y413414D01*
X1133032Y412654D01*
X1135000Y412395D01*
X1136968Y412654D01*
X1138802Y413414D01*
X1140378Y414622D01*
X1141586Y416198D01*
X1142346Y418032D01*
X1142510Y419278D01*
X1142511Y419280D01*
X1144522Y419984D01*
X1156115Y408391D01*
Y392871D01*
X1150149D01*
Y375709D01*
X1169851D01*
Y392871D01*
X1163885D01*
Y410000D01*
X1163589Y411487D01*
X1162747Y412747D01*
X1150635Y424859D01*
Y429890D01*
X1150680Y429920D01*
X1151884Y431723D01*
X1152080Y432709D01*
X1154120D01*
X1154316Y431723D01*
X1155520Y429920D01*
X1155565Y429890D01*
Y426488D01*
X1155861Y425001D01*
X1156703Y423741D01*
X1158191Y422253D01*
X1159451Y421411D01*
X1160938Y421115D01*
X1181641D01*
X1205865Y396891D01*
Y393540D01*
X1199710D01*
Y373460D01*
Y354960D01*
X1206115D01*
Y335000D01*
Y310011D01*
X1204668Y308563D01*
X1203710Y306251D01*
Y303749D01*
X1204668Y301437D01*
X1206437Y299668D01*
X1208749Y298710D01*
X1211251D01*
X1213563Y299668D01*
X1215332Y301437D01*
X1216290Y303749D01*
Y306251D01*
X1215332Y308563D01*
X1213885Y310011D01*
Y331115D01*
X1230000D01*
X1231487Y331411D01*
X1232747Y332253D01*
X1237747Y337253D01*
X1238589Y338513D01*
X1238885Y340000D01*
Y395000D01*
X1238589Y396487D01*
X1237747Y397747D01*
X1228885Y406609D01*
Y500615D01*
X1321758D01*
X1322734Y498925D01*
X1324425Y497234D01*
X1326495Y496039D01*
X1328805Y495420D01*
X1331195D01*
X1333111Y495933D01*
X1334026Y494860D01*
X1334284Y494278D01*
X1278891Y438885D01*
X1245000D01*
X1243513Y438589D01*
X1242253Y437747D01*
X1237253Y432747D01*
X1236411Y431487D01*
X1236115Y430000D01*
Y411488D01*
X1236411Y410001D01*
X1237253Y408741D01*
X1238741Y407253D01*
X1240001Y406411D01*
X1241488Y406115D01*
X1290129D01*
X1291081Y406305D01*
X1340229D01*
X1340605Y406379D01*
X1354851D01*
Y423541D01*
X1341489D01*
X1340511Y425541D01*
X1341195Y426419D01*
X1354851D01*
Y431135D01*
X1375149D01*
Y426439D01*
X1394851D01*
Y443601D01*
X1375149D01*
Y438905D01*
X1354851D01*
Y443581D01*
X1335149D01*
Y431913D01*
X1332121Y428885D01*
X1266849D01*
X1266695Y429115D01*
X1267764Y431115D01*
X1280500D01*
X1281987Y431411D01*
X1283247Y432253D01*
X1346919Y495925D01*
X1348805Y495420D01*
X1351195D01*
X1353505Y496039D01*
X1355575Y497234D01*
X1357266Y498925D01*
X1358461Y500995D01*
X1358920Y502707D01*
X1360920Y502444D01*
Y495420D01*
X1373586D01*
X1423416Y445590D01*
X1423422Y443416D01*
X1398871Y418865D01*
X1394851D01*
Y423561D01*
X1375149D01*
Y406399D01*
X1394851D01*
Y411095D01*
X1400480D01*
X1401967Y411391D01*
X1403227Y412233D01*
X1429704Y438710D01*
X1431251D01*
X1433563Y439668D01*
X1435332Y441437D01*
X1436290Y443749D01*
Y446251D01*
X1435332Y448563D01*
X1433563Y450332D01*
X1431251Y451290D01*
X1428749D01*
X1428717Y451277D01*
X1379080Y500914D01*
Y513580D01*
X1360920D01*
Y506556D01*
X1358920Y506292D01*
X1358461Y508005D01*
X1357266Y510075D01*
X1355575Y511766D01*
X1353505Y512961D01*
X1351195Y513580D01*
X1348805D01*
X1346495Y512961D01*
X1344425Y511766D01*
X1342734Y510075D01*
X1341539Y508005D01*
X1340983Y505930D01*
X1340490Y505869D01*
X1339510D01*
X1339017Y505930D01*
X1338461Y508005D01*
X1337266Y510075D01*
X1335575Y511766D01*
X1333885Y512742D01*
Y580000D01*
X1333589Y581487D01*
X1332747Y582747D01*
X1302747Y612747D01*
X1301487Y613589D01*
X1300000Y613885D01*
X1145011D01*
X1143563Y615332D01*
X1141251Y616290D01*
X1138749D01*
X1136437Y615332D01*
X1134668Y613563D01*
X1133710Y611251D01*
Y608749D01*
X1134668Y606437D01*
X1136437Y604668D01*
X1138749Y603710D01*
X1141251D01*
X1143563Y604668D01*
X1145011Y606115D01*
X1298391D01*
X1326115Y578391D01*
Y512742D01*
X1324425Y511766D01*
X1322734Y510075D01*
X1321758Y508385D01*
X1167109D01*
X1166290Y509204D01*
Y511251D01*
X1165332Y513563D01*
X1163563Y515332D01*
X1161251Y516290D01*
X1158749D01*
X1156437Y515332D01*
X1154668Y513563D01*
X1153710Y511251D01*
Y508749D01*
X1154668Y506437D01*
X1155565Y505539D01*
Y500110D01*
X1155520Y500080D01*
X1154316Y498277D01*
X1154120Y497291D01*
X1152080D01*
X1151884Y498277D01*
X1150680Y500080D01*
X1150635Y500110D01*
Y523891D01*
X1161893Y535149D01*
X1173561D01*
Y554851D01*
X1156399D01*
Y540643D01*
X1144003Y528247D01*
X1143161Y526987D01*
X1142865Y525500D01*
Y512674D01*
X1140865Y512276D01*
X1140332Y513563D01*
X1138563Y515332D01*
X1136251Y516290D01*
X1133749D01*
X1131437Y515332D01*
X1130905Y514800D01*
X1128905Y515629D01*
Y535149D01*
X1133601D01*
Y554851D01*
X1116439D01*
Y535149D01*
X1121135D01*
Y502317D01*
X1120321Y501503D01*
X1119223Y501284D01*
X1118255Y500638D01*
X1116255Y501662D01*
Y510766D01*
X1116586Y511198D01*
X1117346Y513032D01*
X1117605Y515000D01*
X1117346Y516968D01*
X1116586Y518802D01*
X1115378Y520378D01*
X1112585Y523170D01*
Y535149D01*
X1113561D01*
Y554851D01*
X1096399D01*
Y535149D01*
X1097375D01*
Y520020D01*
X1097634Y518052D01*
X1098394Y516217D01*
X1099603Y514642D01*
X1101045Y513200D01*
Y501662D01*
X1099045Y500638D01*
X1098077Y501284D01*
X1095950Y501707D01*
X1095897Y501697D01*
X1088885Y508709D01*
Y578391D01*
X1108547Y598053D01*
X1109389Y599313D01*
X1109685Y600800D01*
Y680988D01*
X1111412Y681451D01*
X1114728Y683365D01*
X1117435Y686072D01*
X1119349Y689388D01*
X1120340Y693086D01*
Y696914D01*
X1119349Y700612D01*
X1117435Y703928D01*
X1114728Y706635D01*
X1111412Y708549D01*
X1107714Y709540D01*
X1103886D01*
X1100188Y708549D01*
X1096872Y706635D01*
X1094165Y703928D01*
X1092251Y700612D01*
X1091260Y696914D01*
Y693086D01*
X1092251Y689388D01*
X1094165Y686072D01*
X1096872Y683365D01*
X1100188Y681451D01*
X1101915Y680988D01*
Y602409D01*
X1082253Y582747D01*
X1081411Y581487D01*
X1081115Y580000D01*
Y507100D01*
X1081411Y505613D01*
X1082253Y504353D01*
X1082956Y503650D01*
X1082266Y501512D01*
X1081123Y501284D01*
X1079320Y500080D01*
X1078116Y498277D01*
X1077920Y497291D01*
X1075880D01*
X1075684Y498277D01*
X1074480Y500080D01*
X1074435Y500110D01*
Y679450D01*
X1074139Y680937D01*
X1073297Y682197D01*
X1069540Y685954D01*
Y709540D01*
X1040460D01*
Y680460D01*
X1064046D01*
X1066665Y677841D01*
Y500110D01*
X1066620Y500080D01*
X1065416Y498277D01*
X1064993Y496150D01*
Y495693D01*
X1064817Y495556D01*
X1062993Y494960D01*
X1050206Y507747D01*
X1048946Y508589D01*
X1047459Y508885D01*
X948885D01*
Y535000D01*
X948589Y536487D01*
X947747Y537747D01*
X933405Y552089D01*
Y559840D01*
X939680D01*
Y562328D01*
X949840D01*
Y559840D01*
X970160D01*
Y566115D01*
X1010000D01*
X1011487Y566411D01*
X1012747Y567253D01*
X1039204Y593710D01*
X1041251D01*
X1043563Y594668D01*
X1045332Y596437D01*
X1046290Y598749D01*
Y601251D01*
X1045332Y603563D01*
X1043563Y605332D01*
X1041251Y606290D01*
X1038749D01*
X1036437Y605332D01*
X1034668Y603563D01*
X1033710Y601251D01*
Y599204D01*
X1008391Y573885D01*
X970160D01*
Y580160D01*
X949840D01*
Y577668D01*
X943885D01*
Y700000D01*
X943589Y701487D01*
X942747Y702747D01*
X922747Y722747D01*
X921487Y723589D01*
X920000Y723885D01*
X660000D01*
X658513Y723589D01*
X657253Y722747D01*
X638391Y703885D01*
X625290D01*
Y721890D01*
X604710D01*
Y703885D01*
X470598D01*
Y722048D01*
X450018D01*
Y703885D01*
X353885D01*
Y721758D01*
X355575Y722734D01*
X357266Y724425D01*
X358461Y726495D01*
X358920Y728207D01*
X360920Y727944D01*
Y720920D01*
X379080D01*
Y722395D01*
X405000D01*
X406968Y722654D01*
X408802Y723414D01*
X410378Y724622D01*
X455378Y769622D01*
X456586Y771198D01*
X457346Y773032D01*
X457605Y775000D01*
X457346Y776968D01*
X456586Y778802D01*
X455378Y780378D01*
X453802Y781586D01*
X451968Y782346D01*
X450000Y782605D01*
X448032Y782346D01*
X446198Y781586D01*
X444622Y780378D01*
X401850Y737605D01*
X379080D01*
Y739080D01*
X377605D01*
Y754142D01*
X377346Y756111D01*
X376901Y757185D01*
X376586Y757945D01*
X375378Y759520D01*
X369520Y765378D01*
X367945Y766586D01*
X366110Y767346D01*
X364142Y767605D01*
X165000D01*
X163032Y767346D01*
X161197Y766586D01*
X159622Y765378D01*
X111848Y717603D01*
X110000Y718368D01*
Y790000D01*
X1390000D01*
Y700000D01*
D02*
G37*
G36*
X858710Y665796D02*
Y663749D01*
X859668Y661437D01*
X861437Y659668D01*
X863749Y658710D01*
X866251D01*
X868563Y659668D01*
X870332Y661437D01*
X871290Y663749D01*
Y664615D01*
X879710D01*
Y658460D01*
Y645454D01*
X855441Y621185D01*
X847992D01*
X847691Y621912D01*
X846226Y623822D01*
X844315Y625287D01*
X842091Y626209D01*
X839704Y626523D01*
X826496D01*
X824109Y626209D01*
X821885Y625287D01*
X819974Y623822D01*
X818509Y621912D01*
X817587Y619687D01*
X817273Y617300D01*
X817587Y614913D01*
X818509Y612689D01*
X819974Y610779D01*
X821885Y609313D01*
X824109Y608391D01*
X826496Y608077D01*
X839704D01*
X842091Y608391D01*
X844315Y609313D01*
X846226Y610779D01*
X847691Y612689D01*
X847992Y613415D01*
X853112D01*
X853878Y611568D01*
X842818Y600508D01*
X842091Y600809D01*
X839704Y601123D01*
X826496D01*
X824109Y600809D01*
X821885Y599887D01*
X819974Y598422D01*
X818509Y596511D01*
X817587Y594287D01*
X817273Y591900D01*
X817587Y589513D01*
X818509Y587289D01*
X819974Y585378D01*
X821885Y583913D01*
X824109Y582991D01*
X826496Y582677D01*
X839704D01*
X842091Y582991D01*
X844315Y583913D01*
X846226Y585378D01*
X847691Y587289D01*
X848613Y589513D01*
X848927Y591900D01*
X848613Y594287D01*
X848312Y595014D01*
X867913Y614615D01*
X879710D01*
Y608460D01*
Y589960D01*
X894546D01*
X901115Y583391D01*
Y535948D01*
X900290Y534290D01*
X893885D01*
Y554989D01*
X895332Y556437D01*
X896290Y558749D01*
Y561251D01*
X895332Y563563D01*
X893563Y565332D01*
X891251Y566290D01*
X888749D01*
X886437Y565332D01*
X884668Y563563D01*
X883710Y561251D01*
Y558749D01*
X884668Y556437D01*
X886115Y554989D01*
Y534290D01*
X879710D01*
Y514210D01*
Y501204D01*
X849840Y471334D01*
X847842Y471549D01*
X847691Y471912D01*
X846226Y473822D01*
X844315Y475287D01*
X842091Y476209D01*
X839704Y476523D01*
X829313D01*
X828485Y478523D01*
X829501Y479539D01*
X830343Y480799D01*
X830639Y482286D01*
Y483477D01*
X839704D01*
X842091Y483791D01*
X844315Y484713D01*
X846226Y486178D01*
X847691Y488089D01*
X848613Y490313D01*
X848927Y492700D01*
X848613Y495087D01*
X847691Y497312D01*
X846226Y499222D01*
X844315Y500687D01*
X842091Y501609D01*
X839704Y501923D01*
X826496D01*
X824109Y501609D01*
X821885Y500687D01*
X819974Y499222D01*
X818509Y497312D01*
X817587Y495087D01*
X817273Y492700D01*
X817587Y490313D01*
X818509Y488089D01*
X819974Y486178D01*
X821304Y485158D01*
X821704Y483264D01*
X821629Y482654D01*
X812253Y473279D01*
X811411Y472018D01*
X811115Y470532D01*
Y426460D01*
X810609Y426122D01*
X808609Y427191D01*
Y503505D01*
X817119Y512015D01*
X819773Y511841D01*
X819974Y511578D01*
X821885Y510113D01*
X824109Y509191D01*
X826496Y508877D01*
X839704D01*
X842091Y509191D01*
X844315Y510113D01*
X846226Y511578D01*
X847691Y513489D01*
X848613Y515713D01*
X848927Y518100D01*
X848613Y520487D01*
X847691Y522711D01*
X846226Y524622D01*
X844315Y526087D01*
X842091Y527009D01*
X839704Y527323D01*
X826496D01*
X824109Y527009D01*
X821885Y526087D01*
X819974Y524622D01*
X818509Y522711D01*
X817593Y520501D01*
X816892D01*
X815511Y520227D01*
X814340Y519444D01*
X802448Y507552D01*
X801665Y506381D01*
X801391Y505000D01*
Y424798D01*
X800461Y424308D01*
X799807Y424244D01*
X798545Y425846D01*
X798609Y426172D01*
Y648505D01*
X814595Y664491D01*
X818094D01*
X818509Y663489D01*
X819974Y661579D01*
X821885Y660113D01*
X824109Y659191D01*
X826496Y658877D01*
X839704D01*
X842091Y659191D01*
X844315Y660113D01*
X846226Y661579D01*
X847691Y663489D01*
X848613Y665713D01*
X848927Y668100D01*
X848613Y670487D01*
X847691Y672711D01*
X846226Y674622D01*
X844315Y676087D01*
X842091Y677009D01*
X839704Y677323D01*
X826496D01*
X824109Y677009D01*
X821885Y676087D01*
X819974Y674622D01*
X818509Y672711D01*
X818094Y671709D01*
X813100D01*
X811719Y671435D01*
X810548Y670652D01*
X792448Y652552D01*
X791665Y651381D01*
X791391Y650000D01*
Y428609D01*
X676495D01*
X663489Y441615D01*
X664317Y443615D01*
X680891D01*
X692253Y432253D01*
X693513Y431411D01*
X695000Y431115D01*
X742468D01*
X743955Y431411D01*
X745215Y432253D01*
X746526Y433564D01*
X747909Y432991D01*
X750296Y432677D01*
X763504D01*
X765891Y432991D01*
X768115Y433913D01*
X770026Y435378D01*
X771491Y437289D01*
X771792Y438015D01*
X776900D01*
X778387Y438311D01*
X779647Y439153D01*
X787747Y447253D01*
X788589Y448513D01*
X788885Y450000D01*
Y565000D01*
X788589Y566487D01*
X787747Y567747D01*
X782747Y572747D01*
X781487Y573589D01*
X780000Y573885D01*
X766609D01*
X760785Y579709D01*
Y582677D01*
X763504D01*
X765891Y582991D01*
X768115Y583913D01*
X770026Y585378D01*
X771491Y587289D01*
X772413Y589513D01*
X772727Y591900D01*
X772413Y594287D01*
X771491Y596511D01*
X770026Y598422D01*
X768115Y599887D01*
X765891Y600809D01*
X763504Y601123D01*
X750296D01*
X747909Y600809D01*
X745685Y599887D01*
X743774Y598422D01*
X742309Y596511D01*
X741387Y594287D01*
X741073Y591900D01*
X741387Y589513D01*
X742309Y587289D01*
X743774Y585378D01*
X745685Y583913D01*
X747909Y582991D01*
X750296Y582677D01*
X753015D01*
Y578100D01*
X753311Y576613D01*
X754153Y575353D01*
X762253Y567253D01*
X763513Y566411D01*
X765000Y566115D01*
X778391D01*
X781115Y563391D01*
Y451609D01*
X775291Y445785D01*
X771792D01*
X771491Y446511D01*
X770026Y448422D01*
X768115Y449887D01*
X765891Y450809D01*
X763504Y451123D01*
X750296D01*
X747909Y450809D01*
X745685Y449887D01*
X743774Y448422D01*
X742309Y446511D01*
X741387Y444287D01*
X741073Y441900D01*
X741227Y440732D01*
X739649Y438922D01*
X739540Y438885D01*
X696609D01*
X685247Y450247D01*
X683987Y451089D01*
X682500Y451385D01*
X644109D01*
X634078Y461415D01*
X634907Y463415D01*
X742008D01*
X742309Y462689D01*
X743774Y460778D01*
X745685Y459313D01*
X747909Y458391D01*
X750296Y458077D01*
X763504D01*
X765891Y458391D01*
X768115Y459313D01*
X770026Y460778D01*
X771491Y462689D01*
X772413Y464913D01*
X772727Y467300D01*
X772413Y469687D01*
X771491Y471912D01*
X770026Y473822D01*
X768115Y475287D01*
X765891Y476209D01*
X763504Y476523D01*
X750296D01*
X747909Y476209D01*
X745685Y475287D01*
X743774Y473822D01*
X742309Y471912D01*
X742008Y471185D01*
X619309D01*
X583885Y506609D01*
Y528391D01*
X585409Y529915D01*
X605388D01*
X605411Y529828D01*
X606766Y527482D01*
X608682Y525566D01*
X611028Y524211D01*
X613645Y523510D01*
X616355D01*
X618972Y524211D01*
X621318Y525566D01*
X623234Y527482D01*
X624589Y529828D01*
X625290Y532445D01*
Y535155D01*
X624589Y537772D01*
X623234Y540118D01*
X621318Y542034D01*
X618972Y543389D01*
X616355Y544090D01*
X613645D01*
X611028Y543389D01*
X608682Y542034D01*
X606766Y540118D01*
X605411Y537772D01*
X605388Y537685D01*
X583800D01*
X582313Y537389D01*
X581053Y536547D01*
X577253Y532747D01*
X576411Y531487D01*
X576115Y530000D01*
Y505000D01*
X576411Y503513D01*
X577253Y502253D01*
X594904Y484602D01*
X594246Y482432D01*
X593647Y482313D01*
X469851Y606109D01*
X469897Y606187D01*
X470598Y608804D01*
Y611513D01*
X469897Y614130D01*
X468542Y616477D01*
X466626Y618392D01*
X464280Y619747D01*
X461663Y620448D01*
X458953D01*
X456336Y619747D01*
X453990Y618392D01*
X452074Y616477D01*
X450719Y614130D01*
X450018Y611513D01*
Y608804D01*
X450719Y606187D01*
X452074Y603840D01*
X453990Y601925D01*
X456336Y600570D01*
X458953Y599869D01*
X461663D01*
X464280Y600570D01*
X464358Y600615D01*
X588713Y476259D01*
X588710Y476251D01*
Y473749D01*
X589668Y471437D01*
X591437Y469668D01*
X593749Y468710D01*
X596251D01*
X598563Y469668D01*
X600332Y471437D01*
X601290Y473749D01*
Y475388D01*
X603290Y476216D01*
X613622Y465885D01*
X612793Y463885D01*
X510476D01*
X469851Y504509D01*
X469897Y504587D01*
X470598Y507204D01*
Y509913D01*
X469897Y512530D01*
X468542Y514877D01*
X466626Y516792D01*
X464280Y518147D01*
X461663Y518848D01*
X458953D01*
X456336Y518147D01*
X453990Y516792D01*
X452074Y514877D01*
X450719Y512530D01*
X450018Y509913D01*
Y507204D01*
X450719Y504587D01*
X452074Y502240D01*
X453990Y500325D01*
X456336Y498970D01*
X458953Y498269D01*
X461663D01*
X464280Y498970D01*
X464358Y499015D01*
X506119Y457253D01*
X507380Y456411D01*
X508866Y456115D01*
X528398D01*
X529163Y454268D01*
X527448Y452552D01*
X526665Y451381D01*
X526391Y450000D01*
Y428540D01*
X525960D01*
Y409460D01*
X536391D01*
Y405384D01*
X520641Y389635D01*
X510290D01*
Y394210D01*
Y414290D01*
X503885D01*
Y418512D01*
X503589Y419999D01*
X502747Y421259D01*
X501259Y422747D01*
X499999Y423589D01*
X498512Y423885D01*
X485000D01*
X483513Y423589D01*
X482253Y422747D01*
X468154Y408648D01*
X467312Y407388D01*
X467016Y405901D01*
Y385701D01*
X465169Y384936D01*
X463609Y386495D01*
Y473828D01*
X463335Y475210D01*
X462552Y476381D01*
X461381Y477552D01*
X460210Y478335D01*
X458828Y478609D01*
X446495D01*
X433609Y491495D01*
Y603756D01*
X456011Y626157D01*
X456336Y625970D01*
X458953Y625269D01*
X461663D01*
X464280Y625970D01*
X466626Y627324D01*
X468542Y629240D01*
X469897Y631587D01*
X470598Y634204D01*
Y636913D01*
X469897Y639530D01*
X468542Y641877D01*
X466626Y643792D01*
X464280Y645147D01*
X461663Y645848D01*
X458953D01*
X456336Y645147D01*
X453990Y643792D01*
X452074Y641877D01*
X450719Y639530D01*
X450018Y636913D01*
Y634204D01*
X450719Y631587D01*
X450907Y631262D01*
X427448Y607803D01*
X426665Y606632D01*
X426391Y605251D01*
Y490000D01*
X426665Y488619D01*
X427448Y487448D01*
X442448Y472448D01*
X443619Y471665D01*
X445000Y471391D01*
X456391D01*
Y385000D01*
X456665Y383619D01*
X457448Y382448D01*
X482448Y357448D01*
X483619Y356665D01*
X485000Y356391D01*
X499714D01*
X501391Y354714D01*
Y342785D01*
X493456Y334851D01*
X481399D01*
Y315149D01*
X493332D01*
X494098Y313302D01*
X432253Y251457D01*
X431411Y250197D01*
X431115Y248710D01*
Y198097D01*
X421887Y188869D01*
X334284D01*
X332797Y188573D01*
X331537Y187731D01*
X321096Y177290D01*
X313795D01*
X313420Y177365D01*
X288129D01*
X263885Y201609D01*
Y212300D01*
Y240294D01*
X265805Y241406D01*
X265885Y241397D01*
X267300Y241115D01*
X310539D01*
X311306Y239787D01*
X312887Y238206D01*
X314224Y237435D01*
X314503Y235666D01*
X314384Y235136D01*
X314250Y235047D01*
X305593Y226390D01*
X304751Y225129D01*
X304455Y223643D01*
Y203960D01*
X304751Y202473D01*
X305593Y201213D01*
X310007Y196799D01*
X309610Y195318D01*
Y193082D01*
X310189Y190923D01*
X311306Y188987D01*
X312887Y187406D01*
X314823Y186289D01*
X316982Y185710D01*
X319218D01*
X321377Y186289D01*
X323313Y187406D01*
X324894Y188987D01*
X326011Y190923D01*
X326590Y193082D01*
Y195318D01*
X326011Y197477D01*
X324894Y199413D01*
X323313Y200994D01*
X321377Y202111D01*
X319218Y202690D01*
X316982D01*
X315501Y202293D01*
X312225Y205569D01*
Y210879D01*
X314225Y212034D01*
X314823Y211689D01*
X316982Y211110D01*
X319218D01*
X321377Y211689D01*
X323313Y212806D01*
X324894Y214387D01*
X326011Y216323D01*
X326590Y218482D01*
Y220718D01*
X326011Y222877D01*
X324894Y224813D01*
X323313Y226394D01*
X321976Y227166D01*
X321697Y228934D01*
X321816Y229464D01*
X321950Y229553D01*
X330607Y238210D01*
X331449Y239471D01*
X331745Y240957D01*
Y249043D01*
X331449Y250529D01*
X330607Y251790D01*
X321950Y260447D01*
X321816Y260536D01*
X321697Y261066D01*
X321976Y262834D01*
X323313Y263606D01*
X324894Y265187D01*
X326011Y267123D01*
X326590Y269282D01*
Y271518D01*
X326193Y272999D01*
X357172Y303978D01*
X358014Y305238D01*
X358310Y306725D01*
Y379126D01*
X383302Y404118D01*
X385149Y403352D01*
Y391419D01*
X391115D01*
Y232087D01*
X390039Y231466D01*
X388534Y229961D01*
X387471Y228119D01*
X386920Y226064D01*
Y223936D01*
X387471Y221881D01*
X388534Y220039D01*
X390039Y218534D01*
X391881Y217471D01*
X393936Y216920D01*
X396064D01*
X398119Y217471D01*
X399961Y218534D01*
X401466Y220039D01*
X402529Y221881D01*
X403080Y223936D01*
Y226064D01*
X402529Y228119D01*
X401466Y229961D01*
X399961Y231466D01*
X398885Y232087D01*
Y391419D01*
X404851D01*
Y408581D01*
X391489D01*
X390511Y410581D01*
X391195Y411459D01*
X404851D01*
Y428621D01*
X385149D01*
Y416953D01*
X351678Y383482D01*
X350836Y382222D01*
X350541Y380735D01*
Y308334D01*
X320699Y278493D01*
X319218Y278890D01*
X316982D01*
X314823Y278311D01*
X314225Y277966D01*
X312225Y279121D01*
Y284431D01*
X315501Y287707D01*
X316982Y287310D01*
X319218D01*
X321377Y287889D01*
X323313Y289006D01*
X324894Y290587D01*
X326011Y292523D01*
X326590Y294682D01*
Y296918D01*
X326011Y299077D01*
X324894Y301013D01*
X323313Y302594D01*
X321377Y303711D01*
X319218Y304290D01*
X316982D01*
X314823Y303711D01*
X312887Y302594D01*
X311306Y301013D01*
X310189Y299077D01*
X309610Y296918D01*
Y294682D01*
X310007Y293201D01*
X305593Y288787D01*
X304751Y287527D01*
X304455Y286040D01*
Y266357D01*
X304751Y264871D01*
X305593Y263610D01*
X314250Y254953D01*
X314384Y254864D01*
X314503Y254334D01*
X314224Y252565D01*
X312887Y251794D01*
X311306Y250213D01*
X310539Y248885D01*
X268909D01*
X262747Y255047D01*
X249993Y267801D01*
X250390Y269282D01*
Y271518D01*
X249811Y273677D01*
X248694Y275613D01*
X247113Y277194D01*
X245177Y278311D01*
X243018Y278890D01*
X240782D01*
X238623Y278311D01*
X238025Y277966D01*
X236025Y279121D01*
Y287079D01*
X238025Y288234D01*
X238623Y287889D01*
X240782Y287310D01*
X243018D01*
X245177Y287889D01*
X247113Y289006D01*
X248694Y290587D01*
X249811Y292523D01*
X250390Y294682D01*
Y296918D01*
X249993Y298399D01*
X307767Y356173D01*
X308609Y357433D01*
X308905Y358920D01*
Y575149D01*
X313601D01*
Y594851D01*
X301668D01*
X300902Y596698D01*
X321850Y617646D01*
X346796D01*
X347193Y615646D01*
X346437Y615332D01*
X344668Y613563D01*
X343718Y611270D01*
X356282D01*
X355332Y613563D01*
X353563Y615332D01*
X352807Y615646D01*
X353205Y617646D01*
X356530D01*
X358017Y617941D01*
X359277Y618783D01*
X388704Y648210D01*
X406790D01*
Y671790D01*
X383210D01*
Y662487D01*
X381210Y662224D01*
X380587Y664551D01*
X379034Y667239D01*
X376839Y669434D01*
X374151Y670986D01*
X371152Y671790D01*
X368048D01*
X365049Y670986D01*
X362361Y669434D01*
X360166Y667239D01*
X358614Y664551D01*
X357896Y661873D01*
X355904D01*
X355187Y664551D01*
X353634Y667239D01*
X351439Y669434D01*
X348751Y670986D01*
X345752Y671790D01*
X345470D01*
Y660000D01*
Y648210D01*
X345752D01*
X348751Y649014D01*
X351439Y650566D01*
X353634Y652761D01*
X355187Y655449D01*
X355904Y658127D01*
X357896D01*
X358614Y655449D01*
X360166Y652761D01*
X362361Y650566D01*
X362668Y650388D01*
X362836Y648330D01*
X348391Y633885D01*
X326609D01*
X302747Y657747D01*
X301487Y658589D01*
X300000Y658885D01*
X185011D01*
X183563Y660332D01*
X181251Y661290D01*
X178749D01*
X176437Y660332D01*
X174668Y658563D01*
X173710Y656251D01*
Y654204D01*
X168391Y648885D01*
X163540D01*
Y655290D01*
X124960D01*
Y634710D01*
X131115D01*
Y609851D01*
X126419D01*
Y596844D01*
X126213Y596706D01*
X93471Y563965D01*
X76267D01*
X75865Y563885D01*
X73742D01*
X72766Y565575D01*
X71075Y567266D01*
X69005Y568461D01*
X66930Y569017D01*
X66869Y569509D01*
Y570491D01*
X66930Y570983D01*
X69005Y571539D01*
X71075Y572734D01*
X72766Y574425D01*
X73961Y576495D01*
X74580Y578805D01*
Y581195D01*
X73961Y583505D01*
X72766Y585575D01*
X71075Y587266D01*
X69005Y588461D01*
X66930Y589017D01*
X66869Y589510D01*
Y590490D01*
X66930Y590983D01*
X69005Y591539D01*
X71075Y592734D01*
X72766Y594425D01*
X73961Y596495D01*
X74580Y598805D01*
Y601195D01*
X73961Y603505D01*
X72766Y605575D01*
X71075Y607266D01*
X69005Y608461D01*
X66930Y609017D01*
X66869Y609510D01*
Y610490D01*
X66930Y610983D01*
X69005Y611539D01*
X71075Y612734D01*
X72766Y614425D01*
X73961Y616495D01*
X74580Y618805D01*
Y621195D01*
X73961Y623505D01*
X72766Y625575D01*
X71075Y627266D01*
X69005Y628461D01*
X67292Y628920D01*
X67556Y630920D01*
X74580D01*
Y636115D01*
X80000D01*
X81487Y636411D01*
X82747Y637253D01*
X126609Y681115D01*
X423391D01*
X446001Y658505D01*
X447261Y657663D01*
X448748Y657367D01*
X450617D01*
X450719Y656987D01*
X452074Y654640D01*
X453990Y652725D01*
X456336Y651370D01*
X458953Y650668D01*
X461663D01*
X464280Y651370D01*
X466626Y652725D01*
X468542Y654640D01*
X469897Y656987D01*
X470598Y659604D01*
Y662313D01*
X470010Y664508D01*
X471105Y665856D01*
X471444Y666115D01*
X520000D01*
X521487Y666411D01*
X522747Y667253D01*
X523969Y668475D01*
X605499D01*
X606395Y666475D01*
X605411Y664772D01*
X604710Y662155D01*
Y659445D01*
X605411Y656828D01*
X605456Y656750D01*
X552591Y603885D01*
X520011D01*
X518563Y605332D01*
X516251Y606290D01*
X513749D01*
X511437Y605332D01*
X509668Y603563D01*
X508710Y601251D01*
Y598749D01*
X509668Y596437D01*
X511437Y594668D01*
X513749Y593710D01*
X516251D01*
X518563Y594668D01*
X520011Y596115D01*
X554200D01*
X555687Y596411D01*
X556947Y597253D01*
X610950Y651256D01*
X611028Y651211D01*
X613645Y650510D01*
X616355D01*
X618972Y651211D01*
X621318Y652566D01*
X623234Y654482D01*
X624589Y656828D01*
X625290Y659445D01*
Y662155D01*
X624589Y664772D01*
X623605Y666475D01*
X624501Y668475D01*
X648702D01*
X650674Y666503D01*
X651934Y665661D01*
X653421Y665365D01*
X689710D01*
Y659210D01*
Y640710D01*
X704796D01*
X705553Y639953D01*
X706813Y639111D01*
X708300Y638815D01*
X742008D01*
X742309Y638089D01*
X743774Y636179D01*
X745685Y634713D01*
X747909Y633791D01*
X750296Y633477D01*
X763504D01*
X765891Y633791D01*
X768115Y634713D01*
X770026Y636179D01*
X771491Y638089D01*
X772413Y640313D01*
X772727Y642700D01*
X772413Y645087D01*
X772112Y645814D01*
X785519Y659222D01*
X786361Y660482D01*
X786657Y661969D01*
Y666163D01*
X801609Y681115D01*
X843391D01*
X858710Y665796D01*
D02*
G37*
G36*
X999960Y500290D02*
Y493885D01*
X950011D01*
X948885Y495011D01*
Y501115D01*
X998302D01*
X999960Y500290D01*
D02*
G37*
G36*
X1165500Y500615D02*
X1221115D01*
Y405000D01*
X1221411Y403513D01*
X1222253Y402253D01*
X1231115Y393391D01*
Y341609D01*
X1228391Y338885D01*
X1213885D01*
Y354960D01*
X1220290D01*
Y373460D01*
Y393540D01*
X1213635D01*
Y398500D01*
X1213339Y399987D01*
X1212497Y401247D01*
X1185997Y427747D01*
X1184737Y428589D01*
X1183250Y428885D01*
X1165093D01*
X1164024Y430885D01*
X1164584Y431723D01*
X1165007Y433850D01*
Y448799D01*
X1164584Y450926D01*
X1163380Y452729D01*
X1161577Y453934D01*
X1159450Y454357D01*
X1157323Y453934D01*
X1155520Y452729D01*
X1154316Y450926D01*
X1154120Y449941D01*
X1152080D01*
X1151884Y450926D01*
X1150680Y452729D01*
X1148877Y453934D01*
X1146750Y454357D01*
X1144623Y453934D01*
X1142820Y452729D01*
X1141616Y450926D01*
X1141420Y449941D01*
X1139380D01*
X1139184Y450926D01*
X1137980Y452729D01*
X1136177Y453934D01*
X1134050Y454357D01*
X1131923Y453934D01*
X1130120Y452729D01*
X1128916Y450926D01*
X1128720Y449941D01*
X1126680D01*
X1126484Y450926D01*
X1125280Y452729D01*
X1123477Y453934D01*
X1121350Y454357D01*
X1119223Y453934D01*
X1117420Y452729D01*
X1116216Y450926D01*
X1116020Y449941D01*
X1113980D01*
X1113784Y450926D01*
X1112580Y452729D01*
X1110777Y453934D01*
X1109634Y454161D01*
X1108943Y456299D01*
X1115973Y463329D01*
X1205974D01*
X1208189Y462411D01*
X1210691D01*
X1213003Y463369D01*
X1214772Y465139D01*
X1215730Y467450D01*
Y469953D01*
X1214772Y472265D01*
X1213003Y474034D01*
X1210691Y474991D01*
X1208189D01*
X1205877Y474034D01*
X1204108Y472265D01*
X1203624Y471098D01*
X1114364D01*
X1112878Y470803D01*
X1111617Y469961D01*
X1096003Y454346D01*
X1095950Y454357D01*
X1093823Y453934D01*
X1092020Y452729D01*
X1090816Y450926D01*
X1090620Y449941D01*
X1088580D01*
X1088384Y450926D01*
X1087180Y452729D01*
X1087135Y452759D01*
Y477241D01*
X1087180Y477271D01*
X1088384Y479074D01*
X1088580Y480059D01*
X1090620D01*
X1090816Y479074D01*
X1092020Y477271D01*
X1093823Y476066D01*
X1095950Y475643D01*
X1098077Y476066D01*
X1099880Y477271D01*
X1101084Y479074D01*
X1101280Y480059D01*
X1103320D01*
X1103516Y479074D01*
X1104720Y477271D01*
X1106523Y476066D01*
X1108650Y475643D01*
X1110777Y476066D01*
X1112580Y477271D01*
X1113784Y479074D01*
X1113980Y480059D01*
X1116020D01*
X1116216Y479074D01*
X1117420Y477271D01*
X1119223Y476066D01*
X1121350Y475643D01*
X1123477Y476066D01*
X1125280Y477271D01*
X1126484Y479074D01*
X1126680Y480059D01*
X1128720D01*
X1128916Y479074D01*
X1130120Y477271D01*
X1131923Y476066D01*
X1134050Y475643D01*
X1136177Y476066D01*
X1137980Y477271D01*
X1139184Y479074D01*
X1139380Y480059D01*
X1141420D01*
X1141616Y479074D01*
X1142820Y477271D01*
X1144623Y476066D01*
X1146750Y475643D01*
X1148877Y476066D01*
X1150680Y477271D01*
X1151884Y479074D01*
X1152080Y480059D01*
X1154120D01*
X1154316Y479074D01*
X1155520Y477271D01*
X1157323Y476066D01*
X1159450Y475643D01*
X1161577Y476066D01*
X1163380Y477271D01*
X1164584Y479074D01*
X1165007Y481201D01*
Y496150D01*
X1164584Y498277D01*
X1164213Y498832D01*
X1165416Y500632D01*
X1165500Y500615D01*
D02*
G37*
G36*
X999960Y479710D02*
X1038540D01*
Y482395D01*
X1042395D01*
Y469008D01*
X1040992Y467605D01*
X1038540D01*
Y470290D01*
X999960D01*
Y463885D01*
X948885D01*
Y484989D01*
X950011Y486115D01*
X999960D01*
Y479710D01*
D02*
G37*
G36*
X900290Y495710D02*
X901115Y494052D01*
Y485198D01*
X900290Y483540D01*
X879710D01*
Y471155D01*
X876761D01*
X875274Y470859D01*
X874014Y470017D01*
X849840Y445843D01*
X847887Y446039D01*
X847691Y446511D01*
X846226Y448422D01*
X844315Y449887D01*
X842091Y450809D01*
X839704Y451123D01*
X826496D01*
X824109Y450809D01*
X821885Y449887D01*
X820885Y449120D01*
X818885Y450106D01*
Y459094D01*
X820885Y460080D01*
X821885Y459313D01*
X824109Y458391D01*
X826496Y458077D01*
X839704D01*
X842091Y458391D01*
X844315Y459313D01*
X846226Y460778D01*
X847691Y462689D01*
X847992Y463415D01*
X851300D01*
X852787Y463711D01*
X854047Y464553D01*
X885204Y495710D01*
X900290D01*
D02*
G37*
G36*
X1065019Y471733D02*
X1066280Y470891D01*
X1067766Y470595D01*
X1076529D01*
X1077365Y470762D01*
X1079012Y469781D01*
X1079365Y469387D01*
Y452759D01*
X1079320Y452729D01*
X1078116Y450926D01*
X1078001Y450348D01*
X1076001Y450545D01*
Y454250D01*
X1065099D01*
Y428399D01*
X1066390D01*
Y410286D01*
X1064668Y408563D01*
X1063710Y406251D01*
Y403749D01*
X1064668Y401437D01*
X1066437Y399668D01*
X1067256Y399328D01*
X1067725Y396969D01*
X1064357Y393601D01*
X1050149D01*
Y376439D01*
X1069851D01*
Y388107D01*
X1077859Y396115D01*
X1099288D01*
X1099710Y394290D01*
X1099710Y394115D01*
Y372970D01*
X1069851D01*
Y373561D01*
X1050149D01*
Y372585D01*
X1044116D01*
X1042713Y373988D01*
Y380000D01*
X1042454Y381968D01*
X1042009Y383043D01*
X1041694Y383802D01*
X1040486Y385378D01*
X1036855Y389008D01*
Y419710D01*
X1039290D01*
Y422395D01*
X1044142D01*
X1046111Y422654D01*
X1047945Y423414D01*
X1049520Y424622D01*
X1055378Y430480D01*
X1056586Y432055D01*
X1056901Y432815D01*
X1057346Y433890D01*
X1057605Y435858D01*
Y465858D01*
Y476319D01*
X1059605Y477147D01*
X1065019Y471733D01*
D02*
G37*
G36*
X638897Y445609D02*
X638069Y443609D01*
X628995D01*
X625052Y447552D01*
X623881Y448335D01*
X622500Y448609D01*
X581495D01*
X575837Y454268D01*
X576602Y456115D01*
X628391D01*
X638897Y445609D01*
D02*
G37*
G36*
X999960Y449710D02*
X1038540D01*
Y452395D01*
X1042395D01*
Y439386D01*
X1041290Y438422D01*
X1039290Y439096D01*
Y440290D01*
X1000710D01*
Y433885D01*
X948885D01*
Y456115D01*
X999960D01*
Y449710D01*
D02*
G37*
G36*
X576939Y435457D02*
X576173Y433609D01*
X555333D01*
X554505Y435609D01*
X555332Y436437D01*
X556290Y438749D01*
Y441251D01*
X555332Y443563D01*
X554505Y444391D01*
X555333Y446391D01*
X566005D01*
X576939Y435457D01*
D02*
G37*
G36*
X1090816Y431723D02*
X1092020Y429920D01*
X1093823Y428716D01*
X1095950Y428293D01*
X1098077Y428716D01*
X1099045Y429362D01*
X1101045Y428338D01*
Y421350D01*
X1101304Y419382D01*
X1102064Y417547D01*
X1103272Y415972D01*
X1104622Y414622D01*
X1106198Y413414D01*
X1108032Y412654D01*
X1110000Y412395D01*
X1111968Y412654D01*
X1113802Y413414D01*
X1115378Y414622D01*
X1115465Y414737D01*
X1117465Y414058D01*
Y407959D01*
X1113391Y403885D01*
X1076290D01*
Y406251D01*
X1075332Y408563D01*
X1074160Y409736D01*
Y428399D01*
X1076001D01*
Y432104D01*
X1078001Y432301D01*
X1078116Y431723D01*
X1079320Y429920D01*
X1081123Y428716D01*
X1083250Y428293D01*
X1085377Y428716D01*
X1087180Y429920D01*
X1088384Y431723D01*
X1088580Y432709D01*
X1090620D01*
X1090816Y431723D01*
D02*
G37*
G36*
X1255220Y429115D02*
X1254668Y428563D01*
X1253710Y426251D01*
Y423749D01*
X1254668Y421437D01*
X1256437Y419668D01*
X1258749Y418710D01*
X1261251D01*
X1263563Y419668D01*
X1265011Y421115D01*
X1333730D01*
X1335149Y419950D01*
Y414074D01*
X1290318D01*
X1289366Y413885D01*
X1243885D01*
Y428391D01*
X1246609Y431115D01*
X1254391D01*
X1255220Y429115D01*
D02*
G37*
G36*
X600495Y424391D02*
X599668Y423563D01*
X598710Y421251D01*
Y418749D01*
X599668Y416437D01*
X601437Y414668D01*
X603749Y413710D01*
X606251D01*
X608563Y414668D01*
X610011Y416115D01*
X648391D01*
X654524Y409982D01*
X653758Y408135D01*
X590290D01*
Y414290D01*
X569710D01*
Y408135D01*
X555491D01*
X554040Y409460D01*
Y426391D01*
X599667D01*
X600495Y424391D01*
D02*
G37*
G36*
X489710Y414290D02*
X489710D01*
Y394210D01*
Y389635D01*
X484261D01*
X483563Y390332D01*
X481251Y391290D01*
X478749D01*
X476786Y390477D01*
X474786Y391294D01*
Y404292D01*
X486609Y416115D01*
X489288D01*
X489710Y414290D01*
D02*
G37*
G36*
X829491Y375405D02*
Y357323D01*
X826496D01*
X824109Y357009D01*
X821885Y356087D01*
X819974Y354622D01*
X818509Y352711D01*
X817587Y350487D01*
X817273Y348100D01*
X817587Y345713D01*
X818509Y343489D01*
X819974Y341578D01*
X821304Y340558D01*
X821798Y338223D01*
X810159Y326585D01*
X771792D01*
X771491Y327311D01*
X770026Y329222D01*
X768115Y330687D01*
X765891Y331609D01*
X763504Y331923D01*
X750296D01*
X747909Y331609D01*
X747182Y331308D01*
X744993Y333497D01*
X743733Y334339D01*
X742246Y334635D01*
X710290D01*
Y344215D01*
X742008D01*
X742309Y343489D01*
X743774Y341578D01*
X745685Y340113D01*
X747909Y339191D01*
X750296Y338877D01*
X763504D01*
X765891Y339191D01*
X768115Y340113D01*
X770026Y341578D01*
X771491Y343489D01*
X772413Y345713D01*
X772727Y348100D01*
X772413Y350487D01*
X771491Y352711D01*
X770026Y354622D01*
X768115Y356087D01*
X765891Y357009D01*
X763504Y357323D01*
X750296D01*
X747909Y357009D01*
X747182Y356708D01*
X743012Y360878D01*
Y365873D01*
X742716Y367359D01*
X741874Y368619D01*
X732747Y377747D01*
X731487Y378589D01*
X730000Y378885D01*
X665224D01*
X655612Y388497D01*
X654352Y389339D01*
X652865Y389635D01*
X590290D01*
Y400365D01*
X679141D01*
X682253Y397253D01*
X683513Y396411D01*
X685000Y396115D01*
X693151D01*
X693305Y395885D01*
X692236Y393885D01*
X675011D01*
X673563Y395332D01*
X671251Y396290D01*
X668749D01*
X666437Y395332D01*
X664668Y393563D01*
X663710Y391251D01*
Y388749D01*
X664668Y386437D01*
X666437Y384668D01*
X668749Y383710D01*
X671251D01*
X673563Y384668D01*
X675011Y386115D01*
X729989D01*
X731437Y384668D01*
X733749Y383710D01*
X736251D01*
X738563Y384668D01*
X740332Y386437D01*
X741290Y388749D01*
Y391251D01*
X740332Y393563D01*
X738563Y395332D01*
X736251Y396290D01*
X733749D01*
X731437Y395332D01*
X729989Y393885D01*
X705609D01*
X704780Y395885D01*
X705332Y396437D01*
X706290Y398749D01*
Y401251D01*
X705332Y403563D01*
X704780Y404115D01*
X705609Y406115D01*
X778391D01*
X798710Y385796D01*
Y383749D01*
X799668Y381437D01*
X801437Y379668D01*
X803749Y378710D01*
X806251D01*
X808563Y379668D01*
X810332Y381437D01*
X811290Y383749D01*
Y386251D01*
X810332Y388563D01*
X808563Y390332D01*
X806251Y391290D01*
X804204D01*
X785951Y409543D01*
X786716Y411391D01*
X793505D01*
X829491Y375405D01*
D02*
G37*
G36*
X569710Y394210D02*
Y381204D01*
X564796Y376290D01*
X563749D01*
X561437Y375332D01*
X559668Y373563D01*
X558710Y371251D01*
Y368749D01*
X559382Y367127D01*
X557873Y365618D01*
X556251Y366290D01*
X554040D01*
Y384540D01*
X529147D01*
X528382Y386388D01*
X542359Y400365D01*
X569710D01*
Y394210D01*
D02*
G37*
G36*
X658121Y375000D02*
X632253Y349132D01*
X631411Y347872D01*
X631115Y346385D01*
Y306609D01*
X628391Y303885D01*
X566609D01*
X558885Y311609D01*
Y321115D01*
X561399D01*
Y315149D01*
X578561D01*
Y334750D01*
X580000Y335747D01*
X581439Y334750D01*
Y315149D01*
X598601D01*
Y334851D01*
X600077Y336115D01*
X609989D01*
X611437Y334668D01*
X613749Y333710D01*
X616251D01*
X618563Y334668D01*
X620332Y336437D01*
X621290Y338749D01*
Y341251D01*
X620332Y343563D01*
X618563Y345332D01*
X616251Y346290D01*
X613749D01*
X611437Y345332D01*
X609989Y343885D01*
X590000D01*
X589256Y343737D01*
X588512Y343885D01*
X551609D01*
X548885Y346609D01*
Y354392D01*
X550885Y355220D01*
X551437Y354668D01*
X553749Y353710D01*
X556251D01*
X558563Y354668D01*
X560332Y356437D01*
X561290Y358749D01*
Y361251D01*
X560618Y362873D01*
X562127Y364382D01*
X563749Y363710D01*
X566251D01*
X568563Y364668D01*
X570332Y366437D01*
X571290Y368749D01*
Y371251D01*
X571130Y371637D01*
X575204Y375710D01*
X590290D01*
Y381865D01*
X651256D01*
X658121Y375000D01*
D02*
G37*
G36*
X547253Y337253D02*
X548513Y336411D01*
X550000Y336115D01*
X559923D01*
X561399Y334851D01*
Y328885D01*
X556488D01*
X555001Y328589D01*
X553741Y327747D01*
X552253Y326259D01*
X551411Y324999D01*
X551115Y323512D01*
Y312640D01*
X549115Y311812D01*
X543609Y317318D01*
Y338284D01*
X545457Y339049D01*
X547253Y337253D01*
D02*
G37*
G36*
X1192658Y21848D02*
X1191893Y20000D01*
X1073885D01*
Y29094D01*
X1074454Y29246D01*
X1077086Y30766D01*
X1079234Y32914D01*
X1080753Y35546D01*
X1080906Y36115D01*
X1178391D01*
X1192658Y21848D01*
D02*
G37*
G36*
X442659D02*
X441893Y20000D01*
X418107D01*
X417341Y21848D01*
X423954Y28460D01*
X436046D01*
X442659Y21848D01*
D02*
G37*
%LPC*%
G36*
X214851Y523541D02*
X195149D01*
Y506379D01*
X209746D01*
X223678Y492448D01*
X224849Y491665D01*
X226230Y491391D01*
X263505D01*
X281391Y473505D01*
Y460148D01*
X279931Y459306D01*
X278394Y457769D01*
X277308Y455886D01*
X276745Y453787D01*
Y451613D01*
X277308Y449514D01*
X278394Y447631D01*
X279931Y446094D01*
X281814Y445008D01*
X283913Y444445D01*
X286087D01*
X288186Y445008D01*
X290069Y446094D01*
X291606Y447631D01*
X292692Y449514D01*
X293255Y451613D01*
Y453787D01*
X292692Y455886D01*
X291606Y457769D01*
X290069Y459306D01*
X288609Y460148D01*
Y475000D01*
X288335Y476381D01*
X287552Y477552D01*
X267552Y497552D01*
X266381Y498335D01*
X265000Y498609D01*
X227725D01*
X214851Y511484D01*
Y523541D01*
D02*
G37*
G36*
X164851Y523561D02*
X145149D01*
Y506399D01*
X159746D01*
X198698Y467448D01*
X199869Y466665D01*
X201250Y466391D01*
X201250Y466391D01*
X246391D01*
Y460148D01*
X244931Y459306D01*
X243394Y457769D01*
X242308Y455886D01*
X241745Y453787D01*
Y451613D01*
X242308Y449514D01*
X243394Y447631D01*
X244931Y446094D01*
X246814Y445008D01*
X248913Y444445D01*
X251087D01*
X253186Y445008D01*
X255069Y446094D01*
X256606Y447631D01*
X257692Y449514D01*
X258255Y451613D01*
Y453787D01*
X257692Y455886D01*
X256606Y457769D01*
X255069Y459306D01*
X253609Y460148D01*
Y468828D01*
X253335Y470210D01*
X252552Y471381D01*
X251381Y472552D01*
X250210Y473335D01*
X248828Y473609D01*
X202745D01*
X164851Y511504D01*
Y523561D01*
D02*
G37*
G36*
X119851Y523541D02*
X100149D01*
Y506379D01*
X114357D01*
X170783Y449953D01*
X172043Y449111D01*
X173530Y448815D01*
X207711D01*
X208394Y447631D01*
X209931Y446094D01*
X211814Y445008D01*
X213913Y444445D01*
X216087D01*
X218186Y445008D01*
X220069Y446094D01*
X221606Y447631D01*
X222692Y449514D01*
X223255Y451613D01*
Y453787D01*
X222692Y455886D01*
X221606Y457769D01*
X220069Y459306D01*
X218186Y460392D01*
X216087Y460955D01*
X213913D01*
X211814Y460392D01*
X209931Y459306D01*
X208394Y457769D01*
X207711Y456585D01*
X175139D01*
X119851Y511873D01*
Y523541D01*
D02*
G37*
G36*
X293255Y435555D02*
X276745D01*
Y431185D01*
X258255D01*
Y435555D01*
X241745D01*
Y431185D01*
X223255D01*
Y435555D01*
X206745D01*
Y419045D01*
X223255D01*
Y423415D01*
X241745D01*
Y419045D01*
X258255D01*
Y423415D01*
X276745D01*
Y419045D01*
X293255D01*
Y435555D01*
D02*
G37*
G36*
X154290Y415290D02*
X145520D01*
Y405000D01*
Y394710D01*
X154290D01*
Y401115D01*
X173391D01*
X176115Y398391D01*
Y380011D01*
X174668Y378563D01*
X173718Y376270D01*
X186282D01*
X185332Y378563D01*
X183885Y380011D01*
Y400000D01*
X183589Y401487D01*
X182747Y402747D01*
X177747Y407747D01*
X176487Y408589D01*
X175000Y408885D01*
X154290D01*
Y415290D01*
D02*
G37*
G36*
X291270Y366282D02*
Y361270D01*
X296282D01*
X295332Y363563D01*
X293563Y365332D01*
X291270Y366282D01*
D02*
G37*
G36*
X186764Y373730D02*
X173718D01*
X174668Y371437D01*
X176115Y369989D01*
Y351609D01*
X173391Y348885D01*
X153601D01*
Y354851D01*
X146290D01*
Y345000D01*
Y335149D01*
X153601D01*
Y341115D01*
X175000D01*
X176487Y341411D01*
X177747Y342253D01*
X182747Y347253D01*
X183589Y348513D01*
X183885Y350000D01*
Y363008D01*
X185732Y363774D01*
X192253Y357253D01*
X193513Y356411D01*
X195000Y356115D01*
X284989D01*
X286437Y354668D01*
X288730Y353718D01*
Y360000D01*
Y366282D01*
X286437Y365332D01*
X284989Y363885D01*
X196609D01*
X186764Y373730D01*
D02*
G37*
G36*
X143750Y354851D02*
X136439D01*
Y346270D01*
X143750D01*
Y354851D01*
D02*
G37*
G36*
X1236914Y709540D02*
X1233086D01*
X1229388Y708549D01*
X1226072Y706635D01*
X1223365Y703928D01*
X1221451Y700612D01*
X1220460Y696914D01*
Y693086D01*
X1221451Y689388D01*
X1222345Y687839D01*
X1206693Y672187D01*
X1205851Y670927D01*
X1205558Y669454D01*
X1204668Y668563D01*
X1203710Y666251D01*
Y663749D01*
X1204668Y661437D01*
X1206437Y659668D01*
X1208749Y658710D01*
X1211251D01*
X1213563Y659668D01*
X1215332Y661437D01*
X1216290Y663749D01*
Y666251D01*
X1215332Y668563D01*
X1214695Y669201D01*
X1227839Y682345D01*
X1229388Y681451D01*
X1233086Y680460D01*
X1236914D01*
X1240612Y681451D01*
X1243928Y683365D01*
X1246635Y686072D01*
X1248549Y689388D01*
X1249540Y693086D01*
Y696914D01*
X1248549Y700612D01*
X1246635Y703928D01*
X1243928Y706635D01*
X1240612Y708549D01*
X1236914Y709540D01*
D02*
G37*
G36*
X1198740D02*
X1169660D01*
Y685954D01*
X1167253Y683547D01*
X1166411Y682287D01*
X1166115Y680800D01*
Y640011D01*
X1164668Y638563D01*
X1163710Y636251D01*
Y633749D01*
X1164668Y631437D01*
X1166437Y629668D01*
X1168749Y628710D01*
X1171251D01*
X1173563Y629668D01*
X1175332Y631437D01*
X1176290Y633749D01*
Y636251D01*
X1175332Y638563D01*
X1173885Y640011D01*
Y679191D01*
X1175154Y680460D01*
X1198740D01*
Y709540D01*
D02*
G37*
G36*
X1249290Y555290D02*
X1210710D01*
Y548885D01*
X1193601D01*
Y554851D01*
X1176439D01*
Y535149D01*
X1193601D01*
Y541115D01*
X1210710D01*
Y534710D01*
X1249290D01*
Y541115D01*
X1284989D01*
X1286437Y539668D01*
X1288749Y538710D01*
X1291251D01*
X1293563Y539668D01*
X1295332Y541437D01*
X1296290Y543749D01*
Y546251D01*
X1295332Y548563D01*
X1293563Y550332D01*
X1291251Y551290D01*
X1288749D01*
X1286437Y550332D01*
X1284989Y548885D01*
X1249290D01*
Y555290D01*
D02*
G37*
G36*
X1461335Y315540D02*
X1458665D01*
X1456086Y314849D01*
X1453774Y313514D01*
X1451886Y311626D01*
X1450551Y309314D01*
X1450543Y309285D01*
X1444150D01*
X1442663Y308989D01*
X1441403Y308147D01*
X1353107Y219851D01*
X1346933D01*
X1334037Y232747D01*
X1332776Y233589D01*
X1331290Y233885D01*
X1248710D01*
X1247224Y233589D01*
X1245963Y232747D01*
X1233067Y219851D01*
X1221399D01*
Y200149D01*
X1238561D01*
Y213805D01*
X1239439Y214489D01*
X1241439Y213511D01*
Y200149D01*
X1246135D01*
Y167829D01*
X1227740Y149434D01*
X1227714Y149449D01*
X1225135Y150140D01*
X1222465D01*
X1219886Y149449D01*
X1217574Y148114D01*
X1215686Y146226D01*
X1214351Y143914D01*
X1213660Y141335D01*
Y138665D01*
X1214351Y136086D01*
X1215686Y133774D01*
X1217574Y131886D01*
X1219886Y130551D01*
X1222465Y129860D01*
X1225135D01*
X1227714Y130551D01*
X1230026Y131886D01*
X1231914Y133774D01*
X1233249Y136086D01*
X1233940Y138665D01*
Y141335D01*
X1233249Y143914D01*
X1233234Y143940D01*
X1243468Y154174D01*
X1245315Y153408D01*
Y149457D01*
X1245286Y149449D01*
X1242974Y148114D01*
X1241086Y146226D01*
X1239751Y143914D01*
X1239060Y141335D01*
Y138665D01*
X1239751Y136086D01*
X1241086Y133774D01*
X1242974Y131886D01*
X1245286Y130551D01*
X1247865Y129860D01*
X1250535D01*
X1253114Y130551D01*
X1255426Y131886D01*
X1257314Y133774D01*
X1258649Y136086D01*
X1259340Y138665D01*
Y141335D01*
X1258649Y143914D01*
X1257314Y146226D01*
X1255426Y148114D01*
X1253114Y149449D01*
X1253085Y149457D01*
Y156607D01*
X1277936Y181458D01*
X1278778Y182719D01*
X1279074Y184205D01*
Y200149D01*
X1288541D01*
Y219851D01*
X1271379D01*
Y205605D01*
X1271305Y205229D01*
Y185814D01*
X1255752Y170262D01*
X1253905Y171027D01*
Y200149D01*
X1258601D01*
Y219851D01*
X1246668D01*
X1245902Y221698D01*
X1250319Y226115D01*
X1293391D01*
X1296115Y223391D01*
Y219851D01*
X1291419D01*
Y200149D01*
X1308581D01*
Y219851D01*
X1303885D01*
Y225000D01*
X1304800Y226115D01*
X1329681D01*
X1334098Y221698D01*
X1333332Y219851D01*
X1321399D01*
Y200149D01*
X1326095D01*
Y196989D01*
X1278540Y149434D01*
X1278514Y149449D01*
X1275935Y150140D01*
X1273265D01*
X1270686Y149449D01*
X1268374Y148114D01*
X1266486Y146226D01*
X1265151Y143914D01*
X1264460Y141335D01*
Y138665D01*
X1265151Y136086D01*
X1266486Y133774D01*
X1268374Y131886D01*
X1270686Y130551D01*
X1273265Y129860D01*
X1275935D01*
X1278514Y130551D01*
X1280826Y131886D01*
X1282714Y133774D01*
X1284049Y136086D01*
X1284740Y138665D01*
Y141335D01*
X1284049Y143914D01*
X1284034Y143940D01*
X1332727Y192633D01*
X1333569Y193894D01*
X1333865Y195380D01*
Y200149D01*
X1338561D01*
Y213511D01*
X1340561Y214489D01*
X1341439Y213805D01*
Y200149D01*
X1358601D01*
Y214357D01*
X1445759Y301515D01*
X1450543D01*
X1450551Y301486D01*
X1451886Y299174D01*
X1453774Y297286D01*
X1456086Y295951D01*
X1458665Y295260D01*
X1461335D01*
X1463914Y295951D01*
X1466226Y297286D01*
X1468114Y299174D01*
X1469449Y301486D01*
X1470140Y304065D01*
Y306735D01*
X1469449Y309314D01*
X1468114Y311626D01*
X1466226Y313514D01*
X1463914Y314849D01*
X1461335Y315540D01*
D02*
G37*
G36*
X763504Y306523D02*
X750296D01*
X747909Y306209D01*
X745685Y305287D01*
X743774Y303822D01*
X742309Y301911D01*
X741387Y299687D01*
X741073Y297300D01*
X741387Y294913D01*
X742309Y292689D01*
X743774Y290778D01*
X745685Y289313D01*
X747909Y288391D01*
X750296Y288077D01*
X763504D01*
X765891Y288391D01*
X768115Y289313D01*
X770026Y290778D01*
X771491Y292689D01*
X772413Y294913D01*
X772727Y297300D01*
X772413Y299687D01*
X771491Y301911D01*
X770026Y303822D01*
X768115Y305287D01*
X765891Y306209D01*
X763504Y306523D01*
D02*
G37*
G36*
X1461335Y290140D02*
X1458665D01*
X1456086Y289449D01*
X1453774Y288114D01*
X1451886Y286226D01*
X1450551Y283914D01*
X1449860Y281335D01*
Y278665D01*
X1450551Y276086D01*
X1451886Y273774D01*
X1453774Y271886D01*
X1456086Y270551D01*
X1458665Y269860D01*
X1461335D01*
X1463914Y270551D01*
X1466226Y271886D01*
X1468114Y273774D01*
X1469449Y276086D01*
X1470140Y278665D01*
Y281335D01*
X1469449Y283914D01*
X1468114Y286226D01*
X1466226Y288114D01*
X1463914Y289449D01*
X1461335Y290140D01*
D02*
G37*
G36*
X763504Y281123D02*
X750296D01*
X747909Y280809D01*
X745685Y279887D01*
X743774Y278422D01*
X742309Y276511D01*
X741387Y274287D01*
X741073Y271900D01*
X741387Y269513D01*
X742309Y267288D01*
X743774Y265378D01*
X745685Y263913D01*
X747909Y262991D01*
X750296Y262677D01*
X763504D01*
X765891Y262991D01*
X768115Y263913D01*
X770026Y265378D01*
X771491Y267288D01*
X772413Y269513D01*
X772727Y271900D01*
X772413Y274287D01*
X771491Y276511D01*
X770026Y278422D01*
X768115Y279887D01*
X765891Y280809D01*
X763504Y281123D01*
D02*
G37*
G36*
X1461335Y264740D02*
X1458665D01*
X1456086Y264049D01*
X1453774Y262714D01*
X1451886Y260826D01*
X1450551Y258514D01*
X1450543Y258485D01*
X1434600D01*
X1433113Y258189D01*
X1431853Y257347D01*
X1417253Y242747D01*
X1416411Y241487D01*
X1416115Y240000D01*
Y210809D01*
X1355410Y150103D01*
X1354600Y150264D01*
X1347000D01*
X1344526Y149772D01*
X1342429Y148371D01*
X1341028Y146274D01*
X1340536Y143800D01*
Y136200D01*
X1341028Y133726D01*
X1342429Y131629D01*
X1344526Y130228D01*
X1347000Y129736D01*
X1354600D01*
X1357074Y130228D01*
X1359171Y131629D01*
X1360572Y133726D01*
X1361064Y136200D01*
Y143800D01*
X1360903Y144609D01*
X1422747Y206453D01*
X1423589Y207713D01*
X1423885Y209200D01*
Y238391D01*
X1436209Y250715D01*
X1450543D01*
X1450551Y250686D01*
X1451886Y248374D01*
X1453774Y246486D01*
X1456086Y245151D01*
X1458665Y244460D01*
X1461335D01*
X1463914Y245151D01*
X1466226Y246486D01*
X1468114Y248374D01*
X1469449Y250686D01*
X1470140Y253265D01*
Y255935D01*
X1469449Y258514D01*
X1468114Y260826D01*
X1466226Y262714D01*
X1463914Y264049D01*
X1461335Y264740D01*
D02*
G37*
G36*
Y239340D02*
X1458665D01*
X1456086Y238649D01*
X1453774Y237314D01*
X1451886Y235426D01*
X1450551Y233114D01*
X1449860Y230535D01*
Y227865D01*
X1450551Y225286D01*
X1451886Y222974D01*
X1453774Y221086D01*
X1456086Y219751D01*
X1458665Y219060D01*
X1461335D01*
X1463914Y219751D01*
X1466226Y221086D01*
X1468114Y222974D01*
X1469449Y225286D01*
X1470140Y227865D01*
Y230535D01*
X1469449Y233114D01*
X1468114Y235426D01*
X1466226Y237314D01*
X1463914Y238649D01*
X1461335Y239340D01*
D02*
G37*
G36*
X1022399Y275480D02*
X1017601D01*
X1012863Y274729D01*
X1008300Y273247D01*
X1004025Y271069D01*
X1000144Y268249D01*
X996751Y264856D01*
X993931Y260975D01*
X991753Y256700D01*
X990270Y252137D01*
X989520Y247399D01*
Y242601D01*
X990270Y237863D01*
X991753Y233300D01*
X993931Y229025D01*
X996751Y225144D01*
X1000144Y221751D01*
X1004025Y218931D01*
X1008300Y216753D01*
X1012863Y215271D01*
X1017601Y214520D01*
X1022399D01*
X1027137Y215271D01*
X1031700Y216753D01*
X1035975Y218931D01*
X1039856Y221751D01*
X1043249Y225144D01*
X1046069Y229025D01*
X1048247Y233300D01*
X1049730Y237863D01*
X1050480Y242601D01*
Y247399D01*
X1049730Y252137D01*
X1048247Y256700D01*
X1046069Y260975D01*
X1043249Y264856D01*
X1039856Y268249D01*
X1035975Y271069D01*
X1031700Y273247D01*
X1027137Y274729D01*
X1022399Y275480D01*
D02*
G37*
G36*
X154851Y253561D02*
X135149D01*
Y236399D01*
X141115D01*
Y194989D01*
X139931Y194306D01*
X138394Y192769D01*
X137308Y190886D01*
X136745Y188787D01*
Y186613D01*
X137308Y184514D01*
X138394Y182631D01*
X139931Y181094D01*
X141814Y180008D01*
X143913Y179445D01*
X146087D01*
X148186Y180008D01*
X150069Y181094D01*
X151606Y182631D01*
X152692Y184514D01*
X153255Y186613D01*
Y188787D01*
X152692Y190886D01*
X151606Y192769D01*
X150069Y194306D01*
X148885Y194989D01*
Y236399D01*
X154851D01*
Y253561D01*
D02*
G37*
G36*
X109851D02*
X90149D01*
Y236399D01*
X96115D01*
Y194989D01*
X94931Y194306D01*
X93394Y192769D01*
X92308Y190886D01*
X91745Y188787D01*
Y186613D01*
X92308Y184514D01*
X93394Y182631D01*
X94931Y181094D01*
X96814Y180008D01*
X98913Y179445D01*
X101087D01*
X103186Y180008D01*
X105069Y181094D01*
X106606Y182631D01*
X107692Y184514D01*
X108255Y186613D01*
Y188787D01*
X107692Y190886D01*
X106606Y192769D01*
X105069Y194306D01*
X103885Y194989D01*
Y236399D01*
X109851D01*
Y253561D01*
D02*
G37*
G36*
X64851D02*
X45149D01*
Y236399D01*
X51115D01*
Y194989D01*
X49931Y194306D01*
X48394Y192769D01*
X47308Y190886D01*
X46745Y188787D01*
Y186613D01*
X47308Y184514D01*
X48394Y182631D01*
X49931Y181094D01*
X51814Y180008D01*
X53913Y179445D01*
X56087D01*
X58186Y180008D01*
X60069Y181094D01*
X61606Y182631D01*
X62692Y184514D01*
X63255Y186613D01*
Y188787D01*
X62692Y190886D01*
X61606Y192769D01*
X60069Y194306D01*
X58885Y194989D01*
Y236399D01*
X64851D01*
Y253561D01*
D02*
G37*
G36*
X153255Y170555D02*
X146270D01*
Y163570D01*
X153255D01*
Y170555D01*
D02*
G37*
G36*
X143730D02*
X136745D01*
Y163570D01*
X143730D01*
Y170555D01*
D02*
G37*
G36*
X108255D02*
X101270D01*
Y163570D01*
X108255D01*
Y170555D01*
D02*
G37*
G36*
X98730D02*
X91745D01*
Y163570D01*
X98730D01*
Y170555D01*
D02*
G37*
G36*
X63255D02*
X56270D01*
Y163570D01*
X63255D01*
Y170555D01*
D02*
G37*
G36*
X53730D02*
X46745D01*
Y163570D01*
X53730D01*
Y170555D01*
D02*
G37*
G36*
X243018Y177290D02*
X240782D01*
X238623Y176711D01*
X236687Y175594D01*
X235106Y174013D01*
X233989Y172077D01*
X233410Y169918D01*
Y167682D01*
X233989Y165523D01*
X235106Y163587D01*
X236687Y162006D01*
X238623Y160889D01*
X240782Y160310D01*
X243018D01*
X245177Y160889D01*
X247113Y162006D01*
X248694Y163587D01*
X249811Y165523D01*
X250390Y167682D01*
Y169918D01*
X249811Y172077D01*
X248694Y174013D01*
X247113Y175594D01*
X245177Y176711D01*
X243018Y177290D01*
D02*
G37*
G36*
X153255Y161030D02*
X146270D01*
Y154045D01*
X153255D01*
Y161030D01*
D02*
G37*
G36*
X143730D02*
X136745D01*
Y154045D01*
X143730D01*
Y161030D01*
D02*
G37*
G36*
X108255D02*
X101270D01*
Y154045D01*
X108255D01*
Y161030D01*
D02*
G37*
G36*
X98730D02*
X91745D01*
Y154045D01*
X98730D01*
Y161030D01*
D02*
G37*
G36*
X63255D02*
X56270D01*
Y154045D01*
X63255D01*
Y161030D01*
D02*
G37*
G36*
X53730D02*
X46745D01*
Y154045D01*
X53730D01*
Y161030D01*
D02*
G37*
G36*
X1326735Y150140D02*
X1324065D01*
X1321486Y149449D01*
X1319174Y148114D01*
X1317286Y146226D01*
X1315951Y143914D01*
X1315260Y141335D01*
Y138665D01*
X1315951Y136086D01*
X1317286Y133774D01*
X1319174Y131886D01*
X1321486Y130551D01*
X1324065Y129860D01*
X1326735D01*
X1329314Y130551D01*
X1331626Y131886D01*
X1333514Y133774D01*
X1334849Y136086D01*
X1335540Y138665D01*
Y141335D01*
X1334849Y143914D01*
X1333514Y146226D01*
X1331626Y148114D01*
X1329314Y149449D01*
X1326735Y150140D01*
D02*
G37*
G36*
X1301335D02*
X1298665D01*
X1296086Y149449D01*
X1293774Y148114D01*
X1291886Y146226D01*
X1290551Y143914D01*
X1289860Y141335D01*
Y138665D01*
X1290551Y136086D01*
X1291886Y133774D01*
X1293774Y131886D01*
X1296086Y130551D01*
X1298665Y129860D01*
X1301335D01*
X1303914Y130551D01*
X1306226Y131886D01*
X1308114Y133774D01*
X1309449Y136086D01*
X1310140Y138665D01*
Y141335D01*
X1309449Y143914D01*
X1308114Y146226D01*
X1306226Y148114D01*
X1303914Y149449D01*
X1301335Y150140D01*
D02*
G37*
G36*
X1291519Y51540D02*
X1288481D01*
X1285546Y50753D01*
X1282914Y49234D01*
X1280766Y47086D01*
X1279247Y44454D01*
X1278460Y41519D01*
Y38481D01*
X1279247Y35546D01*
X1280766Y32914D01*
X1282914Y30766D01*
X1285546Y29246D01*
X1288481Y28460D01*
X1291519D01*
X1294454Y29246D01*
X1297086Y30766D01*
X1299234Y32914D01*
X1300754Y35546D01*
X1301540Y38481D01*
Y41519D01*
X1300754Y44454D01*
X1299234Y47086D01*
X1297086Y49234D01*
X1294454Y50753D01*
X1291519Y51540D01*
D02*
G37*
G36*
X1169851Y372831D02*
X1150149D01*
Y355669D01*
X1156115D01*
Y343540D01*
X1149710D01*
Y323460D01*
Y304960D01*
X1156115D01*
Y251609D01*
X1017253Y112747D01*
X1016411Y111487D01*
X1016115Y110000D01*
Y50906D01*
X1015546Y50753D01*
X1012914Y49234D01*
X1010766Y47086D01*
X1009246Y44454D01*
X1008460Y41519D01*
Y38481D01*
X1009246Y35546D01*
X1010766Y32914D01*
X1012914Y30766D01*
X1015546Y29246D01*
X1018481Y28460D01*
X1021519D01*
X1024454Y29246D01*
X1027086Y30766D01*
X1029234Y32914D01*
X1030753Y35546D01*
X1031540Y38481D01*
Y41519D01*
X1030753Y44454D01*
X1029234Y47086D01*
X1027086Y49234D01*
X1024454Y50753D01*
X1023885Y50906D01*
Y108391D01*
X1162747Y247253D01*
X1163589Y248513D01*
X1163885Y250000D01*
Y304960D01*
X1170290D01*
Y323460D01*
Y343540D01*
X1163885D01*
Y355669D01*
X1169851D01*
Y372831D01*
D02*
G37*
G36*
X751519Y51540D02*
X748481D01*
X745546Y50753D01*
X742914Y49234D01*
X740766Y47086D01*
X739247Y44454D01*
X738460Y41519D01*
Y38481D01*
X739247Y35546D01*
X740766Y32914D01*
X742914Y30766D01*
X745546Y29246D01*
X748481Y28460D01*
X751519D01*
X754454Y29246D01*
X757086Y30766D01*
X759234Y32914D01*
X760753Y35546D01*
X761540Y38481D01*
Y41519D01*
X760753Y44454D01*
X759234Y47086D01*
X757086Y49234D01*
X754454Y50753D01*
X751519Y51540D01*
D02*
G37*
G36*
X481519D02*
X478481D01*
X475546Y50753D01*
X472914Y49234D01*
X470766Y47086D01*
X469246Y44454D01*
X468460Y41519D01*
Y38481D01*
X469246Y35546D01*
X470766Y32914D01*
X472914Y30766D01*
X475546Y29246D01*
X478481Y28460D01*
X481519D01*
X484454Y29246D01*
X487086Y30766D01*
X489234Y32914D01*
X490754Y35546D01*
X491540Y38481D01*
Y41519D01*
X490754Y44454D01*
X489234Y47086D01*
X487086Y49234D01*
X484454Y50753D01*
X481519Y51540D01*
D02*
G37*
G36*
X211519D02*
X208481D01*
X205546Y50753D01*
X202914Y49234D01*
X200766Y47086D01*
X199247Y44454D01*
X198460Y41519D01*
Y38481D01*
X199247Y35546D01*
X200766Y32914D01*
X202914Y30766D01*
X205546Y29246D01*
X208481Y28460D01*
X211519D01*
X214454Y29246D01*
X217086Y30766D01*
X219234Y32914D01*
X220754Y35546D01*
X221540Y38481D01*
Y41519D01*
X220754Y44454D01*
X219234Y47086D01*
X217086Y49234D01*
X214454Y50753D01*
X211519Y51540D01*
D02*
G37*
G36*
X342930Y671790D02*
X342648D01*
X339649Y670986D01*
X336961Y669434D01*
X334766Y667239D01*
X333214Y664551D01*
X332410Y661552D01*
Y661270D01*
X342930D01*
Y671790D01*
D02*
G37*
G36*
Y658730D02*
X332410D01*
Y658448D01*
X333214Y655449D01*
X334766Y652761D01*
X336961Y650566D01*
X339649Y649014D01*
X342648Y648210D01*
X342930D01*
Y658730D01*
D02*
G37*
G36*
X839704Y651923D02*
X826496D01*
X824109Y651609D01*
X821885Y650687D01*
X819974Y649222D01*
X818509Y647311D01*
X817587Y645087D01*
X817273Y642700D01*
X817587Y640313D01*
X818509Y638089D01*
X819974Y636179D01*
X821885Y634713D01*
X824109Y633791D01*
X826496Y633477D01*
X839704D01*
X842091Y633791D01*
X844315Y634713D01*
X846226Y636179D01*
X847691Y638089D01*
X848613Y640313D01*
X848927Y642700D01*
X848613Y645087D01*
X847691Y647311D01*
X846226Y649222D01*
X844315Y650687D01*
X842091Y651609D01*
X839704Y651923D01*
D02*
G37*
G36*
X616355Y645690D02*
X613645D01*
X611028Y644989D01*
X608682Y643634D01*
X606766Y641718D01*
X605411Y639372D01*
X604710Y636755D01*
Y634045D01*
X605411Y631428D01*
X606766Y629082D01*
X608682Y627166D01*
X611028Y625811D01*
X613645Y625110D01*
X616355D01*
X618972Y625811D01*
X621318Y627166D01*
X623234Y629082D01*
X624589Y631428D01*
X625290Y634045D01*
Y636755D01*
X624589Y639372D01*
X623234Y641718D01*
X621318Y643634D01*
X618972Y644989D01*
X616355Y645690D01*
D02*
G37*
G36*
X763504Y626523D02*
X750296D01*
X747909Y626209D01*
X745685Y625287D01*
X743774Y623822D01*
X742309Y621912D01*
X741387Y619687D01*
X741316Y619143D01*
X740259D01*
X738772Y618848D01*
X737512Y618006D01*
X732253Y612747D01*
X731411Y611487D01*
X731115Y610000D01*
Y543885D01*
X646600D01*
X645113Y543589D01*
X643853Y542747D01*
X619050Y517944D01*
X618972Y517989D01*
X616355Y518690D01*
X613645D01*
X611028Y517989D01*
X608682Y516634D01*
X606766Y514718D01*
X605411Y512372D01*
X604710Y509755D01*
Y507045D01*
X605411Y504428D01*
X606766Y502082D01*
X608682Y500166D01*
X611028Y498811D01*
X613645Y498110D01*
X616355D01*
X618972Y498811D01*
X621318Y500166D01*
X623234Y502082D01*
X624589Y504428D01*
X625290Y507045D01*
Y509755D01*
X624589Y512372D01*
X624544Y512450D01*
X648209Y536115D01*
X733512D01*
X734999Y536411D01*
X736259Y537253D01*
X737747Y538741D01*
X738589Y540001D01*
X738885Y541488D01*
Y608391D01*
X741502Y611009D01*
X743675Y610908D01*
X743774Y610779D01*
X745685Y609313D01*
X747909Y608391D01*
X750296Y608077D01*
X763504D01*
X765891Y608391D01*
X768115Y609313D01*
X770026Y610779D01*
X771491Y612689D01*
X772413Y614913D01*
X772727Y617300D01*
X772413Y619687D01*
X771491Y621912D01*
X770026Y623822D01*
X768115Y625287D01*
X765891Y626209D01*
X763504Y626523D01*
D02*
G37*
G36*
X616355Y620290D02*
X613645D01*
X611028Y619589D01*
X608682Y618234D01*
X606766Y616318D01*
X605411Y613972D01*
X604710Y611355D01*
Y608645D01*
X605411Y606028D01*
X606766Y603682D01*
X608682Y601766D01*
X611028Y600411D01*
X613645Y599710D01*
X616355D01*
X618972Y600411D01*
X621318Y601766D01*
X623234Y603682D01*
X624589Y606028D01*
X625290Y608645D01*
Y611355D01*
X624589Y613972D01*
X623234Y616318D01*
X621318Y618234D01*
X618972Y619589D01*
X616355Y620290D01*
D02*
G37*
G36*
X461663Y595048D02*
X458953D01*
X456336Y594347D01*
X453990Y592993D01*
X452074Y591077D01*
X450719Y588730D01*
X450018Y586113D01*
Y583404D01*
X450719Y580787D01*
X452074Y578440D01*
X453990Y576525D01*
X456336Y575170D01*
X458953Y574468D01*
X461663D01*
X464280Y575170D01*
X466626Y576525D01*
X468542Y578440D01*
X469897Y580787D01*
X470598Y583404D01*
Y586113D01*
X469897Y588730D01*
X468542Y591077D01*
X466626Y592993D01*
X464280Y594347D01*
X461663Y595048D01*
D02*
G37*
G36*
X616355Y594890D02*
X613645D01*
X611028Y594189D01*
X608682Y592834D01*
X606766Y590918D01*
X605411Y588572D01*
X604710Y585955D01*
Y583245D01*
X605411Y580628D01*
X606766Y578282D01*
X608682Y576366D01*
X611028Y575011D01*
X613645Y574310D01*
X616355D01*
X618972Y575011D01*
X621318Y576366D01*
X623234Y578282D01*
X624589Y580628D01*
X625290Y583245D01*
Y585955D01*
X624589Y588572D01*
X623234Y590918D01*
X621318Y592834D01*
X618972Y594189D01*
X616355Y594890D01*
D02*
G37*
G36*
X461663Y569649D02*
X458953D01*
X456336Y568947D01*
X453990Y567593D01*
X452074Y565677D01*
X450719Y563330D01*
X450018Y560713D01*
Y558004D01*
X450719Y555387D01*
X452074Y553040D01*
X453990Y551124D01*
X456336Y549770D01*
X458953Y549068D01*
X461663D01*
X464280Y549770D01*
X466626Y551124D01*
X468542Y553040D01*
X469897Y555387D01*
X470598Y558004D01*
Y560713D01*
X469897Y563330D01*
X468542Y565677D01*
X466626Y567593D01*
X464280Y568947D01*
X461663Y569649D01*
D02*
G37*
G36*
X616355Y569490D02*
X613645D01*
X611028Y568789D01*
X608682Y567434D01*
X606766Y565518D01*
X605411Y563172D01*
X604710Y560555D01*
Y557845D01*
X605411Y555228D01*
X606766Y552882D01*
X608682Y550966D01*
X611028Y549611D01*
X613645Y548910D01*
X616355D01*
X618972Y549611D01*
X621318Y550966D01*
X623234Y552882D01*
X624589Y555228D01*
X625290Y557845D01*
Y560555D01*
X624589Y563172D01*
X623234Y565518D01*
X621318Y567434D01*
X618972Y568789D01*
X616355Y569490D01*
D02*
G37*
G36*
X756251Y566290D02*
X753749D01*
X751437Y565332D01*
X749668Y563563D01*
X748710Y561251D01*
Y558749D01*
X749668Y556437D01*
X751437Y554668D01*
X753749Y553710D01*
X755796D01*
X771115Y538391D01*
Y526306D01*
X769115Y525320D01*
X768115Y526087D01*
X765891Y527009D01*
X763504Y527323D01*
X750296D01*
X747909Y527009D01*
X745685Y526087D01*
X743774Y524622D01*
X742309Y522711D01*
X742008Y521985D01*
X710290D01*
Y529290D01*
X689710D01*
Y509210D01*
Y490710D01*
X696115D01*
Y485011D01*
X694668Y483563D01*
X693710Y481251D01*
Y478749D01*
X694668Y476437D01*
X696437Y474668D01*
X698749Y473710D01*
X701251D01*
X703563Y474668D01*
X705332Y476437D01*
X706290Y478749D01*
Y481251D01*
X705332Y483563D01*
X703885Y485011D01*
Y490710D01*
X710290D01*
Y496865D01*
X740127D01*
X741432Y495195D01*
X741387Y495087D01*
X741073Y492700D01*
X741387Y490313D01*
X742309Y488089D01*
X743774Y486178D01*
X745685Y484713D01*
X747909Y483791D01*
X750296Y483477D01*
X763504D01*
X765891Y483791D01*
X768115Y484713D01*
X770026Y486178D01*
X771491Y488089D01*
X772413Y490313D01*
X772727Y492700D01*
X772413Y495087D01*
X771876Y496382D01*
X777747Y502253D01*
X778589Y503513D01*
X778885Y505000D01*
Y540000D01*
X778589Y541487D01*
X777747Y542747D01*
X761290Y559204D01*
Y561251D01*
X760332Y563563D01*
X758563Y565332D01*
X756251Y566290D01*
D02*
G37*
G36*
X461663Y544249D02*
X458953D01*
X456336Y543547D01*
X453990Y542192D01*
X452074Y540277D01*
X450719Y537930D01*
X450018Y535313D01*
Y532604D01*
X450719Y529987D01*
X452074Y527640D01*
X453990Y525724D01*
X456336Y524370D01*
X458953Y523669D01*
X461663D01*
X464280Y524370D01*
X466626Y525724D01*
X468542Y527640D01*
X469897Y529987D01*
X469920Y530074D01*
X514432D01*
X563710Y480796D01*
Y478749D01*
X564668Y476437D01*
X566437Y474668D01*
X568749Y473710D01*
X571251D01*
X573563Y474668D01*
X575332Y476437D01*
X576290Y478749D01*
Y481251D01*
X575332Y483563D01*
X573563Y485332D01*
X571251Y486290D01*
X569204D01*
X518788Y536705D01*
X517528Y537547D01*
X516041Y537843D01*
X469920D01*
X469897Y537930D01*
X468542Y540277D01*
X466626Y542192D01*
X464280Y543547D01*
X461663Y544249D01*
D02*
G37*
G36*
X421251Y376290D02*
X418749D01*
X416437Y375332D01*
X414668Y373563D01*
X413710Y371251D01*
Y368749D01*
X414668Y366437D01*
X416437Y364668D01*
X418749Y363710D01*
X420796D01*
X437253Y347253D01*
X438513Y346411D01*
X440000Y346115D01*
X469989D01*
X471437Y344668D01*
X473749Y343710D01*
X476251D01*
X478563Y344668D01*
X480332Y346437D01*
X481290Y348749D01*
Y351251D01*
X480332Y353563D01*
X478563Y355332D01*
X476251Y356290D01*
X473749D01*
X471437Y355332D01*
X469989Y353885D01*
X441609D01*
X426290Y369204D01*
Y371251D01*
X425332Y373563D01*
X423563Y375332D01*
X421251Y376290D01*
D02*
G37*
G36*
X356282Y608730D02*
X343718D01*
X344668Y606437D01*
X346115Y604989D01*
Y411609D01*
X315353Y380847D01*
X314511Y379587D01*
X314215Y378100D01*
Y328761D01*
X312887Y327994D01*
X311306Y326413D01*
X310189Y324477D01*
X309651Y322470D01*
X318100D01*
X326549D01*
X326011Y324477D01*
X324894Y326413D01*
X323313Y327994D01*
X321985Y328761D01*
Y376491D01*
X352747Y407253D01*
X353589Y408513D01*
X353885Y410000D01*
Y604989D01*
X355332Y606437D01*
X356282Y608730D01*
D02*
G37*
G36*
X326549Y319930D02*
X319370D01*
Y312751D01*
X321377Y313289D01*
X323313Y314406D01*
X324894Y315987D01*
X326011Y317923D01*
X326549Y319930D01*
D02*
G37*
G36*
X316830D02*
X309651D01*
X310189Y317923D01*
X311306Y315987D01*
X312887Y314406D01*
X314823Y313289D01*
X316830Y312751D01*
Y319930D01*
D02*
G37*
G36*
X421464Y233080D02*
X419336D01*
X417281Y232529D01*
X415439Y231466D01*
X413934Y229961D01*
X412871Y228119D01*
X412320Y226064D01*
Y223936D01*
X412871Y221881D01*
X413934Y220039D01*
X415439Y218534D01*
X417281Y217471D01*
X419336Y216920D01*
X421464D01*
X423519Y217471D01*
X425361Y218534D01*
X426866Y220039D01*
X427929Y221881D01*
X428480Y223936D01*
Y226064D01*
X427929Y228119D01*
X426866Y229961D01*
X425361Y231466D01*
X423519Y232529D01*
X421464Y233080D01*
D02*
G37*
G36*
X371051Y271090D02*
X368549D01*
X366237Y270132D01*
X364468Y268363D01*
X363510Y266051D01*
Y263549D01*
X364468Y261237D01*
X365715Y259989D01*
Y233080D01*
X361520D01*
Y216920D01*
X377680D01*
Y233080D01*
X373485D01*
Y259589D01*
X375132Y261237D01*
X376090Y263549D01*
Y266051D01*
X375132Y268363D01*
X373363Y270132D01*
X371051Y271090D01*
D02*
G37*
%LPD*%
G36*
X742309Y513489D02*
X743774Y511578D01*
X745685Y510113D01*
X747909Y509191D01*
X750296Y508877D01*
X763504D01*
X765891Y509191D01*
X768115Y510113D01*
X769115Y510880D01*
X771115Y509894D01*
Y506609D01*
X766049Y501543D01*
X765891Y501609D01*
X763504Y501923D01*
X750296D01*
X747909Y501609D01*
X747182Y501308D01*
X744993Y503497D01*
X743733Y504339D01*
X742246Y504635D01*
X710290D01*
Y514215D01*
X742008D01*
X742309Y513489D01*
D02*
G37*
D10*
X458828Y475000D02*
X460000Y473828D01*
Y385000D02*
X485000Y360000D01*
X445000Y475000D02*
X458828D01*
X460000Y385000D02*
Y473828D01*
X430000Y490000D02*
X445000Y475000D01*
X540000Y405000D02*
X540750Y404250D01*
X540000Y405000D02*
Y419000D01*
X505000Y341290D02*
Y360000D01*
X489980Y326270D02*
X505000Y341290D01*
X285000Y452700D02*
Y475000D01*
X265000Y495000D02*
X285000Y475000D01*
X226230Y495000D02*
X265000D01*
X206270Y514960D02*
X226230Y495000D01*
X205000Y514960D02*
X206270D01*
X250000Y452700D02*
Y468828D01*
X248828Y470000D02*
X250000Y468828D01*
X201250Y470000D02*
X248828D01*
X156270Y514980D02*
X201250Y470000D01*
X155000Y514980D02*
X156270D01*
X430000Y605251D02*
X460308Y635559D01*
X430000Y490000D02*
Y605251D01*
X485000Y360000D02*
X505000D01*
X795000Y426172D02*
Y650000D01*
X813100Y668100D01*
X793828Y425000D02*
X795000Y426172D01*
X567500Y450000D02*
X582500Y435000D01*
X550000Y428828D02*
X551172Y430000D01*
X650000D01*
X582500Y435000D02*
X655000D01*
X535000Y448579D02*
X536421Y450000D01*
X570000Y455000D02*
X580000Y445000D01*
X535000Y455000D02*
X570000D01*
X536421Y450000D02*
X567500D01*
X530000Y450000D02*
X535000Y455000D01*
X550000Y419000D02*
Y428828D01*
X535000Y419000D02*
Y448579D01*
X530000Y419000D02*
Y450000D01*
X580000Y445000D02*
X622500D01*
X627500Y440000D02*
X660000D01*
X622500Y445000D02*
X627500Y440000D01*
X833100Y348100D02*
Y376900D01*
X795000Y415000D02*
X833100Y376900D01*
X665000Y415000D02*
X795000D01*
X650000Y430000D02*
X665000Y415000D01*
X655000Y435000D02*
X670000Y420000D01*
X660000Y440000D02*
X675000Y425000D01*
X813100Y668100D02*
X833100D01*
X675000Y425000D02*
X793828D01*
X670000Y420000D02*
X803828D01*
X831892Y516892D02*
X833100Y518100D01*
X816892Y516892D02*
X831892D01*
X805000Y505000D02*
X816892Y516892D01*
X805000Y421172D02*
Y505000D01*
X803828Y420000D02*
X805000Y421172D01*
X550000Y365000D02*
X555000Y360000D01*
X550000Y365000D02*
Y375000D01*
X489980Y325000D02*
Y326270D01*
X540000Y315823D02*
Y350000D01*
X535000Y274400D02*
Y375000D01*
X540000Y350000D02*
Y375000D01*
Y350000D02*
X540000Y350000D01*
X515600Y255000D02*
X535000Y274400D01*
X540000Y315823D02*
X564400Y291423D01*
Y255000D02*
Y291423D01*
D15*
X180000Y375000D02*
X195000Y360000D01*
X290000D01*
X180000Y375000D02*
Y400000D01*
X145020Y345000D02*
X175000D01*
X180000Y350000D01*
Y375000D01*
X175000Y405000D02*
X180000Y400000D01*
X144250Y405000D02*
X175000D01*
X350000Y410000D02*
Y610000D01*
X318100Y378100D02*
X350000Y410000D01*
X318100Y321200D02*
Y378100D01*
X350000Y701488D02*
Y730000D01*
Y701488D02*
X351488Y700000D01*
X640000D01*
X660000Y720000D01*
X920000D01*
X940000Y700000D01*
Y570000D02*
Y700000D01*
X929520Y550480D02*
Y570000D01*
Y550480D02*
X945000Y535000D01*
Y503512D02*
Y535000D01*
X905000Y456488D02*
Y585000D01*
X903512Y455000D02*
X905000Y456488D01*
X896480Y593520D02*
X905000Y585000D01*
X960000Y570000D02*
X1010000D01*
X1040000Y600000D01*
X1105800Y600800D02*
Y695000D01*
X1085000Y580000D02*
X1105800Y600800D01*
X1085000Y507100D02*
Y580000D01*
X1070550Y488675D02*
Y679450D01*
X1055000Y695000D02*
X1070550Y679450D01*
X1140000Y610000D02*
X1300000D01*
X1330000Y580000D01*
Y504500D02*
Y580000D01*
X700000Y310000D02*
Y330750D01*
X425000Y105000D02*
Y150000D01*
X366940Y657340D02*
X369600Y660000D01*
X366940Y646940D02*
Y657340D01*
X350000Y630000D02*
X366940Y646940D01*
X325000Y630000D02*
X350000D01*
X300000Y655000D02*
X325000Y630000D01*
X180000Y655000D02*
X300000D01*
X170000Y645000D02*
X180000Y655000D01*
X153500Y645000D02*
X170000D01*
X153500Y644750D02*
X159730Y638520D01*
X166460D01*
X204980Y600000D01*
X219980Y585000D02*
Y586270D01*
X215209Y591041D02*
X219980Y586270D01*
X213939Y591041D02*
X215209D01*
X204980Y600000D02*
X213939Y591041D01*
X155040Y600000D02*
X204980D01*
X215000Y427300D02*
X250000D01*
X285000D01*
X420000Y370000D02*
X440000Y350000D01*
X475000D01*
X305020Y358920D02*
Y585000D01*
X241900Y295800D02*
X305020Y358920D01*
X485000Y420000D02*
X498512D01*
X470901Y405901D02*
X485000Y420000D01*
X470901Y380901D02*
Y405901D01*
Y380901D02*
X481802Y370000D01*
X500000Y385750D02*
X522250D01*
X540750Y404250D01*
X500000Y404250D02*
Y418512D01*
X498512Y420000D02*
X500000Y418512D01*
X480750Y385750D02*
X500000D01*
X500000Y404250D02*
X500000Y404250D01*
X480000Y385000D02*
X480750Y385750D01*
X481802Y370000D02*
X515000D01*
X540750Y404250D02*
X580000D01*
X425000Y150000D02*
X485000D01*
X510000Y175000D01*
X585000D01*
X732700Y322700D01*
X750296D01*
X1315000Y15000D02*
X1340000Y40000D01*
X1205000Y15000D02*
X1315000D01*
X1180000Y40000D02*
X1205000Y15000D01*
X1070000Y40000D02*
X1180000D01*
X1070000Y15000D02*
Y40000D01*
X1065000Y10000D02*
X1070000Y15000D01*
X970000Y10000D02*
X1065000D01*
X960000Y20000D02*
X970000Y10000D01*
X720000Y20000D02*
X960000D01*
X700000Y40000D02*
X720000Y20000D01*
X688635Y28635D02*
X700000Y40000D01*
X688635Y23635D02*
Y28635D01*
X685000Y20000D02*
X688635Y23635D01*
X450000Y20000D02*
X685000D01*
X430000Y40000D02*
X450000Y20000D01*
X160000Y40000D02*
X180000Y20000D01*
X410000D01*
X430000Y40000D01*
X635000Y346385D02*
X663615Y375000D01*
X635000Y305000D02*
Y346385D01*
X630000Y300000D02*
X635000Y305000D01*
X565000Y300000D02*
X630000D01*
X555000Y310000D02*
X565000Y300000D01*
X555000Y310000D02*
Y323512D01*
X556488Y325000D01*
X569980D01*
X569980Y325000D01*
X750296Y348100D02*
X756900D01*
X739127Y359269D02*
X750296Y348100D01*
X739127Y359269D02*
Y365873D01*
X730000Y375000D02*
X739127Y365873D01*
X663615Y375000D02*
X730000D01*
X652865Y385750D02*
X663615Y375000D01*
X580000Y385750D02*
X652865D01*
X685000Y400000D02*
X700000D01*
X680750Y404250D02*
X685000Y400000D01*
X580000Y404250D02*
X680750D01*
X670000Y390000D02*
X735000D01*
X700000Y480000D02*
Y500750D01*
X755000Y560000D02*
X775000Y540000D01*
Y505000D02*
Y540000D01*
X762700Y492700D02*
X775000Y505000D01*
X756900Y492700D02*
X762700D01*
X854832Y348500D02*
X890000D01*
X844018Y337686D02*
X854832Y348500D01*
X826754Y337686D02*
X844018D01*
X811768Y322700D02*
X826754Y337686D01*
X756900Y322700D02*
X811768D01*
X750296D02*
X756900D01*
X742246Y330750D02*
X750296Y322700D01*
X700000Y330750D02*
X742246D01*
X750296Y492700D02*
X756900D01*
X742246Y500750D02*
X750296Y492700D01*
X700000Y500750D02*
X742246D01*
X700000Y650750D02*
X700250D01*
X708300Y642700D01*
X756900D01*
X763504D01*
X782773Y661969D01*
Y667773D01*
X800000Y685000D01*
X845000D01*
X865000Y665000D01*
X868500Y668500D01*
X890000D01*
X890000Y560000D02*
X890000Y560000D01*
X890000Y524250D02*
Y560000D01*
X945000Y430000D02*
Y460000D01*
Y490000D01*
Y503512D01*
X946488Y505000D01*
X1047459D01*
X1060708Y491752D01*
Y481539D02*
Y491752D01*
Y481539D02*
X1067766Y474480D01*
X1076529D01*
X1083250Y481201D01*
Y488675D01*
X945000Y430000D02*
X1010750D01*
X945000Y460000D02*
X1010000D01*
X945000Y490000D02*
X1010000D01*
X1225000Y405000D02*
Y504500D01*
Y405000D02*
X1235000Y395000D01*
Y340000D02*
Y395000D01*
X1230000Y335000D02*
X1235000Y340000D01*
X1210000Y335000D02*
X1230000D01*
X1225000Y504500D02*
X1330000D01*
X1210000Y335000D02*
Y365000D01*
X1165500Y504500D02*
X1225000D01*
X1160000Y510000D02*
X1165500Y504500D01*
X1159450Y509450D02*
X1160000Y510000D01*
X1159450Y488675D02*
Y509450D01*
X1134050Y509050D02*
X1135000Y510000D01*
X1134050Y488675D02*
Y509050D01*
X1210000Y305000D02*
Y335000D01*
X1135000Y305000D02*
Y361388D01*
X1118368Y378020D02*
X1135000Y361388D01*
X1116230Y378020D02*
X1118368D01*
X1110000Y384250D02*
X1116230Y378020D01*
X1160000Y384290D02*
Y410000D01*
X1160000Y333500D02*
Y364250D01*
X1160000Y364250D01*
X1146750Y488675D02*
Y525500D01*
X1164980Y543730D01*
X1070275Y405275D02*
Y441050D01*
X1070000Y405000D02*
X1070275Y405275D01*
X1121350Y406350D02*
Y441325D01*
X1146750Y423250D02*
Y441325D01*
Y423250D02*
X1160000Y410000D01*
X1115000Y400000D02*
X1121350Y406350D01*
X1070275Y441050D02*
X1070550Y441325D01*
X318100Y168800D02*
X334284Y184984D01*
X423496D01*
X435000Y196488D01*
Y248710D01*
X510020Y323730D01*
Y325000D01*
X515000Y349479D02*
Y370000D01*
X514791Y349270D02*
X515000Y349479D01*
X514791Y329771D02*
Y349270D01*
X510020Y325000D02*
X514791Y329771D01*
X1350020Y211270D02*
X1444150Y305400D01*
X1460000D01*
X1400480Y414980D02*
X1430000Y444500D01*
X1385000Y414980D02*
X1400480D01*
X1340229Y410189D02*
X1345000Y414960D01*
X1290318Y410189D02*
X1340229D01*
X1290129Y410000D02*
X1290318Y410189D01*
X1241488Y410000D02*
X1290129D01*
X1240000Y411488D02*
X1241488Y410000D01*
X1240000Y411488D02*
Y430000D01*
X1245000Y435000D01*
X1280500D01*
X1350000Y504500D01*
X1370000D02*
X1430000Y444500D01*
X1345000Y435000D02*
X1345020Y435020D01*
X1385000D01*
X1005000Y340000D02*
X1020000D01*
X910000Y435000D02*
X1005000Y340000D01*
X1260000Y425000D02*
X1333730D01*
X1343730Y435000D01*
X1345000D01*
X1061270Y385020D02*
X1076250Y400000D01*
X1115000D01*
X1160938Y425000D02*
X1183250D01*
X1159450Y426488D02*
X1160938Y425000D01*
X1159450Y426488D02*
Y441325D01*
X1209750Y383500D02*
Y398500D01*
X1183250Y425000D02*
X1209750Y398500D01*
X1434600Y254600D02*
X1460000D01*
X1420000Y240000D02*
X1434600Y254600D01*
X1420000Y209200D02*
Y240000D01*
X1350800Y140000D02*
X1420000Y209200D01*
X990000Y20000D02*
X1040000D01*
X970000Y40000D02*
X990000Y20000D01*
X1040000D02*
X1050000Y30000D01*
Y60000D01*
X1080000Y90000D01*
X1346200D01*
X1460000Y203800D01*
X770000Y70000D02*
X800000Y40000D01*
X510000Y70000D02*
X770000D01*
X527190Y42810D02*
X530000Y40000D01*
X527190Y42810D02*
Y52810D01*
X510000Y70000D02*
X527190Y52810D01*
X315000Y70000D02*
X510000D01*
X285000Y40000D02*
X315000Y70000D01*
X260000Y40000D02*
X285000D01*
X260000D02*
Y176100D01*
X241900Y194200D02*
X260000Y176100D01*
X260000Y200000D02*
Y212300D01*
Y200000D02*
X286520Y173480D01*
X313420D01*
X318100Y168800D01*
X267300Y245000D02*
X318100D01*
X260000Y252300D02*
X267300Y245000D01*
X308340Y203960D02*
Y223643D01*
X316997Y232300D01*
X319203D01*
X327860Y240957D01*
X319203Y257700D02*
X327860Y249043D01*
X308340Y266357D02*
Y286040D01*
Y266357D02*
X316997Y257700D01*
X319203D01*
X327860Y240957D02*
Y249043D01*
X241900Y194200D02*
X260000Y212300D01*
Y252300D01*
X241900Y270400D02*
X260000Y252300D01*
X62852Y405000D02*
X125750D01*
X111270Y514960D02*
X173530Y452700D01*
X215000D01*
X460014Y661252D02*
X460308Y660958D01*
X448748Y661252D02*
X460014D01*
X425000Y685000D02*
X448748Y661252D01*
X125000Y685000D02*
X425000D01*
X80000Y640000D02*
X125000Y685000D01*
X65500Y640000D02*
X80000D01*
X460308Y660958D02*
X469349Y670000D01*
X520000D01*
X522360Y672360D01*
X650311D01*
X653421Y669250D01*
X700000D01*
X701150Y348100D02*
X750296D01*
X700000Y349250D02*
X701150Y348100D01*
Y518100D02*
X756900D01*
X700000Y519250D02*
X701150Y518100D01*
Y668100D02*
X756900D01*
X700000Y669250D02*
X701150Y668100D01*
X1170000Y635000D02*
Y680800D01*
X1184200Y695000D01*
X1083250Y441325D02*
Y481201D01*
X1095950Y448799D02*
X1114364Y467214D01*
X1095950Y441325D02*
Y448799D01*
X1207952Y467214D02*
X1209440Y468702D01*
X1114364Y467214D02*
X1207952D01*
X1095950Y488675D02*
Y496150D01*
X1085000Y507100D02*
X1095950Y496150D01*
X1121350Y488675D02*
Y497038D01*
X1125020Y500708D01*
Y545000D01*
X1164980Y543730D02*
Y545000D01*
X1185020D02*
X1220750D01*
X1239250D02*
X1290000D01*
X1209440Y669440D02*
X1235000Y695000D01*
X1240000Y40000D02*
Y55000D01*
X1255000Y70000D01*
X1380000D01*
X1460000Y150000D01*
Y178400D01*
X1350020Y210000D02*
Y211270D01*
X1295000Y230000D02*
X1331290D01*
X1350020Y211270D01*
X1300000Y210000D02*
Y225000D01*
X1295000Y230000D02*
X1300000Y225000D01*
X1248710Y230000D02*
X1295000D01*
X1229980Y211270D02*
X1248710Y230000D01*
X1229980Y210000D02*
Y211270D01*
X1274600Y140000D02*
X1329980Y195380D01*
Y210000D01*
X1249200Y158216D02*
X1275189Y184205D01*
Y205229D01*
X1279960Y210000D01*
X1249200Y140000D02*
Y158216D01*
X1250020Y166220D02*
Y210000D01*
X1223800Y140000D02*
X1250020Y166220D01*
X1020000Y40000D02*
Y110000D01*
X1160000Y250000D01*
Y315000D01*
X1060000Y385020D02*
X1061270D01*
X890250Y455000D02*
X903512D01*
X896480Y593520D02*
Y593770D01*
X890250Y600000D02*
X896480Y593770D01*
X890000Y600000D02*
X890250D01*
X756900Y441900D02*
X776900D01*
X785000Y450000D01*
Y565000D01*
X780000Y570000D02*
X785000Y565000D01*
X765000Y570000D02*
X780000D01*
X756900Y578100D02*
X765000Y570000D01*
X756900Y578100D02*
Y591900D01*
X780000Y410000D02*
X805000Y385000D01*
X660000Y410000D02*
X780000D01*
X650000Y420000D02*
X660000Y410000D01*
X605000Y420000D02*
X650000D01*
X805000Y385000D02*
Y385000D01*
X815000Y420000D02*
Y470532D01*
X826754Y482286D01*
Y487772D01*
X831682Y492700D01*
X833100D01*
X516041Y533959D02*
X570000Y480000D01*
X460308Y533959D02*
X516041D01*
X369600Y264600D02*
X370000Y265000D01*
X369600Y225000D02*
Y264600D01*
X515000Y600000D02*
X554200D01*
X615000Y660800D01*
X754859Y615259D02*
X756900Y617300D01*
X740259Y615259D02*
X754859D01*
X735000Y610000D02*
X740259Y615259D01*
X735000Y541488D02*
Y610000D01*
X733512Y540000D02*
X735000Y541488D01*
X646600Y540000D02*
X733512D01*
X615000Y508400D02*
X646600Y540000D01*
X583800Y533800D02*
X615000D01*
X580000Y530000D02*
X583800Y533800D01*
X580000Y505000D02*
Y530000D01*
Y505000D02*
X617700Y467300D01*
X756900D01*
X749368Y441900D02*
X756900D01*
X742468Y435000D02*
X749368Y441900D01*
X695000Y435000D02*
X742468D01*
X682500Y447500D02*
X695000Y435000D01*
X642500Y447500D02*
X682500D01*
X630000Y460000D02*
X642500Y447500D01*
X508866Y460000D02*
X630000D01*
X460308Y508559D02*
X508866Y460000D01*
X595000Y475000D02*
Y475466D01*
X460308Y610159D02*
X595000Y475466D01*
X590000Y340000D02*
X615000D01*
X589256Y339256D02*
X590000Y340000D01*
X589256Y339256D02*
X590000Y338512D01*
X565000Y370000D02*
Y371000D01*
X579750Y385750D01*
X580000D01*
X515000Y370000D02*
X525000D01*
X530000Y375000D01*
X550000Y439309D02*
Y440000D01*
X545000Y419000D02*
Y434309D01*
X550000Y439309D01*
X866304Y618500D02*
X890000D01*
X839704Y591900D02*
X866304Y618500D01*
X833100Y617300D02*
X857050D01*
X889750Y650000D01*
X833100Y591900D02*
X839704D01*
X889750Y650000D02*
X890000D01*
X890250Y455000D02*
X896480Y448770D01*
Y448520D02*
Y448770D01*
Y448520D02*
X910000Y435000D01*
Y286488D02*
Y435000D01*
X908512Y285000D02*
X910000Y286488D01*
X895000Y285000D02*
X908512D01*
X890000Y280000D02*
X895000Y285000D01*
X889750Y505750D02*
X890000D01*
X851300Y467300D02*
X889750Y505750D01*
X833100Y467300D02*
X851300D01*
X883770Y467270D02*
X890000Y473500D01*
X876761Y467270D02*
X883770D01*
X851391Y441900D02*
X876761Y467270D01*
X833100Y441900D02*
X851391D01*
X872404Y330000D02*
X890000D01*
X839704Y297300D02*
X872404Y330000D01*
X833100Y297300D02*
X839704D01*
X866304Y298500D02*
X890000D01*
X839704Y271900D02*
X866304Y298500D01*
X833100Y271900D02*
X839704D01*
X395000Y225000D02*
Y400000D01*
X318100Y270400D02*
X354425Y306725D01*
Y380735D01*
X393730Y420040D01*
X395000D01*
X135000Y585000D02*
Y600000D01*
Y585000D02*
X155000Y565000D01*
X230000D01*
X250000Y545000D01*
X270000D01*
X135000Y600000D02*
Y645000D01*
X550000Y340000D02*
X588512D01*
X545000Y345000D02*
X550000Y340000D01*
X590000Y325020D02*
Y338512D01*
X588512Y340000D02*
X589256Y339256D01*
X590000Y325020D02*
X590020Y325000D01*
X545000Y345000D02*
Y375000D01*
X76267Y560080D02*
X95080D01*
X128959Y593959D01*
X130229D02*
X135000Y598730D01*
X128959Y593959D02*
X130229D01*
X76187Y560000D02*
X76267Y560080D01*
X78371Y555000D02*
X183730D01*
X308340Y286040D02*
X318100Y295800D01*
X308340Y203960D02*
X318100Y194200D01*
X124980Y404230D02*
X125750Y405000D01*
X124980Y345000D02*
Y404230D01*
X223710Y245000D02*
X241900D01*
X124980Y343730D02*
X223710Y245000D01*
X232140Y266357D02*
X240797Y257700D01*
X243003D01*
X251660Y229360D02*
Y249043D01*
X241900Y219600D02*
X251660Y229360D01*
X232140Y266357D02*
Y311440D01*
X243003Y257700D02*
X251660Y249043D01*
X232140Y311440D02*
X241900Y321200D01*
X284980Y585000D02*
Y586270D01*
X320240Y621530D01*
X356530D01*
X395000Y660000D01*
X55000Y265020D02*
Y278512D01*
X56488Y280000D01*
X85000D01*
X90000Y285000D01*
Y305000D01*
X55000Y340000D02*
X90000Y305000D01*
X100000Y265020D02*
Y315000D01*
X55000Y360000D02*
X100000Y315000D01*
X145000Y265020D02*
Y290000D01*
X55000Y380000D02*
X145000Y290000D01*
X55000Y187700D02*
Y244980D01*
X100000Y187700D02*
Y244980D01*
X145000Y187700D02*
Y244980D01*
X55000Y400000D02*
X57852D01*
X62852Y405000D01*
X110000Y514960D02*
X111270D01*
X58913Y537582D02*
X107418D01*
X50070Y553609D02*
X61017Y542662D01*
X63121Y547742D02*
X71113D01*
X44990Y551505D02*
Y599490D01*
Y551505D02*
X58913Y537582D01*
X61017Y542662D02*
X81879D01*
X55150Y555713D02*
X63121Y547742D01*
X107418Y537582D02*
X110000Y535000D01*
X44990Y599490D02*
X65500Y620000D01*
X55150Y569650D02*
X65500Y580000D01*
X55150Y555713D02*
Y569650D01*
X50070Y584570D02*
X65500Y600000D01*
X50070Y553609D02*
Y584570D01*
X153730Y535020D02*
X155000D01*
X138830Y549920D02*
X153730Y535020D01*
X89138Y549920D02*
X138830D01*
X81879Y542662D02*
X89138Y549920D01*
X183730Y555000D02*
X203730Y535000D01*
X65500Y560000D02*
X76187D01*
X71113Y547742D02*
X78371Y555000D01*
X203730Y535000D02*
X205000D01*
X240020Y585000D02*
X284980D01*
D16*
X500000Y404250D02*
D03*
Y385750D02*
D03*
X890000Y298500D02*
D03*
Y280000D02*
D03*
Y348500D02*
D03*
Y330000D02*
D03*
X890000Y524250D02*
D03*
Y505750D02*
D03*
X890000Y473500D02*
D03*
Y455000D02*
D03*
X1160000Y333500D02*
D03*
Y315000D02*
D03*
X1210000Y365000D02*
D03*
Y383500D02*
D03*
X1110000Y365750D02*
D03*
Y384250D02*
D03*
X890000Y618500D02*
D03*
Y600000D02*
D03*
Y650000D02*
D03*
Y668500D02*
D03*
X700000Y669250D02*
D03*
Y650750D02*
D03*
Y519250D02*
D03*
Y500750D02*
D03*
Y349250D02*
D03*
Y330750D02*
D03*
X580000Y404250D02*
D03*
Y385750D02*
D03*
D17*
X530000Y419000D02*
D03*
X535000D02*
D03*
X540000D02*
D03*
X545000D02*
D03*
X550000D02*
D03*
Y375000D02*
D03*
X545000D02*
D03*
X540000D02*
D03*
X535000D02*
D03*
X530000D02*
D03*
D18*
X395000Y400000D02*
D03*
Y420040D02*
D03*
X1385000Y414980D02*
D03*
Y435020D02*
D03*
X1345000Y414960D02*
D03*
Y435000D02*
D03*
X1160000Y384290D02*
D03*
Y364250D02*
D03*
X1060000Y385020D02*
D03*
Y364980D02*
D03*
X110000Y535000D02*
D03*
Y514960D02*
D03*
X155000Y535020D02*
D03*
Y514980D02*
D03*
X205000Y535000D02*
D03*
Y514960D02*
D03*
X55000Y265020D02*
D03*
Y244980D02*
D03*
X100000Y265020D02*
D03*
Y244980D02*
D03*
X145000Y265020D02*
D03*
Y244980D02*
D03*
D19*
X1029250Y430000D02*
D03*
X1010750D02*
D03*
X1028500Y460000D02*
D03*
X1010000D02*
D03*
X1028500Y490000D02*
D03*
X1010000D02*
D03*
X135000Y645000D02*
D03*
X153500D02*
D03*
X125750Y405000D02*
D03*
X144250D02*
D03*
X1239250Y545000D02*
D03*
X1220750D02*
D03*
D20*
X960000Y570000D02*
D03*
X929520D02*
D03*
D21*
X135000Y600000D02*
D03*
X155040D02*
D03*
X305020Y585000D02*
D03*
X284980D02*
D03*
X240020D02*
D03*
X219980D02*
D03*
X124980Y345000D02*
D03*
X145020D02*
D03*
X510020Y325000D02*
D03*
X489980D02*
D03*
X569980D02*
D03*
X590020D02*
D03*
X1350020Y210000D02*
D03*
X1329980D02*
D03*
X1300000D02*
D03*
X1279960D02*
D03*
X1229980D02*
D03*
X1250020D02*
D03*
X1185020Y545000D02*
D03*
X1164980D02*
D03*
X1104980D02*
D03*
X1125020D02*
D03*
D22*
X1070550Y488675D02*
D03*
X1083250D02*
D03*
X1095950D02*
D03*
X1108650D02*
D03*
X1121350D02*
D03*
X1134050D02*
D03*
X1146750D02*
D03*
X1159450D02*
D03*
Y441325D02*
D03*
X1146750D02*
D03*
X1134050D02*
D03*
X1121350D02*
D03*
X1108650D02*
D03*
X1095950D02*
D03*
X1083250D02*
D03*
D23*
X1070550D02*
D03*
D51*
X1029250Y385858D02*
Y430000D01*
X1028500Y490000D02*
X1050000D01*
Y465858D02*
Y490000D01*
X1134050Y420950D02*
X1135000Y420000D01*
X1134050Y420950D02*
Y441325D01*
X1108650Y421350D02*
X1110000Y420000D01*
X1108650Y421350D02*
Y441325D01*
X1040966Y364980D02*
X1060000D01*
X1035108Y370838D02*
X1040966Y364980D01*
X1035108Y370838D02*
Y380000D01*
X1029250Y385858D02*
X1035108Y380000D01*
X1050000Y435858D02*
Y465858D01*
X1044142Y430000D02*
X1050000Y435858D01*
X1029250Y430000D02*
X1044142D01*
X35000Y320000D02*
X55000D01*
X25000Y330000D02*
X35000Y320000D01*
X25000Y330000D02*
Y665000D01*
X40000Y680000D01*
X85000D01*
X165000Y760000D01*
X300000D01*
X270000Y730000D02*
X300000Y760000D01*
X364142D01*
X370000Y754142D01*
Y730000D02*
Y754142D01*
X405000Y730000D02*
X450000Y775000D01*
X370000Y730000D02*
X405000D01*
X1044142Y460000D02*
X1050000Y465858D01*
X1108650Y513650D02*
X1110000Y515000D01*
X1108650Y488675D02*
Y513650D01*
X1109615Y365365D02*
X1110000Y365750D01*
X1060385Y365365D02*
X1109615D01*
X1060000Y364980D02*
X1060385Y365365D01*
X1104980Y520020D02*
X1110000Y515000D01*
X1104980Y520020D02*
Y545000D01*
X1028500Y460000D02*
X1044142D01*
D52*
X944760Y569998D02*
D03*
D53*
X1184200Y695000D02*
D03*
X1055000D02*
D03*
D54*
X1235000D02*
D03*
X1105800D02*
D03*
D55*
X1020000Y245000D02*
D03*
X1440000Y60000D02*
D03*
Y740000D02*
D03*
X63500Y63500D02*
D03*
X60000Y740000D02*
D03*
D56*
X756900Y668100D02*
D03*
Y642700D02*
D03*
X833100D02*
D03*
Y668100D02*
D03*
X756900Y617300D02*
D03*
Y591900D02*
D03*
X833100Y617300D02*
D03*
Y591900D02*
D03*
X756900Y518100D02*
D03*
Y492700D02*
D03*
X833100D02*
D03*
Y518100D02*
D03*
X756900Y467300D02*
D03*
Y441900D02*
D03*
X833100Y467300D02*
D03*
Y441900D02*
D03*
X756900Y348100D02*
D03*
Y322700D02*
D03*
X833100D02*
D03*
Y348100D02*
D03*
X756900Y297300D02*
D03*
Y271900D02*
D03*
X833100Y297300D02*
D03*
Y271900D02*
D03*
D57*
X460308Y711758D02*
D03*
X615000Y711600D02*
D03*
D58*
X460308Y686358D02*
D03*
Y660958D02*
D03*
Y635559D02*
D03*
Y610159D02*
D03*
Y584758D02*
D03*
Y559358D02*
D03*
Y533959D02*
D03*
Y508559D02*
D03*
X615000Y686200D02*
D03*
Y660800D02*
D03*
Y635400D02*
D03*
Y610000D02*
D03*
Y584600D02*
D03*
Y559200D02*
D03*
Y533800D02*
D03*
Y508400D02*
D03*
D59*
X215000Y452700D02*
D03*
X250000D02*
D03*
X285000D02*
D03*
X55000Y187700D02*
D03*
X100000D02*
D03*
X145000D02*
D03*
D60*
X215000Y427300D02*
D03*
X250000D02*
D03*
X285000D02*
D03*
X55000Y162300D02*
D03*
X100000D02*
D03*
X145000D02*
D03*
D61*
X369600Y225000D02*
D03*
D62*
X395000D02*
D03*
X420400D02*
D03*
D63*
X65500Y560000D02*
D03*
Y580000D02*
D03*
Y600000D02*
D03*
Y620000D02*
D03*
X230000Y730000D02*
D03*
X250000D02*
D03*
X55000Y400000D02*
D03*
Y380000D02*
D03*
Y360000D02*
D03*
Y340000D02*
D03*
X350000Y730000D02*
D03*
X1330000Y504500D02*
D03*
X1350000D02*
D03*
D64*
X65500Y640000D02*
D03*
X55000Y320000D02*
D03*
D65*
X318100Y168800D02*
D03*
D66*
Y194200D02*
D03*
Y219600D02*
D03*
Y245000D02*
D03*
Y270400D02*
D03*
Y295800D02*
D03*
Y321200D02*
D03*
X241900D02*
D03*
Y295800D02*
D03*
Y270400D02*
D03*
Y245000D02*
D03*
Y219600D02*
D03*
Y194200D02*
D03*
Y168800D02*
D03*
D67*
X270000Y730000D02*
D03*
X370000D02*
D03*
X1370000Y504500D02*
D03*
D68*
X700000Y40000D02*
D03*
X430000D02*
D03*
X160000D02*
D03*
X970000D02*
D03*
X1240000D02*
D03*
D69*
X750000D02*
D03*
X800000D02*
D03*
X480000D02*
D03*
X530000D02*
D03*
X210000D02*
D03*
X260000D02*
D03*
X1020000D02*
D03*
X1070000D02*
D03*
X1290000D02*
D03*
X1340000D02*
D03*
D70*
X395000Y660000D02*
D03*
D71*
X369600D02*
D03*
X344200D02*
D03*
D72*
X564400Y255000D02*
D03*
X515600D02*
D03*
D73*
X1460000Y305400D02*
D03*
Y280000D02*
D03*
Y254600D02*
D03*
Y203800D02*
D03*
Y229200D02*
D03*
X1223800Y140000D02*
D03*
X1249200D02*
D03*
X1274600D02*
D03*
X1325400D02*
D03*
X1300000D02*
D03*
D74*
X1460000Y178400D02*
D03*
D75*
X1350800Y140000D02*
D03*
D76*
X290000Y360000D02*
D03*
X180000Y375000D02*
D03*
X350000Y610000D02*
D03*
X1040000Y600000D02*
D03*
X1140000Y610000D02*
D03*
X700000Y310000D02*
D03*
X425000Y105000D02*
D03*
X180000Y655000D02*
D03*
X420000Y370000D02*
D03*
X475000Y350000D02*
D03*
X480000Y385000D02*
D03*
X425000Y150000D02*
D03*
X700000Y400000D02*
D03*
X670000Y390000D02*
D03*
X700000Y480000D02*
D03*
X755000Y560000D02*
D03*
X865000Y665000D02*
D03*
X890000Y560000D02*
D03*
X945000Y490000D02*
D03*
X1135000Y510000D02*
D03*
X1160000D02*
D03*
X1135000Y305000D02*
D03*
X1210000D02*
D03*
X1070000Y405000D02*
D03*
X1030000D02*
D03*
X1135000Y420000D02*
D03*
X1110000D02*
D03*
X1430000Y445000D02*
D03*
X1260000Y425000D02*
D03*
X1020000Y340000D02*
D03*
X450000Y775000D02*
D03*
X1170000Y635000D02*
D03*
X1210000Y665000D02*
D03*
X1209440Y468702D02*
D03*
X1290000Y545000D02*
D03*
X1110000Y515000D02*
D03*
X735000Y390000D02*
D03*
X605000Y420000D02*
D03*
X805000Y385000D02*
D03*
X815000Y420000D02*
D03*
X570000Y480000D02*
D03*
X369800Y264800D02*
D03*
X515000Y600000D02*
D03*
X595000Y475000D02*
D03*
X615000Y340000D02*
D03*
X565000Y370000D02*
D03*
X515000D02*
D03*
X550000Y440000D02*
D03*
X270000Y545000D02*
D03*
X555000Y360000D02*
D03*
X505000D02*
D03*
M02*
