M48
;Layer_Color=9474304
;FILE_FORMAT=4:4
METRIC,LZ
;TYPE=PLATED
T01F00S00C0.2500
T02F00S00C0.6000
T03F00S00C0.6300
T04F00S00C0.6350
T05F00S00C0.7900
T06F00S00C0.8000
T07F00S00C0.8128
T08F00S00C1.0200
T09F00S00C1.0400
T10F00S00C1.2000
T11F00S00C1.2300
T12F00S00C1.6000
;TYPE=NON_PLATED
T13F00S00C3.1750
%
T01
X00425Y00105
X0143Y00445
X0126Y00425
X0120944Y00468702
X0116Y0051
X01135
X0111Y00515
Y0042
X01135
X0107Y00405
X0103
X0102Y0034
X01135Y00305
X0121
X00945Y0049
X00815Y0042
X00805Y00385
X00735Y0039
X007Y004
X0067Y0039
X00605Y0042
X00595Y00475
X0057Y0048
X0055Y0044
X00565Y0037
X00555Y0036
X00615Y0034
X007Y0031
Y0048
X00515Y0037
X00505Y0036
X00475Y0035
X0048Y00385
X0042Y0037
X0029Y0036
X0018Y00375
X003698Y002648
X00425Y0015
X0035Y0061
X0027Y00545
X0018Y00655
X0045Y00775
X00515Y006
X00755Y0056
X0089
X00865Y00665
X0104Y006
X0114Y0061
X0117Y00635
X0121Y00665
X0129Y00545
T02
X003696Y00225
X00395
X004204
T03
X005644Y00255
X005156
T04
X00145Y001623
Y001877
X00215Y004273
Y004527
X0025
Y004273
X00285
Y004527
X001Y001877
Y001623
X00055
Y001877
T05
X002419Y001688
Y001942
Y002196
Y00245
Y002704
Y002958
Y003212
X003181
Y002958
Y002704
Y00245
Y002196
Y001942
Y001688
T06
X0135Y005045
X0137
X0133
X00055Y004
Y0038
Y0036
Y0034
Y0032
X000655Y0056
Y0058
Y006
Y0062
Y0064
X0023Y0073
X0025
X0027
X0035
X0037
T07
X007569Y002719
Y002973
Y003227
Y003481
X008331
Y003227
Y002973
Y002719
Y004419
Y004673
Y004927
Y005181
X007569
Y004927
Y004673
Y004419
Y005919
Y006173
Y006427
Y006681
X008331
Y006427
Y006173
Y005919
T08
X012238Y0014
X012492
X012746
X013
X013254
X013508
X0146Y001784
Y002038
Y002292
Y002546
Y0028
Y003054
T09
X00615Y005084
Y005338
X00460308Y00533959
Y00508559
Y00559358
Y00584758
Y00610159
Y00635559
Y00660958
Y00686358
Y00711758
X00615Y007116
Y006862
Y006608
Y006354
Y0061
Y005846
Y005592
T10
X0016Y0004
X0021
X0026
X0043
X0048
X0053
X007
X0075
X008
X0097
X0102
X0107
X0124
X0129
X0134
T11
X003442Y0066
X003696
X00395
T12
X01055Y00695
X011058
X011842
X01235
T13
X000635Y000635
X0144Y0006
X0102Y00245
X0006Y0074
X0144
M30
