G04*
G04 #@! TF.GenerationSoftware,Altium Limited,Altium Designer,26.3.0 (6)*
G04*
G04 Layer_Physical_Order=2*
G04 Layer_Color=16711680*
%FSLAX44Y44*%
%MOMM*%
G71*
G04*
G04 #@! TF.SameCoordinates,F5B4D004-6090-4AF4-A6DE-7E30F960DECD*
G04*
G04*
G04 #@! TF.FilePolarity,Positive*
G04*
G01*
G75*
%ADD10C,0.2000*%
%ADD15C,0.2540*%
%ADD51C,1.0000*%
%ADD53R,2.4000X2.4000*%
%ADD54C,2.4000*%
%ADD55C,5.5880*%
%ADD56O,2.6416X1.3208*%
%ADD57R,1.5500X1.5500*%
%ADD58C,1.5500*%
%ADD59C,1.1430*%
%ADD60R,1.1430X1.1430*%
%ADD61R,1.1080X1.1080*%
%ADD62C,1.1080*%
%ADD63C,1.3080*%
%ADD64R,1.3080X1.3080*%
%ADD65R,1.1900X1.1900*%
%ADD66C,1.1900*%
%ADD67R,1.3080X1.3080*%
%ADD68R,1.8000X1.8000*%
%ADD69C,1.8000*%
%ADD70R,1.8500X1.8500*%
%ADD71C,1.8500*%
%ADD72C,1.0300*%
%ADD73C,1.5200*%
G04:AMPARAMS|DCode=74|XSize=1.52mm|YSize=1.52mm|CornerRadius=0.38mm|HoleSize=0mm|Usage=FLASHONLY|Rotation=90.000|XOffset=0mm|YOffset=0mm|HoleType=Round|Shape=RoundedRectangle|*
%AMROUNDEDRECTD74*
21,1,1.5200,0.7600,0,0,90.0*
21,1,0.7600,1.5200,0,0,90.0*
1,1,0.7600,0.3800,0.3800*
1,1,0.7600,0.3800,-0.3800*
1,1,0.7600,-0.3800,-0.3800*
1,1,0.7600,-0.3800,0.3800*
%
%ADD74ROUNDEDRECTD74*%
G04:AMPARAMS|DCode=75|XSize=1.52mm|YSize=1.52mm|CornerRadius=0.38mm|HoleSize=0mm|Usage=FLASHONLY|Rotation=180.000|XOffset=0mm|YOffset=0mm|HoleType=Round|Shape=RoundedRectangle|*
%AMROUNDEDRECTD75*
21,1,1.5200,0.7600,0,0,180.0*
21,1,0.7600,1.5200,0,0,180.0*
1,1,0.7600,-0.3800,0.3800*
1,1,0.7600,0.3800,0.3800*
1,1,0.7600,0.3800,-0.3800*
1,1,0.7600,-0.3800,-0.3800*
%
%ADD75ROUNDEDRECTD75*%
%ADD76C,0.7500*%
G36*
X1390000Y723368D02*
X1388152Y722603D01*
X1333307Y777449D01*
X1331732Y778657D01*
X1329897Y779417D01*
X1327929Y779676D01*
X1140221D01*
X1139520Y780378D01*
X1137945Y781586D01*
X1136111Y782346D01*
X1134142Y782605D01*
X450000D01*
X448032Y782346D01*
X446198Y781586D01*
X444622Y780378D01*
X443414Y778802D01*
X442654Y776968D01*
X442395Y775000D01*
X442654Y773032D01*
X443414Y771198D01*
X444622Y769622D01*
X452703Y761542D01*
Y722048D01*
X450018D01*
Y701469D01*
X470598D01*
Y722048D01*
X467913D01*
Y764692D01*
X467820Y765395D01*
X469363Y767395D01*
X987395D01*
Y518150D01*
X969622Y500378D01*
X968414Y498802D01*
X967654Y496968D01*
X967395Y495000D01*
Y410858D01*
X967654Y408890D01*
X968414Y407055D01*
X969622Y405480D01*
X975480Y399622D01*
X977055Y398414D01*
X977815Y398099D01*
X978889Y397654D01*
X980858Y397395D01*
X1050000D01*
X1051968Y397654D01*
X1053802Y398414D01*
X1055378Y399622D01*
X1061710Y405955D01*
X1063710Y405126D01*
Y403749D01*
X1064668Y401437D01*
X1066437Y399668D01*
X1068749Y398710D01*
X1071251D01*
X1073563Y399668D01*
X1075011Y401115D01*
X1160000D01*
X1161487Y401411D01*
X1162747Y402253D01*
X1191695Y431201D01*
X1192537Y432461D01*
X1192833Y433948D01*
Y524329D01*
X1192537Y525816D01*
X1191695Y527076D01*
X1173885Y544886D01*
Y629989D01*
X1175332Y631437D01*
X1176290Y633749D01*
Y636251D01*
X1175332Y638563D01*
X1173563Y640332D01*
X1171251Y641290D01*
X1168749D01*
X1166437Y640332D01*
X1164668Y638563D01*
X1163710Y636251D01*
Y633749D01*
X1164668Y631437D01*
X1166115Y629989D01*
Y543277D01*
X1166411Y541790D01*
X1167253Y540530D01*
X1185063Y522720D01*
Y435557D01*
X1158391Y408885D01*
X1075011D01*
X1073563Y410332D01*
X1073412Y410395D01*
X1073810Y412395D01*
X1135000D01*
X1136968Y412654D01*
X1138802Y413414D01*
X1140378Y414622D01*
X1141586Y416198D01*
X1142346Y418032D01*
X1142605Y420000D01*
X1142346Y421968D01*
X1141586Y423802D01*
X1140378Y425378D01*
X1138802Y426586D01*
X1136968Y427346D01*
X1135000Y427605D01*
X1065000D01*
X1063032Y427346D01*
X1061957Y426901D01*
X1061198Y426586D01*
X1059622Y425378D01*
X1046850Y412605D01*
X984008D01*
X982605Y414008D01*
Y491850D01*
X998150Y507395D01*
X1110000D01*
X1111968Y507654D01*
X1113802Y508414D01*
X1115378Y509622D01*
X1116586Y511198D01*
X1117346Y513032D01*
X1117605Y515000D01*
X1117346Y516968D01*
X1116586Y518802D01*
X1115378Y520378D01*
X1113802Y521586D01*
X1111968Y522346D01*
X1110000Y522605D01*
X1002605D01*
Y767395D01*
X1130992D01*
X1131693Y766693D01*
X1133269Y765485D01*
X1134028Y765170D01*
X1135103Y764725D01*
X1137071Y764466D01*
X1324779D01*
X1462395Y626850D01*
Y345000D01*
X1462654Y343032D01*
X1463414Y341198D01*
X1464622Y339622D01*
X1477395Y326850D01*
Y264008D01*
X1475992Y262605D01*
X1466335D01*
X1466226Y262714D01*
X1463914Y264049D01*
X1461335Y264740D01*
X1458665D01*
X1456086Y264049D01*
X1453774Y262714D01*
X1451886Y260826D01*
X1450551Y258514D01*
X1449860Y255935D01*
Y253265D01*
X1450551Y250686D01*
X1451886Y248374D01*
X1453774Y246486D01*
X1456086Y245151D01*
X1458665Y244460D01*
X1461335D01*
X1463914Y245151D01*
X1466226Y246486D01*
X1467135Y247395D01*
X1479142D01*
X1481111Y247654D01*
X1482945Y248414D01*
X1484520Y249622D01*
X1488152Y253255D01*
X1490000Y252490D01*
Y110000D01*
X1485628D01*
X1483885Y111488D01*
Y209200D01*
X1483589Y210687D01*
X1482747Y211947D01*
X1469434Y225260D01*
X1469449Y225286D01*
X1470140Y227865D01*
Y230535D01*
X1469449Y233114D01*
X1468114Y235426D01*
X1466226Y237314D01*
X1463914Y238649D01*
X1461335Y239340D01*
X1458665D01*
X1456086Y238649D01*
X1453774Y237314D01*
X1451886Y235426D01*
X1450551Y233114D01*
X1449860Y230535D01*
Y227865D01*
X1450551Y225286D01*
X1451886Y222974D01*
X1453774Y221086D01*
X1456086Y219751D01*
X1458665Y219060D01*
X1461335D01*
X1463914Y219751D01*
X1463940Y219766D01*
X1476115Y207591D01*
Y113885D01*
X1355000D01*
X1353513Y113589D01*
X1352253Y112747D01*
X1340000Y100494D01*
X1328885Y111609D01*
Y130436D01*
X1329314Y130551D01*
X1331626Y131886D01*
X1333514Y133774D01*
X1334849Y136086D01*
X1335540Y138665D01*
Y141335D01*
X1334849Y143914D01*
X1333514Y146226D01*
X1331626Y148114D01*
X1329314Y149449D01*
X1326735Y150140D01*
X1324065D01*
X1321486Y149449D01*
X1319174Y148114D01*
X1317286Y146226D01*
X1315951Y143914D01*
X1315260Y141335D01*
Y138665D01*
X1315951Y136086D01*
X1317286Y133774D01*
X1319174Y131886D01*
X1321115Y130765D01*
Y110000D01*
X1321411Y108513D01*
X1322253Y107253D01*
X1336115Y93391D01*
Y50906D01*
X1335546Y50753D01*
X1332914Y49234D01*
X1330766Y47086D01*
X1329247Y44454D01*
X1328460Y41519D01*
Y38481D01*
X1329247Y35546D01*
X1330766Y32914D01*
X1332914Y30766D01*
X1335546Y29246D01*
X1338481Y28460D01*
X1341519D01*
X1344454Y29246D01*
X1347086Y30766D01*
X1349234Y32914D01*
X1350754Y35546D01*
X1351540Y38481D01*
Y41519D01*
X1350754Y44454D01*
X1349234Y47086D01*
X1347086Y49234D01*
X1344454Y50753D01*
X1343885Y50906D01*
Y93391D01*
X1356609Y106115D01*
X1390000D01*
Y12613D01*
X1388152Y11848D01*
X1380000Y20000D01*
X120000D01*
Y120000D01*
X10000D01*
Y690000D01*
X110000D01*
Y790000D01*
X1390000D01*
Y723368D01*
D02*
G37*
G36*
X1490000Y338368D02*
X1488152Y337603D01*
X1477605Y348150D01*
Y630000D01*
X1477346Y631968D01*
X1476586Y633802D01*
X1475378Y635378D01*
X1412603Y698152D01*
X1413368Y700000D01*
X1490000D01*
Y338368D01*
D02*
G37*
%LPC*%
G36*
X379080Y739080D02*
X360920D01*
Y732056D01*
X358920Y731792D01*
X358461Y733505D01*
X357266Y735575D01*
X355575Y737266D01*
X353505Y738461D01*
X351270Y739060D01*
Y730000D01*
Y720940D01*
X353505Y721539D01*
X355575Y722734D01*
X357266Y724425D01*
X358461Y726495D01*
X358920Y728207D01*
X360920Y727944D01*
Y720920D01*
X379080D01*
Y739080D01*
D02*
G37*
G36*
X279080D02*
X260920D01*
Y732056D01*
X258920Y731792D01*
X258461Y733505D01*
X257266Y735575D01*
X255575Y737266D01*
X253505Y738461D01*
X251195Y739080D01*
X248805D01*
X246495Y738461D01*
X244425Y737266D01*
X242734Y735575D01*
X241539Y733505D01*
X240983Y731430D01*
X240490Y731369D01*
X239510D01*
X239017Y731430D01*
X238461Y733505D01*
X237266Y735575D01*
X235575Y737266D01*
X233505Y738461D01*
X231195Y739080D01*
X228805D01*
X226495Y738461D01*
X224425Y737266D01*
X222734Y735575D01*
X221539Y733505D01*
X220920Y731195D01*
Y728805D01*
X221425Y726919D01*
X177253Y682747D01*
X176411Y681487D01*
X176115Y680000D01*
Y660011D01*
X174668Y658563D01*
X173710Y656251D01*
Y653749D01*
X174668Y651437D01*
X176437Y649668D01*
X178749Y648710D01*
X181251D01*
X183563Y649668D01*
X185332Y651437D01*
X186290Y653749D01*
Y656251D01*
X185332Y658563D01*
X183885Y660011D01*
Y678391D01*
X224268Y718774D01*
X226115Y718008D01*
Y660000D01*
X226411Y658513D01*
X227253Y657253D01*
X256115Y628391D01*
Y561609D01*
X232253Y537747D01*
X231411Y536487D01*
X231115Y535000D01*
Y501609D01*
X223391Y493885D01*
X200000D01*
X198513Y493589D01*
X197253Y492747D01*
X177253Y472747D01*
X176411Y471487D01*
X176115Y470000D01*
Y435000D01*
X176411Y433513D01*
X177253Y432253D01*
X184953Y424553D01*
X186213Y423711D01*
X187700Y423415D01*
X206745D01*
Y419045D01*
X223255D01*
Y435555D01*
X206745D01*
Y431185D01*
X189309D01*
X183885Y436609D01*
Y468391D01*
X201609Y486115D01*
X225000D01*
X226487Y486411D01*
X227747Y487253D01*
X237747Y497253D01*
X238589Y498513D01*
X238885Y500000D01*
Y533391D01*
X262747Y557253D01*
X263589Y558513D01*
X263885Y560000D01*
Y630000D01*
X263589Y631487D01*
X262747Y632747D01*
X233885Y661609D01*
Y721758D01*
X235575Y722734D01*
X237266Y724425D01*
X238461Y726495D01*
X239017Y728570D01*
X239510Y728631D01*
X240490D01*
X240983Y728570D01*
X241539Y726495D01*
X242734Y724425D01*
X244425Y722734D01*
X246391Y721599D01*
Y685000D01*
X246665Y683619D01*
X247448Y682448D01*
X347689Y582206D01*
X348860Y581424D01*
X350242Y581149D01*
X450622D01*
X450719Y580787D01*
X452074Y578440D01*
X453990Y576525D01*
X456336Y575170D01*
X458953Y574468D01*
X461663D01*
X464280Y575170D01*
X466626Y576525D01*
X468542Y578440D01*
X469897Y580787D01*
X470598Y583404D01*
Y586113D01*
X469897Y588730D01*
X468542Y591077D01*
X466626Y592993D01*
X464280Y594347D01*
X461663Y595048D01*
X458953D01*
X456336Y594347D01*
X453990Y592993D01*
X452074Y591077D01*
X450719Y588730D01*
X450622Y588368D01*
X351737D01*
X253609Y686495D01*
Y721599D01*
X255575Y722734D01*
X257266Y724425D01*
X258461Y726495D01*
X258920Y728207D01*
X260920Y727944D01*
Y720920D01*
X279080D01*
Y739080D01*
D02*
G37*
G36*
X348730Y739060D02*
X346495Y738461D01*
X344425Y737266D01*
X342734Y735575D01*
X341539Y733505D01*
X340940Y731270D01*
X348730D01*
Y739060D01*
D02*
G37*
G36*
Y728730D02*
X340940D01*
X341425Y726919D01*
X327253Y712747D01*
X326411Y711487D01*
X326115Y710000D01*
Y674200D01*
X326411Y672713D01*
X327253Y671453D01*
X333558Y665148D01*
X333214Y664551D01*
X332410Y661552D01*
Y661270D01*
X342930D01*
Y671790D01*
X342648D01*
X339649Y670986D01*
X339052Y670642D01*
X333885Y675809D01*
Y708391D01*
X346919Y721425D01*
X348730Y720940D01*
Y728730D01*
D02*
G37*
G36*
X625290Y721890D02*
X604710D01*
Y701310D01*
X625290D01*
Y721890D01*
D02*
G37*
G36*
X1236914Y709540D02*
X1233086D01*
X1229388Y708549D01*
X1226072Y706635D01*
X1223365Y703928D01*
X1221451Y700612D01*
X1220460Y696914D01*
Y693086D01*
X1221451Y689388D01*
X1223365Y686072D01*
X1226072Y683365D01*
X1229388Y681451D01*
X1233086Y680460D01*
X1236914D01*
X1240612Y681451D01*
X1243928Y683365D01*
X1246635Y686072D01*
X1248549Y689388D01*
X1249540Y693086D01*
Y696914D01*
X1248549Y700612D01*
X1246635Y703928D01*
X1243928Y706635D01*
X1240612Y708549D01*
X1236914Y709540D01*
D02*
G37*
G36*
X1198740D02*
X1169660D01*
Y680460D01*
X1198740D01*
Y709540D01*
D02*
G37*
G36*
X1107714D02*
X1103886D01*
X1100188Y708549D01*
X1096872Y706635D01*
X1094165Y703928D01*
X1092251Y700612D01*
X1091260Y696914D01*
Y693086D01*
X1092251Y689388D01*
X1094165Y686072D01*
X1096872Y683365D01*
X1100188Y681451D01*
X1103886Y680460D01*
X1107714D01*
X1111412Y681451D01*
X1114728Y683365D01*
X1117435Y686072D01*
X1119349Y689388D01*
X1120340Y693086D01*
Y696914D01*
X1119349Y700612D01*
X1117435Y703928D01*
X1114728Y706635D01*
X1111412Y708549D01*
X1107714Y709540D01*
D02*
G37*
G36*
X1069540D02*
X1040460D01*
Y680460D01*
X1069540D01*
Y709540D01*
D02*
G37*
G36*
X451666Y698885D02*
X404600D01*
X403113Y698589D01*
X401853Y697747D01*
X374748Y670642D01*
X374151Y670986D01*
X371152Y671790D01*
X368048D01*
X365049Y670986D01*
X362361Y669434D01*
X360166Y667239D01*
X358614Y664551D01*
X357896Y661873D01*
X355904D01*
X355187Y664551D01*
X353634Y667239D01*
X351439Y669434D01*
X348751Y670986D01*
X345752Y671790D01*
X345470D01*
Y660000D01*
X344200D01*
Y658730D01*
X332410D01*
Y658448D01*
X333214Y655449D01*
X334766Y652761D01*
X336961Y650566D01*
X339649Y649014D01*
X340315Y648835D01*
Y615800D01*
X340611Y614313D01*
X341453Y613053D01*
X343236Y611270D01*
X348730D01*
Y616764D01*
X348085Y617409D01*
Y648835D01*
X348751Y649014D01*
X351439Y650566D01*
X353634Y652761D01*
X355187Y655449D01*
X355904Y658127D01*
X357896D01*
X358614Y655449D01*
X360166Y652761D01*
X362361Y650566D01*
X365049Y649014D01*
X368048Y648210D01*
X371152D01*
X374151Y649014D01*
X376839Y650566D01*
X379034Y652761D01*
X380587Y655449D01*
X381210Y657776D01*
X383210Y657513D01*
Y648210D01*
X406790D01*
Y671790D01*
X389497D01*
X388731Y673638D01*
X406209Y691115D01*
X448959D01*
X449011Y691092D01*
X450436Y689272D01*
X450018Y687713D01*
Y685004D01*
X450719Y682387D01*
X452074Y680040D01*
X453990Y678124D01*
X456336Y676770D01*
X458953Y676068D01*
X461663D01*
X464280Y676770D01*
X466626Y678124D01*
X468542Y680040D01*
X469897Y682387D01*
X470598Y685004D01*
Y687713D01*
X469897Y690330D01*
X468542Y692677D01*
X466626Y694593D01*
X464280Y695947D01*
X461663Y696648D01*
X458953D01*
X456336Y695947D01*
X456258Y695902D01*
X454413Y697747D01*
X453153Y698589D01*
X451666Y698885D01*
D02*
G37*
G36*
X616355Y696490D02*
X613645D01*
X611028Y695789D01*
X608682Y694434D01*
X606766Y692518D01*
X605411Y690172D01*
X604710Y687555D01*
Y684845D01*
X605411Y682228D01*
X606766Y679882D01*
X608682Y677966D01*
X611028Y676611D01*
X613645Y675910D01*
X616355D01*
X618972Y676611D01*
X621318Y677966D01*
X623234Y679882D01*
X624589Y682228D01*
X625290Y684845D01*
Y687555D01*
X624589Y690172D01*
X623234Y692518D01*
X621318Y694434D01*
X618972Y695789D01*
X616355Y696490D01*
D02*
G37*
G36*
X839704Y677323D02*
X826496D01*
X824109Y677009D01*
X821885Y676087D01*
X819974Y674622D01*
X818509Y672711D01*
X817587Y670487D01*
X817273Y668100D01*
X817587Y665713D01*
X818509Y663489D01*
X819974Y661579D01*
X821885Y660113D01*
X824109Y659191D01*
X826496Y658877D01*
X839704D01*
X842091Y659191D01*
X844315Y660113D01*
X846226Y661579D01*
X847691Y663489D01*
X848613Y665713D01*
X848927Y668100D01*
X848613Y670487D01*
X847691Y672711D01*
X846226Y674622D01*
X844315Y676087D01*
X842091Y677009D01*
X839704Y677323D01*
D02*
G37*
G36*
X461663Y671248D02*
X458953D01*
X456336Y670547D01*
X453990Y669193D01*
X452074Y667277D01*
X450719Y664930D01*
X450018Y662313D01*
Y659604D01*
X450719Y656987D01*
X452074Y654640D01*
X453990Y652725D01*
X456336Y651370D01*
X458953Y650668D01*
X461663D01*
X464280Y651370D01*
X466626Y652725D01*
X468542Y654640D01*
X469897Y656987D01*
X470598Y659604D01*
Y662313D01*
X469897Y664930D01*
X468542Y667277D01*
X466626Y669193D01*
X464280Y670547D01*
X461663Y671248D01*
D02*
G37*
G36*
X616355Y671090D02*
X613645D01*
X611028Y670389D01*
X608682Y669034D01*
X606766Y667118D01*
X605411Y664772D01*
X604710Y662155D01*
Y659445D01*
X605411Y656828D01*
X606766Y654482D01*
X608682Y652566D01*
X611028Y651211D01*
X613645Y650510D01*
X616355D01*
X618972Y651211D01*
X621318Y652566D01*
X623234Y654482D01*
X624589Y656828D01*
X625290Y659445D01*
Y662155D01*
X624589Y664772D01*
X623234Y667118D01*
X621318Y669034D01*
X618972Y670389D01*
X616355Y671090D01*
D02*
G37*
G36*
X763504Y651923D02*
X750296D01*
X747909Y651609D01*
X745685Y650687D01*
X743774Y649222D01*
X742309Y647311D01*
X741387Y645087D01*
X741073Y642700D01*
X741387Y640313D01*
X742309Y638089D01*
X742433Y637927D01*
X727253Y622747D01*
X726411Y621487D01*
X726115Y620000D01*
Y585000D01*
X726411Y583513D01*
X727253Y582253D01*
X748710Y560796D01*
Y558749D01*
X749668Y556437D01*
X751437Y554668D01*
X753749Y553710D01*
X756251D01*
X758563Y554668D01*
X760332Y556437D01*
X761290Y558749D01*
Y561251D01*
X760332Y563563D01*
X758563Y565332D01*
X756251Y566290D01*
X754204D01*
X733885Y586609D01*
Y618391D01*
X749125Y633631D01*
X750296Y633477D01*
X763504D01*
X765891Y633791D01*
X768115Y634713D01*
X770026Y636179D01*
X771491Y638089D01*
X772413Y640313D01*
X772727Y642700D01*
X772413Y645087D01*
X771491Y647311D01*
X770026Y649222D01*
X768115Y650687D01*
X765891Y651609D01*
X763504Y651923D01*
D02*
G37*
G36*
X461663Y645848D02*
X458953D01*
X456336Y645147D01*
X453990Y643792D01*
X452074Y641877D01*
X450719Y639530D01*
X450018Y636913D01*
Y634204D01*
X450719Y631587D01*
X452074Y629240D01*
X453990Y627324D01*
X456336Y625970D01*
X458953Y625269D01*
X461663D01*
X464280Y625970D01*
X466626Y627324D01*
X468542Y629240D01*
X469897Y631587D01*
X470598Y634204D01*
Y636913D01*
X469897Y639530D01*
X468542Y641877D01*
X466626Y643792D01*
X464280Y645147D01*
X461663Y645848D01*
D02*
G37*
G36*
X616355Y645690D02*
X613645D01*
X611028Y644989D01*
X608682Y643634D01*
X606766Y641718D01*
X605411Y639372D01*
X604710Y636755D01*
Y634045D01*
X605411Y631428D01*
X605603Y631096D01*
X537253Y562747D01*
X536411Y561487D01*
X536115Y560000D01*
Y511609D01*
X447253Y422747D01*
X446411Y421487D01*
X446115Y420000D01*
Y138885D01*
X305000D01*
X303513Y138589D01*
X302253Y137747D01*
X214965Y50459D01*
X214454Y50753D01*
X211519Y51540D01*
X208481D01*
X205546Y50753D01*
X202914Y49234D01*
X200766Y47086D01*
X199247Y44454D01*
X198460Y41519D01*
Y38481D01*
X199247Y35546D01*
X200766Y32914D01*
X202914Y30766D01*
X205546Y29246D01*
X208481Y28460D01*
X211519D01*
X214454Y29246D01*
X217086Y30766D01*
X219234Y32914D01*
X220754Y35546D01*
X221540Y38481D01*
Y41519D01*
X220754Y44454D01*
X220459Y44965D01*
X306609Y131115D01*
X448512D01*
X449999Y131411D01*
X451259Y132253D01*
X452747Y133741D01*
X453589Y135001D01*
X453885Y136488D01*
Y418391D01*
X542747Y507253D01*
X543589Y508513D01*
X543885Y510000D01*
Y558391D01*
X611246Y625753D01*
X613645Y625110D01*
X616355D01*
X618972Y625811D01*
X621318Y627166D01*
X623234Y629082D01*
X624589Y631428D01*
X625290Y634045D01*
Y636755D01*
X624589Y639372D01*
X623234Y641718D01*
X621318Y643634D01*
X618972Y644989D01*
X616355Y645690D01*
D02*
G37*
G36*
X351270Y616282D02*
Y611270D01*
X356282D01*
X355332Y613563D01*
X353563Y615332D01*
X351270Y616282D01*
D02*
G37*
G36*
X839704Y626523D02*
X826496D01*
X824109Y626209D01*
X821885Y625287D01*
X819974Y623822D01*
X818509Y621912D01*
X817587Y619687D01*
X817273Y617300D01*
X817587Y614913D01*
X818509Y612689D01*
X819974Y610779D01*
X821885Y609313D01*
X824109Y608391D01*
X826496Y608077D01*
X839704D01*
X842091Y608391D01*
X844315Y609313D01*
X846226Y610779D01*
X847691Y612689D01*
X848613Y614913D01*
X848927Y617300D01*
X848613Y619687D01*
X847691Y621912D01*
X846226Y623822D01*
X844315Y625287D01*
X842091Y626209D01*
X839704Y626523D01*
D02*
G37*
G36*
X763504D02*
X750296D01*
X747909Y626209D01*
X745685Y625287D01*
X743774Y623822D01*
X742309Y621912D01*
X741387Y619687D01*
X741073Y617300D01*
X741387Y614913D01*
X742309Y612689D01*
X743774Y610779D01*
X745685Y609313D01*
X747909Y608391D01*
X750296Y608077D01*
X763504D01*
X765891Y608391D01*
X768115Y609313D01*
X770026Y610779D01*
X771491Y612689D01*
X772413Y614913D01*
X772727Y617300D01*
X772413Y619687D01*
X771491Y621912D01*
X770026Y623822D01*
X768115Y625287D01*
X765891Y626209D01*
X763504Y626523D01*
D02*
G37*
G36*
X356282Y608730D02*
X351270D01*
Y603718D01*
X353563Y604668D01*
X355332Y606437D01*
X356282Y608730D01*
D02*
G37*
G36*
X348730D02*
X343718D01*
X344668Y606437D01*
X346437Y604668D01*
X348730Y603718D01*
Y608730D01*
D02*
G37*
G36*
X1141251Y616290D02*
X1138749D01*
X1136437Y615332D01*
X1134989Y613885D01*
X1050000D01*
X1048513Y613589D01*
X1047253Y612747D01*
X1040796Y606290D01*
X1038749D01*
X1036437Y605332D01*
X1034668Y603563D01*
X1033710Y601251D01*
Y598749D01*
X1034668Y596437D01*
X1036437Y594668D01*
X1038749Y593710D01*
X1041251D01*
X1043563Y594668D01*
X1045332Y596437D01*
X1046290Y598749D01*
Y600796D01*
X1051609Y606115D01*
X1134989D01*
X1136437Y604668D01*
X1138749Y603710D01*
X1141251D01*
X1143563Y604668D01*
X1145332Y606437D01*
X1146290Y608749D01*
Y611251D01*
X1145332Y613563D01*
X1143563Y615332D01*
X1141251Y616290D01*
D02*
G37*
G36*
X461663Y620448D02*
X458953D01*
X456336Y619747D01*
X453990Y618392D01*
X452074Y616477D01*
X450719Y614130D01*
X450018Y611513D01*
Y608804D01*
X450719Y606187D01*
X452074Y603840D01*
X453990Y601925D01*
X456336Y600570D01*
X458953Y599869D01*
X461663D01*
X464280Y600570D01*
X466626Y601925D01*
X468542Y603840D01*
X469897Y606187D01*
X470598Y608804D01*
Y611513D01*
X469897Y614130D01*
X468542Y616477D01*
X466626Y618392D01*
X464280Y619747D01*
X461663Y620448D01*
D02*
G37*
G36*
X616355Y620290D02*
X613645D01*
X611028Y619589D01*
X608682Y618234D01*
X606766Y616318D01*
X605411Y613972D01*
X604710Y611355D01*
Y608645D01*
X605411Y606028D01*
X605456Y605950D01*
X552253Y552747D01*
X551411Y551487D01*
X551115Y550000D01*
Y501609D01*
X462253Y412747D01*
X461411Y411487D01*
X461115Y410000D01*
Y55000D01*
X461411Y53513D01*
X462253Y52253D01*
X469541Y44965D01*
X469246Y44454D01*
X468460Y41519D01*
Y38481D01*
X469246Y35546D01*
X470766Y32914D01*
X472914Y30766D01*
X475546Y29246D01*
X478481Y28460D01*
X481519D01*
X484454Y29246D01*
X487086Y30766D01*
X489234Y32914D01*
X490754Y35546D01*
X491540Y38481D01*
Y41519D01*
X490754Y44454D01*
X489234Y47086D01*
X487086Y49234D01*
X484454Y50753D01*
X481519Y51540D01*
X478481D01*
X475546Y50753D01*
X475035Y50459D01*
X468885Y56609D01*
Y344392D01*
X470885Y345220D01*
X471437Y344668D01*
X473749Y343710D01*
X476251D01*
X478563Y344668D01*
X480332Y346437D01*
X481290Y348749D01*
Y351251D01*
X480332Y353563D01*
X478885Y355011D01*
Y377700D01*
X479895Y378710D01*
X481251D01*
X483563Y379668D01*
X485332Y381437D01*
X486290Y383749D01*
Y386251D01*
X485332Y388563D01*
X483563Y390332D01*
X481251Y391290D01*
X478749D01*
X476437Y390332D01*
X474668Y388563D01*
X473710Y386251D01*
Y383749D01*
X473779Y383582D01*
X472253Y382055D01*
X471411Y380795D01*
X471115Y379309D01*
Y356849D01*
X470885Y356695D01*
X468885Y357764D01*
Y408391D01*
X557747Y497253D01*
X558589Y498513D01*
X558885Y500000D01*
Y548391D01*
X610950Y600456D01*
X611028Y600411D01*
X613645Y599710D01*
X616355D01*
X618972Y600411D01*
X621318Y601766D01*
X623234Y603682D01*
X624589Y606028D01*
X625290Y608645D01*
Y611355D01*
X624589Y613972D01*
X623234Y616318D01*
X621318Y618234D01*
X618972Y619589D01*
X616355Y620290D01*
D02*
G37*
G36*
X839704Y601123D02*
X826496D01*
X824109Y600809D01*
X821885Y599887D01*
X819974Y598422D01*
X818509Y596511D01*
X817587Y594287D01*
X817273Y591900D01*
X817587Y589513D01*
X818509Y587289D01*
X819974Y585378D01*
X821885Y583913D01*
X824109Y582991D01*
X826496Y582677D01*
X839704D01*
X842091Y582991D01*
X844315Y583913D01*
X846226Y585378D01*
X847691Y587289D01*
X848613Y589513D01*
X848927Y591900D01*
X848613Y594287D01*
X847691Y596511D01*
X846226Y598422D01*
X844315Y599887D01*
X842091Y600809D01*
X839704Y601123D01*
D02*
G37*
G36*
X763504D02*
X750296D01*
X747909Y600809D01*
X745685Y599887D01*
X743774Y598422D01*
X742309Y596511D01*
X741387Y594287D01*
X741073Y591900D01*
X741387Y589513D01*
X742309Y587289D01*
X743774Y585378D01*
X745685Y583913D01*
X747909Y582991D01*
X750296Y582677D01*
X763504D01*
X765891Y582991D01*
X768115Y583913D01*
X770026Y585378D01*
X771491Y587289D01*
X772413Y589513D01*
X772727Y591900D01*
X772413Y594287D01*
X771491Y596511D01*
X770026Y598422D01*
X768115Y599887D01*
X765891Y600809D01*
X763504Y601123D01*
D02*
G37*
G36*
X74580Y649080D02*
X56420D01*
Y630920D01*
X63444D01*
X63707Y628920D01*
X61995Y628461D01*
X59925Y627266D01*
X58234Y625575D01*
X57039Y623505D01*
X56420Y621195D01*
Y618805D01*
X57039Y616495D01*
X58234Y614425D01*
X59925Y612734D01*
X61995Y611539D01*
X64070Y610983D01*
X64131Y610490D01*
Y609510D01*
X64070Y609017D01*
X61995Y608461D01*
X59925Y607266D01*
X58234Y605575D01*
X57039Y603505D01*
X56420Y601195D01*
Y598805D01*
X57039Y596495D01*
X58234Y594425D01*
X59925Y592734D01*
X61995Y591539D01*
X64070Y590983D01*
X64131Y590490D01*
Y589510D01*
X64070Y589017D01*
X61995Y588461D01*
X59925Y587266D01*
X58234Y585575D01*
X57039Y583505D01*
X56420Y581195D01*
Y578805D01*
X57039Y576495D01*
X58234Y574425D01*
X59925Y572734D01*
X61995Y571539D01*
X64070Y570983D01*
X64131Y570491D01*
Y569509D01*
X64070Y569017D01*
X61995Y568461D01*
X59925Y567266D01*
X58234Y565575D01*
X57039Y563505D01*
X56420Y561195D01*
Y558805D01*
X57039Y556495D01*
X58234Y554425D01*
X59925Y552734D01*
X61995Y551539D01*
X64305Y550920D01*
X66695D01*
X69005Y551539D01*
X71075Y552734D01*
X72766Y554425D01*
X73961Y556495D01*
X74580Y558805D01*
Y561195D01*
X73961Y563505D01*
X72766Y565575D01*
X71075Y567266D01*
X69005Y568461D01*
X66930Y569017D01*
X66869Y569509D01*
Y570491D01*
X66930Y570983D01*
X69005Y571539D01*
X71075Y572734D01*
X72766Y574425D01*
X73961Y576495D01*
X74580Y578805D01*
Y581195D01*
X73961Y583505D01*
X72766Y585575D01*
X71075Y587266D01*
X69005Y588461D01*
X66930Y589017D01*
X66869Y589510D01*
Y590490D01*
X66930Y590983D01*
X69005Y591539D01*
X71075Y592734D01*
X72766Y594425D01*
X73961Y596495D01*
X74580Y598805D01*
Y601195D01*
X73961Y603505D01*
X72766Y605575D01*
X71075Y607266D01*
X69005Y608461D01*
X66930Y609017D01*
X66869Y609510D01*
Y610490D01*
X66930Y610983D01*
X69005Y611539D01*
X71075Y612734D01*
X72766Y614425D01*
X73961Y616495D01*
X74580Y618805D01*
Y621195D01*
X73961Y623505D01*
X72766Y625575D01*
X71075Y627266D01*
X69005Y628461D01*
X67292Y628920D01*
X67556Y630920D01*
X74580D01*
Y649080D01*
D02*
G37*
G36*
X461663Y569649D02*
X458953D01*
X456336Y568947D01*
X453990Y567593D01*
X452074Y565677D01*
X450719Y563330D01*
X450018Y560713D01*
Y558004D01*
X450719Y555387D01*
X452074Y553040D01*
X453990Y551124D01*
X456336Y549770D01*
X458953Y549068D01*
X461663D01*
X464280Y549770D01*
X466626Y551124D01*
X468542Y553040D01*
X469897Y555387D01*
X470598Y558004D01*
Y560713D01*
X469897Y563330D01*
X468542Y565677D01*
X466626Y567593D01*
X464280Y568947D01*
X461663Y569649D01*
D02*
G37*
G36*
Y544249D02*
X458953D01*
X456336Y543547D01*
X453990Y542192D01*
X452074Y540277D01*
X450719Y537930D01*
X450018Y535313D01*
Y532604D01*
X450719Y529987D01*
X452074Y527640D01*
X453990Y525724D01*
X456336Y524370D01*
X458953Y523669D01*
X461663D01*
X464280Y524370D01*
X466626Y525724D01*
X468542Y527640D01*
X469897Y529987D01*
X470598Y532604D01*
Y535313D01*
X469897Y537930D01*
X468542Y540277D01*
X466626Y542192D01*
X464280Y543547D01*
X461663Y544249D01*
D02*
G37*
G36*
X616355Y544090D02*
X613645D01*
X611028Y543389D01*
X608682Y542034D01*
X606766Y540118D01*
X605411Y537772D01*
X604710Y535155D01*
Y532445D01*
X605411Y529828D01*
X606766Y527482D01*
X608682Y525566D01*
X611028Y524211D01*
X613645Y523510D01*
X616355D01*
X618972Y524211D01*
X621318Y525566D01*
X623234Y527482D01*
X624589Y529828D01*
X625290Y532445D01*
Y535155D01*
X624589Y537772D01*
X623234Y540118D01*
X621318Y542034D01*
X618972Y543389D01*
X616355Y544090D01*
D02*
G37*
G36*
X763504Y677323D02*
X750296D01*
X747909Y677009D01*
X745685Y676087D01*
X743774Y674622D01*
X742309Y672711D01*
X741387Y670487D01*
X741073Y668100D01*
X741387Y665713D01*
X742309Y663489D01*
X743774Y661579D01*
X745685Y660113D01*
X747909Y659191D01*
X750296Y658877D01*
X763504D01*
X765891Y659191D01*
X768115Y660113D01*
X770026Y661579D01*
X771491Y663489D01*
X771792Y664215D01*
X775291D01*
X776115Y663391D01*
Y522809D01*
X775291Y521985D01*
X771792D01*
X771491Y522711D01*
X770026Y524622D01*
X768115Y526087D01*
X765891Y527009D01*
X763504Y527323D01*
X750296D01*
X747909Y527009D01*
X745685Y526087D01*
X743774Y524622D01*
X742309Y522711D01*
X741387Y520487D01*
X741073Y518100D01*
X741387Y515713D01*
X742309Y513489D01*
X742607Y513100D01*
X717253Y487747D01*
X716411Y486487D01*
X716115Y485000D01*
Y425000D01*
X716411Y423513D01*
X717253Y422253D01*
X753015Y386491D01*
Y357323D01*
X750296D01*
X747909Y357009D01*
X745685Y356087D01*
X743774Y354622D01*
X742309Y352711D01*
X741387Y350487D01*
X741073Y348100D01*
X741387Y345713D01*
X742309Y343489D01*
X743774Y341578D01*
X745685Y340113D01*
X747909Y339191D01*
X750296Y338877D01*
X763504D01*
X765891Y339191D01*
X768115Y340113D01*
X770026Y341578D01*
X771491Y343489D01*
X772413Y345713D01*
X772727Y348100D01*
X772413Y350487D01*
X771491Y352711D01*
X770026Y354622D01*
X768115Y356087D01*
X765891Y357009D01*
X763504Y357323D01*
X760785D01*
Y388100D01*
X760489Y389587D01*
X759647Y390847D01*
X756301Y394193D01*
X757207Y396115D01*
X763391D01*
X776115Y383391D01*
Y276609D01*
X775291Y275785D01*
X771792D01*
X771491Y276511D01*
X770026Y278422D01*
X768115Y279887D01*
X765891Y280809D01*
X763504Y281123D01*
X750296D01*
X747909Y280809D01*
X745685Y279887D01*
X743774Y278422D01*
X742309Y276511D01*
X741387Y274287D01*
X741073Y271900D01*
X741387Y269513D01*
X742309Y267288D01*
X743774Y265378D01*
X745685Y263913D01*
X747909Y262991D01*
X750296Y262677D01*
X763504D01*
X765891Y262991D01*
X768115Y263913D01*
X770026Y265378D01*
X771491Y267288D01*
X771792Y268015D01*
X776900D01*
X778387Y268311D01*
X779647Y269153D01*
X782747Y272253D01*
X783589Y273513D01*
X783885Y275000D01*
Y385000D01*
X783589Y386487D01*
X782747Y387747D01*
X767747Y402747D01*
X766487Y403589D01*
X765000Y403885D01*
X758885D01*
Y432677D01*
X763504D01*
X765891Y432991D01*
X768115Y433913D01*
X770026Y435378D01*
X771491Y437289D01*
X772413Y439513D01*
X772727Y441900D01*
X772413Y444287D01*
X771491Y446511D01*
X770026Y448422D01*
X768115Y449887D01*
X765891Y450809D01*
X763504Y451123D01*
X750296D01*
X747909Y450809D01*
X745685Y449887D01*
X743774Y448422D01*
X742309Y446511D01*
X741387Y444287D01*
X741073Y441900D01*
X741387Y439513D01*
X742309Y437289D01*
X743774Y435378D01*
X745685Y433913D01*
X747909Y432991D01*
X750296Y432677D01*
X751115D01*
Y402207D01*
X749193Y401301D01*
X723885Y426609D01*
Y483391D01*
X749479Y508985D01*
X750296Y508877D01*
X763504D01*
X765891Y509191D01*
X768115Y510113D01*
X770026Y511578D01*
X771491Y513489D01*
X771792Y514215D01*
X776900D01*
X778387Y514511D01*
X779647Y515353D01*
X782747Y518453D01*
X783589Y519713D01*
X783885Y521200D01*
Y665000D01*
X783589Y666487D01*
X782747Y667747D01*
X779647Y670847D01*
X778387Y671689D01*
X776900Y671985D01*
X771792D01*
X771491Y672711D01*
X770026Y674622D01*
X768115Y676087D01*
X765891Y677009D01*
X763504Y677323D01*
D02*
G37*
G36*
X1161251Y516290D02*
X1158749D01*
X1156437Y515332D01*
X1154989Y513885D01*
X1140011D01*
X1138563Y515332D01*
X1136251Y516290D01*
X1133749D01*
X1131437Y515332D01*
X1129668Y513563D01*
X1128710Y511251D01*
Y508749D01*
X1129668Y506437D01*
X1131437Y504668D01*
X1133749Y503710D01*
X1136251D01*
X1138563Y504668D01*
X1140011Y506115D01*
X1154989D01*
X1156437Y504668D01*
X1158749Y503710D01*
X1161251D01*
X1163563Y504668D01*
X1165332Y506437D01*
X1166290Y508749D01*
Y511251D01*
X1165332Y513563D01*
X1163563Y515332D01*
X1161251Y516290D01*
D02*
G37*
G36*
X839704Y527323D02*
X826496D01*
X824109Y527009D01*
X821885Y526087D01*
X819974Y524622D01*
X818509Y522711D01*
X817587Y520487D01*
X817273Y518100D01*
X817587Y515713D01*
X818509Y513489D01*
X819974Y511578D01*
X821885Y510113D01*
X824109Y509191D01*
X826496Y508877D01*
X839704D01*
X842091Y509191D01*
X844315Y510113D01*
X846226Y511578D01*
X847691Y513489D01*
X848613Y515713D01*
X848927Y518100D01*
X848613Y520487D01*
X847691Y522711D01*
X846226Y524622D01*
X844315Y526087D01*
X842091Y527009D01*
X839704Y527323D01*
D02*
G37*
G36*
X1379080Y513580D02*
X1360920D01*
Y506556D01*
X1358920Y506292D01*
X1358461Y508005D01*
X1357266Y510075D01*
X1355575Y511766D01*
X1353505Y512961D01*
X1351195Y513580D01*
X1348805D01*
X1346495Y512961D01*
X1344425Y511766D01*
X1342734Y510075D01*
X1341539Y508005D01*
X1340983Y505930D01*
X1340490Y505869D01*
X1339510D01*
X1339017Y505930D01*
X1338461Y508005D01*
X1337266Y510075D01*
X1335575Y511766D01*
X1333505Y512961D01*
X1331195Y513580D01*
X1328805D01*
X1326495Y512961D01*
X1324425Y511766D01*
X1322734Y510075D01*
X1321539Y508005D01*
X1320920Y505695D01*
Y503305D01*
X1321539Y500995D01*
X1322734Y498925D01*
X1324425Y497234D01*
X1326495Y496039D01*
X1328805Y495420D01*
X1331195D01*
X1333505Y496039D01*
X1335575Y497234D01*
X1337266Y498925D01*
X1338461Y500995D01*
X1339017Y503070D01*
X1339510Y503131D01*
X1340490D01*
X1340983Y503070D01*
X1341539Y500995D01*
X1342734Y498925D01*
X1344425Y497234D01*
X1346115Y496258D01*
Y490000D01*
X1346411Y488513D01*
X1347253Y487253D01*
X1357253Y477253D01*
X1358513Y476411D01*
X1360000Y476115D01*
X1373391D01*
X1406115Y443391D01*
Y228400D01*
X1406411Y226913D01*
X1407253Y225653D01*
X1449897Y183009D01*
X1449736Y182200D01*
Y174600D01*
X1450228Y172126D01*
X1451629Y170029D01*
X1453726Y168628D01*
X1456200Y168136D01*
X1463800D01*
X1466274Y168628D01*
X1468371Y170029D01*
X1469772Y172126D01*
X1470264Y174600D01*
Y182200D01*
X1469772Y184674D01*
X1468371Y186771D01*
X1466274Y188172D01*
X1463800Y188664D01*
X1456200D01*
X1455390Y188503D01*
X1413885Y230009D01*
Y445000D01*
X1413589Y446487D01*
X1412747Y447747D01*
X1377747Y482747D01*
X1376487Y483589D01*
X1375000Y483885D01*
X1361609D01*
X1353885Y491609D01*
Y496258D01*
X1355575Y497234D01*
X1357266Y498925D01*
X1358461Y500995D01*
X1358920Y502707D01*
X1360920Y502444D01*
Y495420D01*
X1379080D01*
Y513580D01*
D02*
G37*
G36*
X461663Y518848D02*
X458953D01*
X456336Y518147D01*
X453990Y516792D01*
X452074Y514877D01*
X450719Y512530D01*
X450018Y509913D01*
Y507204D01*
X450719Y504587D01*
X452074Y502240D01*
X453990Y500325D01*
X456336Y498970D01*
X458953Y498269D01*
X461663D01*
X464280Y498970D01*
X466626Y500325D01*
X468542Y502240D01*
X469897Y504587D01*
X470598Y507204D01*
Y509913D01*
X469897Y512530D01*
X468542Y514877D01*
X466626Y516792D01*
X464280Y518147D01*
X461663Y518848D01*
D02*
G37*
G36*
X616355Y518690D02*
X613645D01*
X611028Y517989D01*
X608682Y516634D01*
X606766Y514718D01*
X605411Y512372D01*
X604710Y509755D01*
Y507045D01*
X605411Y504428D01*
X606766Y502082D01*
X608682Y500166D01*
X611028Y498811D01*
X613645Y498110D01*
X616355D01*
X618972Y498811D01*
X621318Y500166D01*
X623234Y502082D01*
X624589Y504428D01*
X625290Y507045D01*
Y509755D01*
X624589Y512372D01*
X623234Y514718D01*
X621318Y516634D01*
X618972Y517989D01*
X616355Y518690D01*
D02*
G37*
G36*
X839704Y651923D02*
X826496D01*
X824109Y651609D01*
X821885Y650687D01*
X819974Y649222D01*
X818509Y647311D01*
X817587Y645087D01*
X817273Y642700D01*
X817587Y640313D01*
X818509Y638089D01*
X819974Y636179D01*
X821885Y634713D01*
X824109Y633791D01*
X826496Y633477D01*
X839704D01*
X842091Y633791D01*
X844315Y634713D01*
X846226Y636179D01*
X847691Y638089D01*
X847992Y638815D01*
X860691D01*
X861115Y638391D01*
Y506609D01*
X851091Y496585D01*
X847992D01*
X847691Y497312D01*
X846226Y499222D01*
X844315Y500687D01*
X842091Y501609D01*
X839704Y501923D01*
X826496D01*
X824109Y501609D01*
X821885Y500687D01*
X819974Y499222D01*
X818509Y497312D01*
X817587Y495087D01*
X817273Y492700D01*
X817587Y490313D01*
X818509Y488089D01*
X819974Y486178D01*
X821885Y484713D01*
X824109Y483791D01*
X826496Y483477D01*
X839704D01*
X842091Y483791D01*
X844315Y484713D01*
X846226Y486178D01*
X847691Y488089D01*
X847992Y488815D01*
X852700D01*
X854187Y489111D01*
X855447Y489953D01*
X867747Y502253D01*
X868589Y503513D01*
X868885Y505000D01*
Y640000D01*
X868589Y641487D01*
X867747Y642747D01*
X865047Y645447D01*
X863786Y646289D01*
X862300Y646585D01*
X847992D01*
X847691Y647311D01*
X846226Y649222D01*
X844315Y650687D01*
X842091Y651609D01*
X839704Y651923D01*
D02*
G37*
G36*
X866251Y671290D02*
X863749D01*
X861437Y670332D01*
X859668Y668563D01*
X858710Y666251D01*
Y663749D01*
X859668Y661437D01*
X861437Y659668D01*
X863749Y658710D01*
X865796D01*
X871115Y653391D01*
Y575000D01*
X871411Y573513D01*
X872253Y572253D01*
X883710Y560796D01*
Y558749D01*
X884668Y556437D01*
X886437Y554668D01*
X888749Y553710D01*
X890796D01*
X926115Y518391D01*
Y495000D01*
X926411Y493513D01*
X927253Y492253D01*
X932253Y487253D01*
X933513Y486411D01*
X935000Y486115D01*
X939989D01*
X941437Y484668D01*
X943749Y483710D01*
X946251D01*
X948563Y484668D01*
X950332Y486437D01*
X951290Y488749D01*
Y491251D01*
X950332Y493563D01*
X948563Y495332D01*
X946251Y496290D01*
X943749D01*
X941437Y495332D01*
X939989Y493885D01*
X936609D01*
X933885Y496609D01*
Y520000D01*
X933589Y521487D01*
X932747Y522747D01*
X896290Y559204D01*
Y561251D01*
X895332Y563563D01*
X893563Y565332D01*
X891251Y566290D01*
X889204D01*
X878885Y576609D01*
Y655000D01*
X878589Y656487D01*
X877747Y657747D01*
X871290Y664204D01*
Y666251D01*
X870332Y668563D01*
X868563Y670332D01*
X866251Y671290D01*
D02*
G37*
G36*
X763504Y501923D02*
X750296D01*
X747909Y501609D01*
X745685Y500687D01*
X743774Y499222D01*
X742309Y497312D01*
X741387Y495087D01*
X741073Y492700D01*
X741387Y490313D01*
X742309Y488089D01*
X743774Y486178D01*
X745685Y484713D01*
X747909Y483791D01*
X750296Y483477D01*
X763504D01*
X765891Y483791D01*
X768115Y484713D01*
X770026Y486178D01*
X771491Y488089D01*
X772413Y490313D01*
X772727Y492700D01*
X772413Y495087D01*
X771491Y497312D01*
X770026Y499222D01*
X768115Y500687D01*
X765891Y501609D01*
X763504Y501923D01*
D02*
G37*
G36*
X1211251Y671290D02*
X1208749D01*
X1206437Y670332D01*
X1204668Y668563D01*
X1203710Y666251D01*
Y663749D01*
X1204668Y661437D01*
X1205835Y660269D01*
Y473992D01*
X1204108Y472265D01*
X1203150Y469953D01*
Y467450D01*
X1204108Y465139D01*
X1205877Y463369D01*
X1208189Y462411D01*
X1210691D01*
X1213003Y463369D01*
X1214772Y465139D01*
X1215730Y467450D01*
Y469953D01*
X1214772Y472265D01*
X1213605Y473432D01*
Y659709D01*
X1215332Y661437D01*
X1216290Y663749D01*
Y666251D01*
X1215332Y668563D01*
X1213563Y670332D01*
X1211251Y671290D01*
D02*
G37*
G36*
X839704Y476523D02*
X826496D01*
X824109Y476209D01*
X821885Y475287D01*
X819974Y473822D01*
X818509Y471912D01*
X817587Y469687D01*
X817273Y467300D01*
X817587Y464913D01*
X818509Y462689D01*
X819974Y460778D01*
X821885Y459313D01*
X824109Y458391D01*
X826496Y458077D01*
X839704D01*
X842091Y458391D01*
X844315Y459313D01*
X846226Y460778D01*
X847691Y462689D01*
X848613Y464913D01*
X848927Y467300D01*
X848613Y469687D01*
X847691Y471912D01*
X846226Y473822D01*
X844315Y475287D01*
X842091Y476209D01*
X839704Y476523D01*
D02*
G37*
G36*
X763504D02*
X750296D01*
X747909Y476209D01*
X745685Y475287D01*
X743774Y473822D01*
X742309Y471912D01*
X741387Y469687D01*
X741073Y467300D01*
X741387Y464913D01*
X742309Y462689D01*
X743774Y460778D01*
X745685Y459313D01*
X747909Y458391D01*
X750296Y458077D01*
X763504D01*
X765891Y458391D01*
X768115Y459313D01*
X770026Y460778D01*
X771491Y462689D01*
X772413Y464913D01*
X772727Y467300D01*
X772413Y469687D01*
X771491Y471912D01*
X770026Y473822D01*
X768115Y475287D01*
X765891Y476209D01*
X763504Y476523D01*
D02*
G37*
G36*
X286087Y460955D02*
X283913D01*
X281814Y460392D01*
X279931Y459306D01*
X278394Y457769D01*
X277308Y455886D01*
X276745Y453787D01*
Y451613D01*
X277308Y449514D01*
X278394Y447631D01*
X279931Y446094D01*
X281814Y445008D01*
X283913Y444445D01*
X286087D01*
X288186Y445008D01*
X290069Y446094D01*
X291606Y447631D01*
X292692Y449514D01*
X293255Y451613D01*
Y453787D01*
X292692Y455886D01*
X291606Y457769D01*
X290069Y459306D01*
X288186Y460392D01*
X286087Y460955D01*
D02*
G37*
G36*
X251087D02*
X248913D01*
X246814Y460392D01*
X244931Y459306D01*
X243394Y457769D01*
X242308Y455886D01*
X241745Y453787D01*
Y451613D01*
X242308Y449514D01*
X243394Y447631D01*
X244931Y446094D01*
X246814Y445008D01*
X248913Y444445D01*
X251087D01*
X253186Y445008D01*
X255069Y446094D01*
X256606Y447631D01*
X257692Y449514D01*
X258255Y451613D01*
Y453787D01*
X257692Y455886D01*
X256606Y457769D01*
X255069Y459306D01*
X253186Y460392D01*
X251087Y460955D01*
D02*
G37*
G36*
X216087D02*
X213913D01*
X211814Y460392D01*
X209931Y459306D01*
X208394Y457769D01*
X207308Y455886D01*
X206745Y453787D01*
Y451613D01*
X207308Y449514D01*
X208394Y447631D01*
X209931Y446094D01*
X211814Y445008D01*
X213913Y444445D01*
X216087D01*
X218186Y445008D01*
X220069Y446094D01*
X221606Y447631D01*
X222692Y449514D01*
X223255Y451613D01*
Y453787D01*
X222692Y455886D01*
X221606Y457769D01*
X220069Y459306D01*
X218186Y460392D01*
X216087Y460955D01*
D02*
G37*
G36*
X839704Y451123D02*
X826496D01*
X824109Y450809D01*
X821885Y449887D01*
X819974Y448422D01*
X818509Y446511D01*
X817587Y444287D01*
X817273Y441900D01*
X817587Y439513D01*
X818509Y437289D01*
X819974Y435378D01*
X821885Y433913D01*
X824109Y432991D01*
X826496Y432677D01*
X839704D01*
X842091Y432991D01*
X844315Y433913D01*
X846226Y435378D01*
X847691Y437289D01*
X848613Y439513D01*
X848927Y441900D01*
X848613Y444287D01*
X847691Y446511D01*
X846226Y448422D01*
X844315Y449887D01*
X842091Y450809D01*
X839704Y451123D01*
D02*
G37*
G36*
X258255Y435555D02*
X241745D01*
Y419045D01*
X258255D01*
Y435555D01*
D02*
G37*
G36*
X616355Y569490D02*
X613645D01*
X611028Y568789D01*
X608682Y567434D01*
X606766Y565518D01*
X605411Y563172D01*
X604710Y560555D01*
Y557845D01*
X605411Y555228D01*
X606766Y552882D01*
X608682Y550966D01*
X611028Y549611D01*
X613645Y548910D01*
X616355D01*
X618972Y549611D01*
X619050Y549656D01*
X666115Y502591D01*
Y395011D01*
X664668Y393563D01*
X663710Y391251D01*
Y388749D01*
X664668Y386437D01*
X666437Y384668D01*
X668749Y383710D01*
X671251D01*
X673563Y384668D01*
X675332Y386437D01*
X676290Y388749D01*
Y391251D01*
X675332Y393563D01*
X673885Y395011D01*
Y504200D01*
X673589Y505687D01*
X672747Y506947D01*
X624544Y555150D01*
X624589Y555228D01*
X625290Y557845D01*
Y560555D01*
X624589Y563172D01*
X623234Y565518D01*
X621318Y567434D01*
X618972Y568789D01*
X616355Y569490D01*
D02*
G37*
G36*
X181270Y381282D02*
Y376270D01*
X186282D01*
X185332Y378563D01*
X183563Y380332D01*
X181270Y381282D01*
D02*
G37*
G36*
X178730D02*
X176437Y380332D01*
X174668Y378563D01*
X173718Y376270D01*
X178730D01*
Y381282D01*
D02*
G37*
G36*
X186282Y373730D02*
X181270D01*
Y368718D01*
X183563Y369668D01*
X185332Y371437D01*
X186282Y373730D01*
D02*
G37*
G36*
X178730D02*
X173718D01*
X174668Y371437D01*
X176437Y369668D01*
X178730Y368718D01*
Y373730D01*
D02*
G37*
G36*
X551251Y446290D02*
X548749D01*
X546437Y445332D01*
X544989Y443885D01*
X525000D01*
X523513Y443589D01*
X522253Y442747D01*
X512253Y432747D01*
X511411Y431487D01*
X511115Y430000D01*
Y375011D01*
X509668Y373563D01*
X508710Y371251D01*
Y368749D01*
X509382Y367127D01*
X507873Y365618D01*
X506251Y366290D01*
X503749D01*
X501437Y365332D01*
X499668Y363563D01*
X498710Y361251D01*
Y358749D01*
X499668Y356437D01*
X501437Y354668D01*
X503749Y353710D01*
X506251D01*
X508563Y354668D01*
X510286Y356391D01*
X549714D01*
X551437Y354668D01*
X553749Y353710D01*
X556251D01*
X558563Y354668D01*
X560332Y356437D01*
X561290Y358749D01*
Y361251D01*
X560618Y362873D01*
X562127Y364382D01*
X563749Y363710D01*
X566251D01*
X568563Y364668D01*
X570332Y366437D01*
X571290Y368749D01*
Y371251D01*
X570332Y373563D01*
X568885Y375011D01*
Y425000D01*
X568589Y426487D01*
X567747Y427747D01*
X556290Y439204D01*
Y441251D01*
X555332Y443563D01*
X553563Y445332D01*
X551251Y446290D01*
D02*
G37*
G36*
X293255Y435555D02*
X276745D01*
Y419045D01*
X281115D01*
Y390000D01*
X281411Y388513D01*
X282253Y387253D01*
X302253Y367253D01*
X303513Y366411D01*
X305000Y366115D01*
X414989D01*
X416437Y364668D01*
X418749Y363710D01*
X421251D01*
X423563Y364668D01*
X425332Y366437D01*
X426290Y368749D01*
Y371251D01*
X425332Y373563D01*
X423563Y375332D01*
X421251Y376290D01*
X418749D01*
X416437Y375332D01*
X414989Y373885D01*
X306609D01*
X288885Y391609D01*
Y419045D01*
X293255D01*
Y435555D01*
D02*
G37*
G36*
X291270Y366282D02*
Y361270D01*
X296282D01*
X295332Y363563D01*
X293563Y365332D01*
X291270Y366282D01*
D02*
G37*
G36*
X288730D02*
X286437Y365332D01*
X284668Y363563D01*
X283718Y361270D01*
X288730D01*
Y366282D01*
D02*
G37*
G36*
X1261251Y431290D02*
X1258749D01*
X1256437Y430332D01*
X1254668Y428563D01*
X1253710Y426251D01*
Y423749D01*
X1254668Y421437D01*
X1256115Y419989D01*
Y376609D01*
X1223391Y343885D01*
X1025011D01*
X1023563Y345332D01*
X1021251Y346290D01*
X1018749D01*
X1016437Y345332D01*
X1014668Y343563D01*
X1013710Y341251D01*
Y338749D01*
X1014668Y336437D01*
X1016437Y334668D01*
X1018749Y333710D01*
X1021251D01*
X1023563Y334668D01*
X1025011Y336115D01*
X1225000D01*
X1226487Y336411D01*
X1227747Y337253D01*
X1262747Y372253D01*
X1263589Y373513D01*
X1263885Y375000D01*
Y419989D01*
X1265332Y421437D01*
X1266290Y423749D01*
Y426251D01*
X1265332Y428563D01*
X1263563Y430332D01*
X1261251Y431290D01*
D02*
G37*
G36*
X839704Y357323D02*
X826496D01*
X824109Y357009D01*
X821885Y356087D01*
X819974Y354622D01*
X818509Y352711D01*
X817587Y350487D01*
X817273Y348100D01*
X817587Y345713D01*
X818509Y343489D01*
X819974Y341578D01*
X821885Y340113D01*
X824109Y339191D01*
X826496Y338877D01*
X839704D01*
X842091Y339191D01*
X844315Y340113D01*
X846226Y341578D01*
X847691Y343489D01*
X848613Y345713D01*
X848927Y348100D01*
X848613Y350487D01*
X847691Y352711D01*
X846226Y354622D01*
X844315Y356087D01*
X842091Y357009D01*
X839704Y357323D01*
D02*
G37*
G36*
X571251Y486290D02*
X568749D01*
X566437Y485332D01*
X564668Y483563D01*
X563710Y481251D01*
Y478749D01*
X564668Y476437D01*
X566437Y474668D01*
X568749Y473710D01*
X570796D01*
X601115Y443391D01*
Y425011D01*
X599668Y423563D01*
X598710Y421251D01*
Y418749D01*
X599668Y416437D01*
X601437Y414668D01*
X603749Y413710D01*
X606251D01*
X608563Y414668D01*
X609115Y415220D01*
X611115Y414391D01*
Y345011D01*
X609668Y343563D01*
X608710Y341251D01*
Y338749D01*
X609668Y336437D01*
X611437Y334668D01*
X613749Y333710D01*
X616251D01*
X618563Y334668D01*
X620332Y336437D01*
X621290Y338749D01*
Y341251D01*
X620332Y343563D01*
X618885Y345011D01*
Y455000D01*
X618589Y456487D01*
X617747Y457747D01*
X601290Y474204D01*
Y476251D01*
X600332Y478563D01*
X598563Y480332D01*
X596251Y481290D01*
X593749D01*
X591437Y480332D01*
X589668Y478563D01*
X588710Y476251D01*
Y473749D01*
X589668Y471437D01*
X591437Y469668D01*
X593749Y468710D01*
X595796D01*
X611115Y453391D01*
Y427764D01*
X609115Y426695D01*
X608885Y426849D01*
Y445000D01*
X608589Y446487D01*
X607747Y447747D01*
X576290Y479204D01*
Y481251D01*
X575332Y483563D01*
X573563Y485332D01*
X571251Y486290D01*
D02*
G37*
G36*
X319370Y329649D02*
Y322470D01*
X326549D01*
X326011Y324477D01*
X324894Y326413D01*
X323313Y327994D01*
X321377Y329111D01*
X319370Y329649D01*
D02*
G37*
G36*
X296282Y358730D02*
X283718D01*
X284668Y356437D01*
X286115Y354989D01*
Y349300D01*
X286411Y347813D01*
X287253Y346553D01*
X310007Y323799D01*
X309651Y322470D01*
X316830D01*
Y329649D01*
X315501Y329293D01*
X293885Y350909D01*
Y354989D01*
X295332Y356437D01*
X296282Y358730D01*
D02*
G37*
G36*
X701251Y486290D02*
X698749D01*
X696437Y485332D01*
X694668Y483563D01*
X693710Y481251D01*
Y478749D01*
X694668Y476437D01*
X696115Y474989D01*
Y405011D01*
X694668Y403563D01*
X693710Y401251D01*
Y398749D01*
X694668Y396437D01*
X696115Y394989D01*
Y380000D01*
X696411Y378513D01*
X697253Y377253D01*
X716115Y358391D01*
Y321609D01*
X708391Y313885D01*
X705011D01*
X703563Y315332D01*
X701251Y316290D01*
X698749D01*
X696437Y315332D01*
X694668Y313563D01*
X693710Y311251D01*
Y308749D01*
X694668Y306437D01*
X696437Y304668D01*
X698749Y303710D01*
X701251D01*
X703563Y304668D01*
X705011Y306115D01*
X710000D01*
X711487Y306411D01*
X712747Y307253D01*
X722747Y317253D01*
X723589Y318513D01*
X723885Y320000D01*
Y360000D01*
X723589Y361487D01*
X722747Y362747D01*
X703885Y381609D01*
Y394989D01*
X705332Y396437D01*
X706290Y398749D01*
Y401251D01*
X705332Y403563D01*
X703885Y405011D01*
Y474989D01*
X705332Y476437D01*
X706290Y478749D01*
Y481251D01*
X705332Y483563D01*
X703563Y485332D01*
X701251Y486290D01*
D02*
G37*
G36*
X816251Y426290D02*
X813749D01*
X811437Y425332D01*
X809668Y423563D01*
X808710Y421251D01*
Y419204D01*
X802253Y412747D01*
X801411Y411487D01*
X801115Y410000D01*
Y390011D01*
X799668Y388563D01*
X798710Y386251D01*
Y383749D01*
X799668Y381437D01*
X801115Y379989D01*
Y344196D01*
X801411Y342709D01*
X802253Y341449D01*
X817888Y325814D01*
X817587Y325087D01*
X817273Y322700D01*
X817587Y320313D01*
X818509Y318088D01*
X819974Y316178D01*
X821885Y314713D01*
X824109Y313791D01*
X826496Y313477D01*
X839704D01*
X842091Y313791D01*
X844315Y314713D01*
X846226Y316178D01*
X847691Y318088D01*
X848613Y320313D01*
X848927Y322700D01*
X848613Y325087D01*
X847691Y327311D01*
X846226Y329222D01*
X844315Y330687D01*
X842091Y331609D01*
X839704Y331923D01*
X826496D01*
X824109Y331609D01*
X823382Y331308D01*
X808885Y345805D01*
Y379989D01*
X810332Y381437D01*
X811290Y383749D01*
Y386251D01*
X810332Y388563D01*
X808885Y390011D01*
Y408391D01*
X814204Y413710D01*
X816251D01*
X818563Y414668D01*
X820332Y416437D01*
X821290Y418749D01*
Y421251D01*
X820332Y423563D01*
X818563Y425332D01*
X816251Y426290D01*
D02*
G37*
G36*
X316830Y319930D02*
X309651D01*
X310189Y317923D01*
X311306Y315987D01*
X312887Y314406D01*
X314823Y313289D01*
X316830Y312751D01*
Y319930D01*
D02*
G37*
G36*
X243018Y329690D02*
X240782D01*
X238623Y329111D01*
X236687Y327994D01*
X235106Y326413D01*
X233989Y324477D01*
X233410Y322318D01*
Y320082D01*
X233989Y317923D01*
X235106Y315987D01*
X236687Y314406D01*
X238623Y313289D01*
X240782Y312710D01*
X243018D01*
X245177Y313289D01*
X247113Y314406D01*
X248694Y315987D01*
X249811Y317923D01*
X250390Y320082D01*
Y322318D01*
X249811Y324477D01*
X248694Y326413D01*
X247113Y327994D01*
X245177Y329111D01*
X243018Y329690D01*
D02*
G37*
G36*
X1211251Y311290D02*
X1208749D01*
X1206437Y310332D01*
X1204668Y308563D01*
X1203710Y306251D01*
Y304204D01*
X1198391Y298885D01*
X1146609D01*
X1141290Y304204D01*
Y306251D01*
X1140332Y308563D01*
X1138563Y310332D01*
X1136251Y311290D01*
X1133749D01*
X1131437Y310332D01*
X1129668Y308563D01*
X1128710Y306251D01*
Y303749D01*
X1129668Y301437D01*
X1131437Y299668D01*
X1133749Y298710D01*
X1135796D01*
X1142253Y292253D01*
X1143513Y291411D01*
X1145000Y291115D01*
X1200000D01*
X1201487Y291411D01*
X1202747Y292253D01*
X1209204Y298710D01*
X1211251D01*
X1213563Y299668D01*
X1215332Y301437D01*
X1216290Y303749D01*
Y306251D01*
X1215332Y308563D01*
X1213563Y310332D01*
X1211251Y311290D01*
D02*
G37*
G36*
X1461335Y315540D02*
X1458665D01*
X1456086Y314849D01*
X1453774Y313514D01*
X1451886Y311626D01*
X1450551Y309314D01*
X1449860Y306735D01*
Y304065D01*
X1450551Y301486D01*
X1451886Y299174D01*
X1453774Y297286D01*
X1456086Y295951D01*
X1458665Y295260D01*
X1461335D01*
X1463914Y295951D01*
X1466226Y297286D01*
X1468114Y299174D01*
X1469449Y301486D01*
X1470140Y304065D01*
Y306735D01*
X1469449Y309314D01*
X1468114Y311626D01*
X1466226Y313514D01*
X1463914Y314849D01*
X1461335Y315540D01*
D02*
G37*
G36*
X839704Y306523D02*
X826496D01*
X824109Y306209D01*
X821885Y305287D01*
X819974Y303822D01*
X818509Y301911D01*
X817587Y299687D01*
X817273Y297300D01*
X817587Y294913D01*
X818509Y292689D01*
X819974Y290778D01*
X821885Y289313D01*
X824109Y288391D01*
X826496Y288077D01*
X839704D01*
X842091Y288391D01*
X844315Y289313D01*
X846226Y290778D01*
X847691Y292689D01*
X848613Y294913D01*
X848927Y297300D01*
X848613Y299687D01*
X847691Y301911D01*
X846226Y303822D01*
X844315Y305287D01*
X842091Y306209D01*
X839704Y306523D01*
D02*
G37*
G36*
X736251Y396290D02*
X733749D01*
X731437Y395332D01*
X729668Y393563D01*
X728710Y391251D01*
Y388749D01*
X729668Y386437D01*
X731115Y384989D01*
Y323268D01*
X731411Y321782D01*
X732253Y320522D01*
X745429Y307346D01*
X745505Y306736D01*
X745104Y304842D01*
X743774Y303822D01*
X742309Y301911D01*
X741387Y299687D01*
X741073Y297300D01*
X741387Y294913D01*
X742309Y292689D01*
X743774Y290778D01*
X745685Y289313D01*
X747909Y288391D01*
X750296Y288077D01*
X763504D01*
X765891Y288391D01*
X768115Y289313D01*
X770026Y290778D01*
X771491Y292689D01*
X772413Y294913D01*
X772727Y297300D01*
X772413Y299687D01*
X771491Y301911D01*
X770026Y303822D01*
X768115Y305287D01*
X765891Y306209D01*
X763504Y306523D01*
X754439D01*
Y307714D01*
X754143Y309201D01*
X753301Y310461D01*
X752285Y311477D01*
X753113Y313477D01*
X763504D01*
X765891Y313791D01*
X768115Y314713D01*
X770026Y316178D01*
X771491Y318088D01*
X772413Y320313D01*
X772727Y322700D01*
X772413Y325087D01*
X771491Y327311D01*
X770026Y329222D01*
X768115Y330687D01*
X765891Y331609D01*
X763504Y331923D01*
X750296D01*
X747909Y331609D01*
X745685Y330687D01*
X743774Y329222D01*
X742309Y327311D01*
X742012Y326595D01*
X739570Y325925D01*
X738885Y326438D01*
Y384989D01*
X740332Y386437D01*
X741290Y388749D01*
Y391251D01*
X740332Y393563D01*
X738563Y395332D01*
X736251Y396290D01*
D02*
G37*
G36*
X319218Y304290D02*
X316982D01*
X314823Y303711D01*
X312887Y302594D01*
X311306Y301013D01*
X310189Y299077D01*
X309610Y296918D01*
Y294682D01*
X310189Y292523D01*
X311306Y290587D01*
X312887Y289006D01*
X314823Y287889D01*
X316982Y287310D01*
X319218D01*
X321377Y287889D01*
X323313Y289006D01*
X324894Y290587D01*
X326011Y292523D01*
X326590Y294682D01*
Y296918D01*
X326011Y299077D01*
X324894Y301013D01*
X323313Y302594D01*
X321377Y303711D01*
X319218Y304290D01*
D02*
G37*
G36*
X243018D02*
X240782D01*
X238623Y303711D01*
X236687Y302594D01*
X235106Y301013D01*
X233989Y299077D01*
X233410Y296918D01*
Y294682D01*
X233989Y292523D01*
X235106Y290587D01*
X236687Y289006D01*
X238623Y287889D01*
X240782Y287310D01*
X243018D01*
X245177Y287889D01*
X247113Y289006D01*
X248694Y290587D01*
X249811Y292523D01*
X250390Y294682D01*
Y296918D01*
X249811Y299077D01*
X248694Y301013D01*
X247113Y302594D01*
X245177Y303711D01*
X243018Y304290D01*
D02*
G37*
G36*
X1461335Y290140D02*
X1458665D01*
X1456086Y289449D01*
X1453774Y288114D01*
X1451886Y286226D01*
X1450551Y283914D01*
X1449860Y281335D01*
Y278665D01*
X1450551Y276086D01*
X1451886Y273774D01*
X1453774Y271886D01*
X1456086Y270551D01*
X1458665Y269860D01*
X1461335D01*
X1463914Y270551D01*
X1466226Y271886D01*
X1468114Y273774D01*
X1469449Y276086D01*
X1470140Y278665D01*
Y281335D01*
X1469449Y283914D01*
X1468114Y286226D01*
X1466226Y288114D01*
X1463914Y289449D01*
X1461335Y290140D01*
D02*
G37*
G36*
X839704Y281123D02*
X826496D01*
X824109Y280809D01*
X821885Y279887D01*
X819974Y278422D01*
X818509Y276511D01*
X817587Y274287D01*
X817273Y271900D01*
X817587Y269513D01*
X818509Y267288D01*
X819974Y265378D01*
X821885Y263913D01*
X824109Y262991D01*
X826496Y262677D01*
X839704D01*
X842091Y262991D01*
X844315Y263913D01*
X846226Y265378D01*
X847691Y267288D01*
X848613Y269513D01*
X848927Y271900D01*
X848613Y274287D01*
X847691Y276511D01*
X846226Y278422D01*
X844315Y279887D01*
X842091Y280809D01*
X839704Y281123D01*
D02*
G37*
G36*
X319218Y278890D02*
X316982D01*
X314823Y278311D01*
X312887Y277194D01*
X311306Y275613D01*
X310189Y273677D01*
X309610Y271518D01*
Y269282D01*
X310189Y267123D01*
X311306Y265187D01*
X312887Y263606D01*
X314823Y262489D01*
X316982Y261910D01*
X319218D01*
X321377Y262489D01*
X323313Y263606D01*
X324894Y265187D01*
X326011Y267123D01*
X326590Y269282D01*
Y271518D01*
X326011Y273677D01*
X324894Y275613D01*
X323313Y277194D01*
X321377Y278311D01*
X319218Y278890D01*
D02*
G37*
G36*
X243018D02*
X240782D01*
X238623Y278311D01*
X236687Y277194D01*
X235106Y275613D01*
X233989Y273677D01*
X233410Y271518D01*
Y269282D01*
X233989Y267123D01*
X235106Y265187D01*
X236687Y263606D01*
X238623Y262489D01*
X240782Y261910D01*
X243018D01*
X245177Y262489D01*
X247113Y263606D01*
X248694Y265187D01*
X249811Y267123D01*
X250390Y269282D01*
Y271518D01*
X249811Y273677D01*
X248694Y275613D01*
X247113Y277194D01*
X245177Y278311D01*
X243018Y278890D01*
D02*
G37*
G36*
X516251Y606290D02*
X513749D01*
X511437Y605332D01*
X509668Y603563D01*
X508710Y601251D01*
Y598749D01*
X509668Y596437D01*
X511115Y594989D01*
Y535000D01*
X511411Y533513D01*
X512253Y532253D01*
X526115Y518391D01*
Y516609D01*
X437253Y427747D01*
X436411Y426487D01*
X436115Y425000D01*
Y336609D01*
X370596Y271090D01*
X368549D01*
X366237Y270132D01*
X364468Y268363D01*
X363510Y266051D01*
Y263549D01*
X364468Y261237D01*
X366237Y259468D01*
X368549Y258510D01*
X371051D01*
X373363Y259468D01*
X375132Y261237D01*
X376090Y263549D01*
Y265596D01*
X442747Y332253D01*
X443589Y333513D01*
X443885Y335000D01*
Y423391D01*
X532747Y512253D01*
X533589Y513513D01*
X533885Y515000D01*
Y520000D01*
X533589Y521487D01*
X532747Y522747D01*
X518885Y536609D01*
Y594989D01*
X520332Y596437D01*
X521290Y598749D01*
Y601251D01*
X520332Y603563D01*
X518563Y605332D01*
X516251Y606290D01*
D02*
G37*
G36*
X565412Y262690D02*
X563388D01*
X561432Y262166D01*
X559678Y261154D01*
X558246Y259722D01*
X557234Y257968D01*
X556710Y256012D01*
Y253988D01*
X557234Y252032D01*
X558246Y250278D01*
X559678Y248846D01*
X561432Y247834D01*
X563388Y247310D01*
X565412D01*
X567368Y247834D01*
X569122Y248846D01*
X570554Y250278D01*
X571566Y252032D01*
X572090Y253988D01*
Y256012D01*
X571566Y257968D01*
X570554Y259722D01*
X569122Y261154D01*
X567368Y262166D01*
X565412Y262690D01*
D02*
G37*
G36*
X516612D02*
X514588D01*
X512632Y262166D01*
X510878Y261154D01*
X509446Y259722D01*
X508434Y257968D01*
X507910Y256012D01*
Y253988D01*
X508434Y252032D01*
X509446Y250278D01*
X510878Y248846D01*
X512632Y247834D01*
X514588Y247310D01*
X516612D01*
X518568Y247834D01*
X520322Y248846D01*
X521754Y250278D01*
X522766Y252032D01*
X523290Y253988D01*
Y256012D01*
X522766Y257968D01*
X521754Y259722D01*
X520322Y261154D01*
X518568Y262166D01*
X516612Y262690D01*
D02*
G37*
G36*
X319218Y253490D02*
X316982D01*
X314823Y252911D01*
X312887Y251794D01*
X311306Y250213D01*
X310189Y248277D01*
X309610Y246118D01*
Y243882D01*
X310189Y241723D01*
X311306Y239787D01*
X312887Y238206D01*
X314823Y237089D01*
X316982Y236510D01*
X319218D01*
X321377Y237089D01*
X323313Y238206D01*
X324894Y239787D01*
X326011Y241723D01*
X326590Y243882D01*
Y246118D01*
X326011Y248277D01*
X324894Y250213D01*
X323313Y251794D01*
X321377Y252911D01*
X319218Y253490D01*
D02*
G37*
G36*
X243018D02*
X240782D01*
X238623Y252911D01*
X236687Y251794D01*
X235106Y250213D01*
X233989Y248277D01*
X233410Y246118D01*
Y243882D01*
X233989Y241723D01*
X235106Y239787D01*
X236687Y238206D01*
X238623Y237089D01*
X240782Y236510D01*
X243018D01*
X245177Y237089D01*
X247113Y238206D01*
X248694Y239787D01*
X249811Y241723D01*
X250390Y243882D01*
Y246118D01*
X249811Y248277D01*
X248694Y250213D01*
X247113Y251794D01*
X245177Y252911D01*
X243018Y253490D01*
D02*
G37*
G36*
X396064Y233080D02*
X393936D01*
X391881Y232529D01*
X390039Y231466D01*
X388534Y229961D01*
X387471Y228119D01*
X386920Y226064D01*
Y223936D01*
X387471Y221881D01*
X388534Y220039D01*
X390039Y218534D01*
X391881Y217471D01*
X393936Y216920D01*
X396064D01*
X398119Y217471D01*
X399961Y218534D01*
X401466Y220039D01*
X402529Y221881D01*
X403080Y223936D01*
Y226064D01*
X402529Y228119D01*
X401466Y229961D01*
X399961Y231466D01*
X398119Y232529D01*
X396064Y233080D01*
D02*
G37*
G36*
X377680D02*
X361520D01*
Y216920D01*
X377680D01*
Y233080D01*
D02*
G37*
G36*
X1022399Y275480D02*
X1017601D01*
X1012863Y274729D01*
X1008300Y273247D01*
X1004025Y271069D01*
X1000144Y268249D01*
X996751Y264856D01*
X993931Y260975D01*
X991753Y256700D01*
X990270Y252137D01*
X989520Y247399D01*
Y242601D01*
X990270Y237863D01*
X991753Y233300D01*
X993931Y229025D01*
X996751Y225144D01*
X1000144Y221751D01*
X1004025Y218931D01*
X1008300Y216753D01*
X1012863Y215271D01*
X1017601Y214520D01*
X1022399D01*
X1027137Y215271D01*
X1031700Y216753D01*
X1035975Y218931D01*
X1039856Y221751D01*
X1043249Y225144D01*
X1046069Y229025D01*
X1048247Y233300D01*
X1049730Y237863D01*
X1050480Y242601D01*
Y247399D01*
X1049730Y252137D01*
X1048247Y256700D01*
X1046069Y260975D01*
X1043249Y264856D01*
X1039856Y268249D01*
X1035975Y271069D01*
X1031700Y273247D01*
X1027137Y274729D01*
X1022399Y275480D01*
D02*
G37*
G36*
X271251Y551290D02*
X268749D01*
X266437Y550332D01*
X264668Y548563D01*
X263710Y546251D01*
Y543749D01*
X264668Y541437D01*
X266115Y539989D01*
Y267700D01*
X266411Y266213D01*
X267253Y264953D01*
X310007Y222199D01*
X309610Y220718D01*
Y218482D01*
X310189Y216323D01*
X311306Y214387D01*
X312887Y212806D01*
X314823Y211689D01*
X316982Y211110D01*
X319218D01*
X321377Y211689D01*
X323313Y212806D01*
X324894Y214387D01*
X326011Y216323D01*
X326590Y218482D01*
Y220718D01*
X326011Y222877D01*
X324894Y224813D01*
X323313Y226394D01*
X321377Y227511D01*
X319218Y228090D01*
X316982D01*
X315501Y227693D01*
X273885Y269309D01*
Y539989D01*
X275332Y541437D01*
X276290Y543749D01*
Y546251D01*
X275332Y548563D01*
X273563Y550332D01*
X271251Y551290D01*
D02*
G37*
G36*
X243018Y228090D02*
X240782D01*
X238623Y227511D01*
X236687Y226394D01*
X235106Y224813D01*
X233989Y222877D01*
X233410Y220718D01*
Y218482D01*
X233989Y216323D01*
X235106Y214387D01*
X236687Y212806D01*
X238623Y211689D01*
X240782Y211110D01*
X243018D01*
X245177Y211689D01*
X247113Y212806D01*
X248694Y214387D01*
X249811Y216323D01*
X250390Y218482D01*
Y220718D01*
X249811Y222877D01*
X248694Y224813D01*
X247113Y226394D01*
X245177Y227511D01*
X243018Y228090D01*
D02*
G37*
G36*
X1431251Y451290D02*
X1428749D01*
X1426437Y450332D01*
X1424668Y448563D01*
X1423710Y446251D01*
Y443749D01*
X1424668Y441437D01*
X1426115Y439989D01*
Y225000D01*
X1426411Y223513D01*
X1427253Y222253D01*
X1446031Y203475D01*
X1447291Y202633D01*
X1448778Y202338D01*
X1449894D01*
X1450551Y199886D01*
X1451886Y197574D01*
X1453774Y195686D01*
X1456086Y194351D01*
X1458665Y193660D01*
X1461335D01*
X1463914Y194351D01*
X1466226Y195686D01*
X1468114Y197574D01*
X1469449Y199886D01*
X1470140Y202465D01*
Y205135D01*
X1469449Y207714D01*
X1468114Y210026D01*
X1466226Y211914D01*
X1463914Y213249D01*
X1461335Y213940D01*
X1458665D01*
X1456086Y213249D01*
X1453774Y211914D01*
X1451967Y210107D01*
X1450387D01*
X1433885Y226609D01*
Y439989D01*
X1435332Y441437D01*
X1436290Y443749D01*
Y446251D01*
X1435332Y448563D01*
X1433563Y450332D01*
X1431251Y451290D01*
D02*
G37*
G36*
X319218Y202690D02*
X316982D01*
X314823Y202111D01*
X312887Y200994D01*
X311306Y199413D01*
X310189Y197477D01*
X309610Y195318D01*
Y193082D01*
X310189Y190923D01*
X311306Y188987D01*
X312887Y187406D01*
X314823Y186289D01*
X316982Y185710D01*
X319218D01*
X321377Y186289D01*
X323313Y187406D01*
X324894Y188987D01*
X326011Y190923D01*
X326590Y193082D01*
Y195318D01*
X326011Y197477D01*
X324894Y199413D01*
X323313Y200994D01*
X321377Y202111D01*
X319218Y202690D01*
D02*
G37*
G36*
X243018D02*
X240782D01*
X238623Y202111D01*
X236687Y200994D01*
X235106Y199413D01*
X233989Y197477D01*
X233410Y195318D01*
Y193082D01*
X233989Y190923D01*
X235106Y188987D01*
X236687Y187406D01*
X238623Y186289D01*
X240782Y185710D01*
X243018D01*
X245177Y186289D01*
X247113Y187406D01*
X248694Y188987D01*
X249811Y190923D01*
X250390Y193082D01*
Y195318D01*
X249811Y197477D01*
X248694Y199413D01*
X247113Y200994D01*
X245177Y202111D01*
X243018Y202690D01*
D02*
G37*
G36*
X146087Y195955D02*
X143913D01*
X141814Y195392D01*
X139931Y194306D01*
X138394Y192769D01*
X137308Y190886D01*
X136745Y188787D01*
Y186613D01*
X137308Y184514D01*
X138394Y182631D01*
X139931Y181094D01*
X141814Y180008D01*
X143913Y179445D01*
X146087D01*
X148186Y180008D01*
X150069Y181094D01*
X151606Y182631D01*
X152692Y184514D01*
X153255Y186613D01*
Y188787D01*
X152692Y190886D01*
X151606Y192769D01*
X150069Y194306D01*
X148186Y195392D01*
X146087Y195955D01*
D02*
G37*
G36*
X101087D02*
X98913D01*
X96814Y195392D01*
X94931Y194306D01*
X93394Y192769D01*
X92308Y190886D01*
X91745Y188787D01*
Y186613D01*
X92308Y184514D01*
X93394Y182631D01*
X94931Y181094D01*
X96814Y180008D01*
X98913Y179445D01*
X101087D01*
X103186Y180008D01*
X105069Y181094D01*
X106606Y182631D01*
X107692Y184514D01*
X108255Y186613D01*
Y188787D01*
X107692Y190886D01*
X106606Y192769D01*
X105069Y194306D01*
X103186Y195392D01*
X101087Y195955D01*
D02*
G37*
G36*
X56087D02*
X53913D01*
X51814Y195392D01*
X49931Y194306D01*
X48394Y192769D01*
X47308Y190886D01*
X46745Y188787D01*
Y186613D01*
X47308Y184514D01*
X48394Y182631D01*
X49931Y181094D01*
X51814Y180008D01*
X53913Y179445D01*
X56087D01*
X58186Y180008D01*
X60069Y181094D01*
X61606Y182631D01*
X62692Y184514D01*
X63255Y186613D01*
Y188787D01*
X62692Y190886D01*
X61606Y192769D01*
X60069Y194306D01*
X58186Y195392D01*
X56087Y195955D01*
D02*
G37*
G36*
X143730Y170555D02*
X136745D01*
Y166185D01*
X108255D01*
Y170555D01*
X101270D01*
Y162300D01*
Y154045D01*
X108255D01*
Y158415D01*
X136745D01*
Y154045D01*
X143730D01*
Y162300D01*
Y170555D01*
D02*
G37*
G36*
X98730D02*
X91745D01*
Y166185D01*
X63255D01*
Y170555D01*
X56270D01*
Y162300D01*
Y154045D01*
X63255D01*
Y158415D01*
X91745D01*
Y154045D01*
X98730D01*
Y162300D01*
Y170555D01*
D02*
G37*
G36*
X53730D02*
X46745D01*
Y163570D01*
X53730D01*
Y170555D01*
D02*
G37*
G36*
X326590Y177290D02*
X309610D01*
Y160310D01*
X326590D01*
Y177290D01*
D02*
G37*
G36*
X56195Y409080D02*
X53805D01*
X51495Y408461D01*
X49425Y407266D01*
X47734Y405575D01*
X46539Y403505D01*
X45920Y401195D01*
Y398805D01*
X46539Y396495D01*
X47734Y394425D01*
X49425Y392734D01*
X51495Y391539D01*
X53570Y390983D01*
X53631Y390491D01*
Y389509D01*
X53570Y389017D01*
X51495Y388461D01*
X49425Y387266D01*
X47734Y385575D01*
X46539Y383505D01*
X45920Y381195D01*
Y378805D01*
X46539Y376495D01*
X47734Y374425D01*
X49425Y372734D01*
X51495Y371539D01*
X53570Y370983D01*
X53631Y370490D01*
Y369510D01*
X53570Y369017D01*
X51495Y368461D01*
X49425Y367266D01*
X47734Y365575D01*
X46539Y363505D01*
X45920Y361195D01*
Y358805D01*
X46539Y356495D01*
X47734Y354425D01*
X49425Y352734D01*
X51495Y351539D01*
X53570Y350983D01*
X53631Y350490D01*
Y349510D01*
X53570Y349017D01*
X51495Y348461D01*
X49425Y347266D01*
X47734Y345575D01*
X46539Y343505D01*
X45920Y341195D01*
Y338805D01*
X46539Y336495D01*
X47734Y334425D01*
X49425Y332734D01*
X51495Y331539D01*
X53208Y331080D01*
X52944Y329080D01*
X45920D01*
Y316414D01*
X27253Y297747D01*
X26411Y296487D01*
X26115Y295000D01*
Y226488D01*
X26411Y225001D01*
X27253Y223741D01*
X28741Y222253D01*
X30001Y221411D01*
X31488Y221115D01*
X184091D01*
X233807Y171399D01*
X233410Y169918D01*
Y167682D01*
X233989Y165523D01*
X235106Y163587D01*
X236687Y162006D01*
X238623Y160889D01*
X240782Y160310D01*
X243018D01*
X245177Y160889D01*
X247113Y162006D01*
X248694Y163587D01*
X249811Y165523D01*
X250390Y167682D01*
Y169918D01*
X249811Y172077D01*
X248694Y174013D01*
X247113Y175594D01*
X245177Y176711D01*
X243018Y177290D01*
X240782D01*
X239301Y176893D01*
X188447Y227747D01*
X187187Y228589D01*
X185700Y228885D01*
X33885D01*
Y293391D01*
X51414Y310920D01*
X64080D01*
Y329080D01*
X57056D01*
X56792Y331080D01*
X58505Y331539D01*
X60575Y332734D01*
X62266Y334425D01*
X63461Y336495D01*
X64080Y338805D01*
Y341195D01*
X63461Y343505D01*
X62266Y345575D01*
X60575Y347266D01*
X58505Y348461D01*
X56430Y349017D01*
X56369Y349510D01*
Y350490D01*
X56430Y350983D01*
X58505Y351539D01*
X60575Y352734D01*
X62266Y354425D01*
X63461Y356495D01*
X64080Y358805D01*
Y361195D01*
X63461Y363505D01*
X62266Y365575D01*
X60575Y367266D01*
X58505Y368461D01*
X56430Y369017D01*
X56369Y369510D01*
Y370490D01*
X56430Y370983D01*
X58505Y371539D01*
X60575Y372734D01*
X62266Y374425D01*
X63461Y376495D01*
X64080Y378805D01*
Y381195D01*
X63461Y383505D01*
X62266Y385575D01*
X60575Y387266D01*
X58505Y388461D01*
X56430Y389017D01*
X56369Y389509D01*
Y390491D01*
X56430Y390983D01*
X58505Y391539D01*
X60575Y392734D01*
X62266Y394425D01*
X63461Y396495D01*
X64080Y398805D01*
Y401195D01*
X63461Y403505D01*
X62266Y405575D01*
X60575Y407266D01*
X58505Y408461D01*
X56195Y409080D01*
D02*
G37*
G36*
X53730Y161030D02*
X46745D01*
Y154045D01*
X53730D01*
Y161030D01*
D02*
G37*
G36*
X326549Y319930D02*
X319370D01*
Y312751D01*
X320699Y313107D01*
X322593Y311214D01*
X323853Y310372D01*
X325339Y310076D01*
X332943D01*
X336115Y306903D01*
Y153885D01*
X211609D01*
X200447Y165047D01*
X199187Y165889D01*
X197700Y166185D01*
X153255D01*
Y170555D01*
X146270D01*
Y162300D01*
Y154045D01*
X153255D01*
Y158415D01*
X196091D01*
X207253Y147253D01*
X208513Y146411D01*
X210000Y146115D01*
X338512D01*
X339999Y146411D01*
X341259Y147253D01*
X342747Y148741D01*
X343589Y150001D01*
X343885Y151488D01*
Y308512D01*
X343589Y309999D01*
X342747Y311259D01*
X337298Y316707D01*
X336038Y317549D01*
X334552Y317845D01*
X327942D01*
X326474Y319649D01*
X326549Y319930D01*
D02*
G37*
G36*
X1291251Y551290D02*
X1288749D01*
X1286437Y550332D01*
X1284668Y548563D01*
X1283710Y546251D01*
Y543749D01*
X1284668Y541437D01*
X1284705Y541399D01*
Y146777D01*
X1282746Y146235D01*
X1282705Y146235D01*
X1280826Y148114D01*
X1278514Y149449D01*
X1275935Y150140D01*
X1273265D01*
X1270686Y149449D01*
X1268374Y148114D01*
X1266486Y146226D01*
X1265151Y143914D01*
X1264460Y141335D01*
Y138665D01*
X1265151Y136086D01*
X1266486Y133774D01*
X1268374Y131886D01*
X1270686Y130551D01*
X1273265Y129860D01*
X1275935D01*
X1278514Y130551D01*
X1280826Y131886D01*
X1282705Y133765D01*
X1282746Y133765D01*
X1284705Y133223D01*
Y50268D01*
X1282914Y49234D01*
X1280766Y47086D01*
X1279247Y44454D01*
X1278460Y41519D01*
Y38481D01*
X1279247Y35546D01*
X1280766Y32914D01*
X1282914Y30766D01*
X1285546Y29246D01*
X1288481Y28460D01*
X1291519D01*
X1294454Y29246D01*
X1297086Y30766D01*
X1299234Y32914D01*
X1300754Y35546D01*
X1301540Y38481D01*
Y41519D01*
X1300754Y44454D01*
X1299234Y47086D01*
X1297086Y49234D01*
X1294454Y50753D01*
X1292475Y51284D01*
Y130544D01*
X1294475Y131481D01*
X1296086Y130551D01*
X1298665Y129860D01*
X1301335D01*
X1303914Y130551D01*
X1306226Y131886D01*
X1308114Y133774D01*
X1309449Y136086D01*
X1310140Y138665D01*
Y141335D01*
X1309449Y143914D01*
X1308114Y146226D01*
X1306226Y148114D01*
X1303914Y149449D01*
X1301335Y150140D01*
X1298665D01*
X1296086Y149449D01*
X1294475Y148519D01*
X1292475Y149456D01*
Y539217D01*
X1293563Y539668D01*
X1295332Y541437D01*
X1296290Y543749D01*
Y546251D01*
X1295332Y548563D01*
X1293563Y550332D01*
X1291251Y551290D01*
D02*
G37*
G36*
X421464Y233080D02*
X419336D01*
X417281Y232529D01*
X415439Y231466D01*
X413934Y229961D01*
X412871Y228119D01*
X412320Y226064D01*
Y223936D01*
X412871Y221881D01*
X413934Y220039D01*
X415439Y218534D01*
X416515Y217913D01*
Y155942D01*
X416811Y154456D01*
X417653Y153195D01*
X418970Y151879D01*
X418710Y151251D01*
Y148749D01*
X419668Y146437D01*
X421437Y144668D01*
X423749Y143710D01*
X426251D01*
X428563Y144668D01*
X430332Y146437D01*
X431290Y148749D01*
Y151251D01*
X430332Y153563D01*
X428563Y155332D01*
X426251Y156290D01*
X425546D01*
X424285Y157551D01*
Y217913D01*
X425361Y218534D01*
X426866Y220039D01*
X427929Y221881D01*
X428480Y223936D01*
Y226064D01*
X427929Y228119D01*
X426866Y229961D01*
X425361Y231466D01*
X423519Y232529D01*
X421464Y233080D01*
D02*
G37*
G36*
X1250535Y150140D02*
X1247865D01*
X1245286Y149449D01*
X1242974Y148114D01*
X1241086Y146226D01*
X1239751Y143914D01*
X1239060Y141335D01*
Y138665D01*
X1239751Y136086D01*
X1241086Y133774D01*
X1242974Y131886D01*
X1245286Y130551D01*
X1247865Y129860D01*
X1250535D01*
X1253114Y130551D01*
X1255426Y131886D01*
X1257314Y133774D01*
X1258649Y136086D01*
X1259340Y138665D01*
Y141335D01*
X1258649Y143914D01*
X1257314Y146226D01*
X1255426Y148114D01*
X1253114Y149449D01*
X1250535Y150140D01*
D02*
G37*
G36*
X1225135D02*
X1222465D01*
X1219886Y149449D01*
X1217574Y148114D01*
X1215686Y146226D01*
X1214351Y143914D01*
X1213660Y141335D01*
Y138665D01*
X1214351Y136086D01*
X1215686Y133774D01*
X1217574Y131886D01*
X1219886Y130551D01*
X1222465Y129860D01*
X1225135D01*
X1227714Y130551D01*
X1230026Y131886D01*
X1231914Y133774D01*
X1233249Y136086D01*
X1233940Y138665D01*
Y141335D01*
X1233249Y143914D01*
X1231914Y146226D01*
X1230026Y148114D01*
X1227714Y149449D01*
X1225135Y150140D01*
D02*
G37*
G36*
X1354600Y150264D02*
X1347000D01*
X1344526Y149772D01*
X1342429Y148371D01*
X1341028Y146274D01*
X1340536Y143800D01*
Y136200D01*
X1341028Y133726D01*
X1342429Y131629D01*
X1344526Y130228D01*
X1347000Y129736D01*
X1354600D01*
X1357074Y130228D01*
X1359171Y131629D01*
X1360572Y133726D01*
X1361064Y136200D01*
Y143800D01*
X1360572Y146274D01*
X1359171Y148371D01*
X1357074Y149772D01*
X1354600Y150264D01*
D02*
G37*
G36*
X1251540Y51540D02*
X1228460D01*
Y28460D01*
X1251540D01*
Y51540D01*
D02*
G37*
G36*
X1071519D02*
X1068481D01*
X1065546Y50753D01*
X1062914Y49234D01*
X1060766Y47086D01*
X1059246Y44454D01*
X1058460Y41519D01*
Y38481D01*
X1059246Y35546D01*
X1060766Y32914D01*
X1062914Y30766D01*
X1065546Y29246D01*
X1068481Y28460D01*
X1071519D01*
X1074454Y29246D01*
X1077086Y30766D01*
X1079234Y32914D01*
X1080753Y35546D01*
X1081540Y38481D01*
Y41519D01*
X1080753Y44454D01*
X1079234Y47086D01*
X1077086Y49234D01*
X1074454Y50753D01*
X1071519Y51540D01*
D02*
G37*
G36*
X1021519D02*
X1018481D01*
X1015546Y50753D01*
X1012914Y49234D01*
X1010766Y47086D01*
X1009246Y44454D01*
X1008460Y41519D01*
Y38481D01*
X1009246Y35546D01*
X1010766Y32914D01*
X1012914Y30766D01*
X1015546Y29246D01*
X1018481Y28460D01*
X1021519D01*
X1024454Y29246D01*
X1027086Y30766D01*
X1029234Y32914D01*
X1030753Y35546D01*
X1031540Y38481D01*
Y41519D01*
X1030753Y44454D01*
X1029234Y47086D01*
X1027086Y49234D01*
X1024454Y50753D01*
X1021519Y51540D01*
D02*
G37*
G36*
X981540D02*
X958460D01*
Y28460D01*
X981540D01*
Y51540D01*
D02*
G37*
G36*
X801519D02*
X798481D01*
X795546Y50753D01*
X792914Y49234D01*
X790766Y47086D01*
X789247Y44454D01*
X788460Y41519D01*
Y38481D01*
X789247Y35546D01*
X790766Y32914D01*
X792914Y30766D01*
X795546Y29246D01*
X798481Y28460D01*
X801519D01*
X804454Y29246D01*
X807086Y30766D01*
X809234Y32914D01*
X810753Y35546D01*
X811540Y38481D01*
Y41519D01*
X810753Y44454D01*
X809234Y47086D01*
X807086Y49234D01*
X804454Y50753D01*
X801519Y51540D01*
D02*
G37*
G36*
X616355Y594890D02*
X613645D01*
X611028Y594189D01*
X608682Y592834D01*
X606766Y590918D01*
X605411Y588572D01*
X604710Y585955D01*
Y583245D01*
X605411Y580628D01*
X606766Y578282D01*
X608682Y576366D01*
X611028Y575011D01*
X613645Y574310D01*
X616355D01*
X618972Y575011D01*
X619050Y575056D01*
X678376Y515730D01*
Y287739D01*
X678672Y286253D01*
X679514Y284992D01*
X746115Y218391D01*
Y50906D01*
X745546Y50753D01*
X742914Y49234D01*
X740766Y47086D01*
X739247Y44454D01*
X738460Y41519D01*
Y38481D01*
X739247Y35546D01*
X740766Y32914D01*
X742914Y30766D01*
X745546Y29246D01*
X748481Y28460D01*
X751519D01*
X754454Y29246D01*
X757086Y30766D01*
X759234Y32914D01*
X760753Y35546D01*
X761540Y38481D01*
Y41519D01*
X760753Y44454D01*
X759234Y47086D01*
X757086Y49234D01*
X754454Y50753D01*
X753885Y50906D01*
Y220000D01*
X753589Y221487D01*
X752747Y222747D01*
X686145Y289348D01*
Y517339D01*
X685850Y518826D01*
X685008Y520086D01*
X624544Y580550D01*
X624589Y580628D01*
X625290Y583245D01*
Y585955D01*
X624589Y588572D01*
X623234Y590918D01*
X621318Y592834D01*
X618972Y594189D01*
X616355Y594890D01*
D02*
G37*
G36*
X711540Y51540D02*
X688460D01*
Y28460D01*
X711540D01*
Y51540D01*
D02*
G37*
G36*
X531519D02*
X528481D01*
X525546Y50753D01*
X522914Y49234D01*
X520766Y47086D01*
X519246Y44454D01*
X518460Y41519D01*
Y38481D01*
X519246Y35546D01*
X520766Y32914D01*
X522914Y30766D01*
X525546Y29246D01*
X528481Y28460D01*
X531519D01*
X534454Y29246D01*
X537086Y30766D01*
X539234Y32914D01*
X540754Y35546D01*
X541540Y38481D01*
Y41519D01*
X540754Y44454D01*
X539234Y47086D01*
X537086Y49234D01*
X534454Y50753D01*
X531519Y51540D01*
D02*
G37*
G36*
X426251Y111290D02*
X423749D01*
X421437Y110332D01*
X419668Y108563D01*
X418710Y106251D01*
Y103749D01*
X419668Y101437D01*
X421437Y99668D01*
X423749Y98710D01*
X425105D01*
X426115Y97699D01*
Y51540D01*
X418460D01*
Y28460D01*
X441540D01*
Y51540D01*
X433885D01*
Y99309D01*
X433589Y100795D01*
X432747Y102055D01*
X431221Y103582D01*
X431290Y103749D01*
Y106251D01*
X430332Y108563D01*
X428563Y110332D01*
X426251Y111290D01*
D02*
G37*
G36*
X261519Y51540D02*
X258481D01*
X255546Y50753D01*
X252914Y49234D01*
X250766Y47086D01*
X249247Y44454D01*
X248460Y41519D01*
Y38481D01*
X249247Y35546D01*
X250766Y32914D01*
X252914Y30766D01*
X255546Y29246D01*
X258481Y28460D01*
X261519D01*
X264454Y29246D01*
X267086Y30766D01*
X269234Y32914D01*
X270754Y35546D01*
X271540Y38481D01*
Y41519D01*
X270754Y44454D01*
X269234Y47086D01*
X267086Y49234D01*
X264454Y50753D01*
X261519Y51540D01*
D02*
G37*
G36*
X171540D02*
X148460D01*
Y28460D01*
X171540D01*
Y51540D01*
D02*
G37*
%LPD*%
G36*
X546437Y434668D02*
X548749Y433710D01*
X550796D01*
X561115Y423391D01*
Y375011D01*
X559668Y373563D01*
X558710Y371251D01*
Y368749D01*
X559382Y367127D01*
X557873Y365618D01*
X556251Y366290D01*
X553749D01*
X551437Y365332D01*
X549714Y363609D01*
X520333D01*
X519505Y365609D01*
X520332Y366437D01*
X521290Y368749D01*
Y371251D01*
X520332Y373563D01*
X518885Y375011D01*
Y428391D01*
X526609Y436115D01*
X544989D01*
X546437Y434668D01*
D02*
G37*
D10*
X250000Y685000D02*
Y730000D01*
X350242Y584758D02*
X460308D01*
X250000Y685000D02*
X350242Y584758D01*
X505000Y360000D02*
X555000D01*
D15*
X290000Y349300D02*
Y360000D01*
Y349300D02*
X318100Y321200D01*
X344200Y615800D02*
X350000Y610000D01*
X344200Y615800D02*
Y660000D01*
X318100Y321200D02*
X325339Y313961D01*
X334552D01*
X340000Y308512D01*
Y151488D02*
Y308512D01*
X338512Y150000D02*
X340000Y151488D01*
X210000Y150000D02*
X338512D01*
X197700Y162300D02*
X210000Y150000D01*
X145000Y162300D02*
X197700D01*
X210000Y40000D02*
X305000Y135000D01*
X448512D01*
X100000Y162300D02*
X145000D01*
X55000D02*
X100000D01*
X330000Y674200D02*
X344200Y660000D01*
X330000Y674200D02*
Y710000D01*
X350000Y730000D01*
X1040000Y600000D02*
X1050000Y610000D01*
X1140000D01*
X700000Y380000D02*
Y400000D01*
Y380000D02*
X720000Y360000D01*
Y320000D02*
Y360000D01*
X710000Y310000D02*
X720000Y320000D01*
X700000Y310000D02*
X710000D01*
X682261Y287739D02*
X750000Y220000D01*
Y40000D02*
Y220000D01*
X682261Y287739D02*
Y517339D01*
X430000Y40000D02*
Y99309D01*
X425000Y104309D02*
X430000Y99309D01*
X425000Y104309D02*
Y105000D01*
X451666Y695000D02*
X460308Y686358D01*
X404600Y695000D02*
X451666D01*
X369600Y660000D02*
X404600Y695000D01*
X180000Y655000D02*
Y680000D01*
X230000Y730000D01*
X187700Y427300D02*
X215000D01*
X180000Y435000D02*
X187700Y427300D01*
X180000Y435000D02*
Y470000D01*
X200000Y490000D01*
X225000D01*
X235000Y500000D01*
Y535000D01*
X260000Y560000D01*
Y630000D01*
X230000Y660000D02*
X260000Y630000D01*
X230000Y660000D02*
Y730000D01*
X285000Y390000D02*
Y427300D01*
Y390000D02*
X305000Y370000D01*
X420000D01*
X475000Y350000D02*
Y379309D01*
X480000Y384309D01*
Y385000D01*
X465000Y410000D02*
X555000Y500000D01*
X465000Y55000D02*
Y410000D01*
Y55000D02*
X480000Y40000D01*
X420400Y155942D02*
Y225000D01*
Y155942D02*
X425000Y151342D01*
Y150000D02*
Y151342D01*
X1460000Y229200D02*
X1480000Y209200D01*
Y111488D02*
Y209200D01*
X1478512Y110000D02*
X1480000Y111488D01*
X1355000Y110000D02*
X1478512D01*
X1340000Y95000D02*
X1355000Y110000D01*
X1325000Y139600D02*
X1325400Y140000D01*
X1325000Y110000D02*
Y139600D01*
Y110000D02*
X1340000Y95000D01*
Y40000D02*
Y95000D01*
X700000Y400000D02*
Y480000D01*
X615000Y584600D02*
X682261Y517339D01*
X615000Y559200D02*
X670000Y504200D01*
Y390000D02*
Y504200D01*
X752700Y642700D02*
X756900D01*
X730000Y620000D02*
X752700Y642700D01*
X730000Y585000D02*
Y620000D01*
Y585000D02*
X755000Y560000D01*
X875000Y575000D02*
X890000Y560000D01*
X875000Y575000D02*
Y655000D01*
X865000Y665000D02*
X875000Y655000D01*
X862300Y642700D02*
X865000Y640000D01*
Y505000D02*
Y640000D01*
X935000Y490000D02*
X945000D01*
X930000Y495000D02*
X935000Y490000D01*
X930000Y495000D02*
Y520000D01*
X890000Y560000D02*
X930000Y520000D01*
X1135000Y510000D02*
X1160000D01*
X1200000Y295000D02*
X1210000Y305000D01*
X1145000Y295000D02*
X1200000D01*
X1135000Y305000D02*
X1145000Y295000D01*
X1070000Y405000D02*
X1160000D01*
X1188948Y433948D01*
X1350000Y490000D02*
Y504500D01*
Y490000D02*
X1360000Y480000D01*
X1375000D01*
X1410000Y445000D01*
Y228400D02*
Y445000D01*
Y228400D02*
X1460000Y178400D01*
X1457578Y206222D02*
X1460000Y203800D01*
X1448778Y206222D02*
X1457578D01*
X1430000Y225000D02*
X1448778Y206222D01*
X1430000Y225000D02*
Y445000D01*
X1260000Y375000D02*
Y425000D01*
X1225000Y340000D02*
X1260000Y375000D01*
X1020000Y340000D02*
X1225000D01*
X30000Y295000D02*
X55000Y320000D01*
X30000Y226488D02*
Y295000D01*
Y226488D02*
X31488Y225000D01*
X185700D01*
X241900Y168800D01*
X776900Y518100D02*
X780000Y521200D01*
X756900Y518100D02*
X776900D01*
X753100D02*
X756900D01*
X720000Y485000D02*
X753100Y518100D01*
X720000Y425000D02*
Y485000D01*
Y425000D02*
X756900Y388100D01*
Y348100D02*
Y388100D01*
X755000Y401488D02*
Y440000D01*
X756488Y400000D02*
X765000D01*
X755000Y401488D02*
X756488Y400000D01*
X780000Y521200D02*
Y665000D01*
X776900Y668100D02*
X780000Y665000D01*
X756900Y668100D02*
X776900D01*
X780000Y275000D02*
Y385000D01*
X735000Y323268D02*
Y390000D01*
X765000Y400000D02*
X780000Y385000D01*
X756900Y271900D02*
X776900D01*
X780000Y275000D01*
X1170000Y543277D02*
Y635000D01*
Y543277D02*
X1188948Y524329D01*
Y433948D02*
Y524329D01*
X1209440Y468702D02*
X1209720Y468982D01*
Y664720D01*
X1210000Y665000D01*
X1288590Y543590D02*
X1290000Y545000D01*
X1288590Y41410D02*
Y543590D01*
Y41410D02*
X1290000Y40000D01*
X833100Y492700D02*
X852700D01*
X865000Y505000D01*
X833100Y642700D02*
X862300D01*
X755000Y440000D02*
X756900Y441900D01*
X805000Y344196D02*
Y385000D01*
Y344196D02*
X826496Y322700D01*
X833100D01*
X735000Y323268D02*
X750554Y307714D01*
Y302228D02*
Y307714D01*
Y302228D02*
X755482Y297300D01*
X756900D01*
X605000Y420000D02*
Y445000D01*
X805000Y410000D02*
X815000Y420000D01*
X805000Y385000D02*
Y410000D01*
X570000Y480000D02*
X605000Y445000D01*
X615000Y340000D02*
Y455000D01*
X515000Y535000D02*
Y600000D01*
Y535000D02*
X530000Y520000D01*
Y515000D02*
Y520000D01*
X440000Y425000D02*
X530000Y515000D01*
X440000Y335000D02*
Y425000D01*
X369800Y264800D02*
X440000Y335000D01*
X595000Y475000D02*
X615000Y455000D01*
X550000Y440000D02*
X565000Y425000D01*
Y370000D02*
Y425000D01*
X525000Y440000D02*
X550000D01*
X515000Y430000D02*
X525000Y440000D01*
X515000Y370000D02*
Y430000D01*
X270000Y267700D02*
Y545000D01*
Y267700D02*
X318100Y219600D01*
X615000Y635000D02*
Y635400D01*
X540000Y560000D02*
X615000Y635000D01*
X540000Y510000D02*
Y560000D01*
X450000Y420000D02*
X540000Y510000D01*
X450000Y136488D02*
Y420000D01*
X448512Y135000D02*
X450000Y136488D01*
X555000Y500000D02*
Y550000D01*
X615000Y610000D01*
D51*
X995000Y775000D02*
X995000Y775000D01*
Y515000D02*
Y775000D01*
X995000Y775000D02*
X1134142D01*
X980858Y405000D02*
X1030000D01*
X975000Y410858D02*
X980858Y405000D01*
X975000Y410858D02*
Y495000D01*
X995000Y515000D01*
X1110000D01*
X1030000Y405000D02*
X1050000D01*
X1065000Y420000D01*
X1110000D01*
X1135000D01*
X1460000Y254600D02*
X1460400Y255000D01*
X1479142D01*
X1485000Y260858D01*
Y330000D01*
X1470000Y345000D02*
X1485000Y330000D01*
X1470000Y345000D02*
Y630000D01*
X1327929Y772071D02*
X1470000Y630000D01*
X1137071Y772071D02*
X1327929D01*
X460308Y711758D02*
Y764692D01*
X450000Y775000D02*
X460308Y764692D01*
X450000Y775000D02*
X995000D01*
X1134142D02*
X1137071Y772071D01*
D53*
X1184200Y695000D02*
D03*
X1055000D02*
D03*
D54*
X1235000D02*
D03*
X1105800D02*
D03*
D55*
X1020000Y245000D02*
D03*
X1440000Y60000D02*
D03*
Y740000D02*
D03*
X63500Y63500D02*
D03*
X60000Y740000D02*
D03*
D56*
X756900Y668100D02*
D03*
Y642700D02*
D03*
X833100D02*
D03*
Y668100D02*
D03*
X756900Y617300D02*
D03*
Y591900D02*
D03*
X833100Y617300D02*
D03*
Y591900D02*
D03*
X756900Y518100D02*
D03*
Y492700D02*
D03*
X833100D02*
D03*
Y518100D02*
D03*
X756900Y467300D02*
D03*
Y441900D02*
D03*
X833100Y467300D02*
D03*
Y441900D02*
D03*
X756900Y348100D02*
D03*
Y322700D02*
D03*
X833100D02*
D03*
Y348100D02*
D03*
X756900Y297300D02*
D03*
Y271900D02*
D03*
X833100Y297300D02*
D03*
Y271900D02*
D03*
D57*
X460308Y711758D02*
D03*
X615000Y711600D02*
D03*
D58*
X460308Y686358D02*
D03*
Y660958D02*
D03*
Y635559D02*
D03*
Y610159D02*
D03*
Y584758D02*
D03*
Y559358D02*
D03*
Y533959D02*
D03*
Y508559D02*
D03*
X615000Y686200D02*
D03*
Y660800D02*
D03*
Y635400D02*
D03*
Y610000D02*
D03*
Y584600D02*
D03*
Y559200D02*
D03*
Y533800D02*
D03*
Y508400D02*
D03*
D59*
X215000Y452700D02*
D03*
X250000D02*
D03*
X285000D02*
D03*
X55000Y187700D02*
D03*
X100000D02*
D03*
X145000D02*
D03*
D60*
X215000Y427300D02*
D03*
X250000D02*
D03*
X285000D02*
D03*
X55000Y162300D02*
D03*
X100000D02*
D03*
X145000D02*
D03*
D61*
X369600Y225000D02*
D03*
D62*
X395000D02*
D03*
X420400D02*
D03*
D63*
X65500Y560000D02*
D03*
Y580000D02*
D03*
Y600000D02*
D03*
Y620000D02*
D03*
X230000Y730000D02*
D03*
X250000D02*
D03*
X55000Y400000D02*
D03*
Y380000D02*
D03*
Y360000D02*
D03*
Y340000D02*
D03*
X350000Y730000D02*
D03*
X1330000Y504500D02*
D03*
X1350000D02*
D03*
D64*
X65500Y640000D02*
D03*
X55000Y320000D02*
D03*
D65*
X318100Y168800D02*
D03*
D66*
Y194200D02*
D03*
Y219600D02*
D03*
Y245000D02*
D03*
Y270400D02*
D03*
Y295800D02*
D03*
Y321200D02*
D03*
X241900D02*
D03*
Y295800D02*
D03*
Y270400D02*
D03*
Y245000D02*
D03*
Y219600D02*
D03*
Y194200D02*
D03*
Y168800D02*
D03*
D67*
X270000Y730000D02*
D03*
X370000D02*
D03*
X1370000Y504500D02*
D03*
D68*
X700000Y40000D02*
D03*
X430000D02*
D03*
X160000D02*
D03*
X970000D02*
D03*
X1240000D02*
D03*
D69*
X750000D02*
D03*
X800000D02*
D03*
X480000D02*
D03*
X530000D02*
D03*
X210000D02*
D03*
X260000D02*
D03*
X1020000D02*
D03*
X1070000D02*
D03*
X1290000D02*
D03*
X1340000D02*
D03*
D70*
X395000Y660000D02*
D03*
D71*
X369600D02*
D03*
X344200D02*
D03*
D72*
X564400Y255000D02*
D03*
X515600D02*
D03*
D73*
X1460000Y305400D02*
D03*
Y280000D02*
D03*
Y254600D02*
D03*
Y203800D02*
D03*
Y229200D02*
D03*
X1223800Y140000D02*
D03*
X1249200D02*
D03*
X1274600D02*
D03*
X1325400D02*
D03*
X1300000D02*
D03*
D74*
X1460000Y178400D02*
D03*
D75*
X1350800Y140000D02*
D03*
D76*
X290000Y360000D02*
D03*
X180000Y375000D02*
D03*
X350000Y610000D02*
D03*
X1040000Y600000D02*
D03*
X1140000Y610000D02*
D03*
X700000Y310000D02*
D03*
X425000Y105000D02*
D03*
X180000Y655000D02*
D03*
X420000Y370000D02*
D03*
X475000Y350000D02*
D03*
X480000Y385000D02*
D03*
X425000Y150000D02*
D03*
X700000Y400000D02*
D03*
X670000Y390000D02*
D03*
X700000Y480000D02*
D03*
X755000Y560000D02*
D03*
X865000Y665000D02*
D03*
X890000Y560000D02*
D03*
X945000Y490000D02*
D03*
X1135000Y510000D02*
D03*
X1160000D02*
D03*
X1135000Y305000D02*
D03*
X1210000D02*
D03*
X1070000Y405000D02*
D03*
X1030000D02*
D03*
X1135000Y420000D02*
D03*
X1110000D02*
D03*
X1430000Y445000D02*
D03*
X1260000Y425000D02*
D03*
X1020000Y340000D02*
D03*
X450000Y775000D02*
D03*
X1170000Y635000D02*
D03*
X1210000Y665000D02*
D03*
X1209440Y468702D02*
D03*
X1290000Y545000D02*
D03*
X1110000Y515000D02*
D03*
X735000Y390000D02*
D03*
X605000Y420000D02*
D03*
X805000Y385000D02*
D03*
X815000Y420000D02*
D03*
X570000Y480000D02*
D03*
X369800Y264800D02*
D03*
X515000Y600000D02*
D03*
X595000Y475000D02*
D03*
X615000Y340000D02*
D03*
X565000Y370000D02*
D03*
X515000D02*
D03*
X550000Y440000D02*
D03*
X270000Y545000D02*
D03*
X555000Y360000D02*
D03*
X505000D02*
D03*
M02*
